<?xml version="1.0" standalone="no"?>
<!DOCTYPE svg PUBLIC "-//W3C//DTD SVG 1.1//EN" "http://www.w3.org/Graphics/SVG/1.1/DTD/svg11.dtd" >
<svg>
<metadata>
Created by FontForge 20090914 at Sat Dec 13 17:38:17 2014
 By www-data
Copyright (c) 2002, 2006 Parachute&#194;&#168;, www.parachute.gr.  All rights reserved.
</metadata>
<defs>
<font id="PFBeauSansPro-Bold" horiz-adv-x="1818" >
  <font-face 
    font-family="PF BeauSans Pro"
    font-weight="700"
    font-stretch="normal"
    units-per-em="1000"
    panose-1="2 0 8 0 0 0 0 2 0 4"
    ascent="750"
    descent="-250"
    x-height="524.999"
    cap-height="701"
    bbox="-216.25 -314.004 1760 967.395"
    underline-thickness="50"
    underline-position="-50"
    unicode-range="U+0020-U+FB05"
  />
<missing-glyph horiz-adv-x="453" 
d="M0 700h453v-700h-453v700zM336 80l-109 197l-109 -197h218zM336 620h-219l110 -195zM80 164l102 186l-102 188v-374zM374 164v373l-103 -187z" />
    <glyph glyph-name="fj" unicode="fj" horiz-adv-x="630" 
d="M565 76c0 -48 -5.16602 -88.6709 -15.499 -122.004s-24.333 -61.5 -42 -84.5s-38.167 -41.5 -61.5 -55.5s-48.333 -25.333 -75 -34c-9.33301 -3.33301 -16 -4.5 -20 -3.5s-7.33301 4.83301 -10 11.5l-33 86c-3.33301 8.66699 -4 14.5 -2 17.5s6.66699 6.5 14 10.5
c20 10 36.5 20.667 49.5 32s23.167 24 30.5 38s12.333 29.333 15 46s4 35.667 4 57v341h-174v-398c0 -8 -1.66699 -13 -5 -15s-8.33301 -3 -15 -3h-104c-7.33301 0 -12.666 1 -15.999 3s-5 7.33301 -5 16v397h-71c-8 0 -12.833 1.5 -14.5 4.5s-2.5 7.16699 -2.5 12.5v57
c0 6 1 10.5 3 13.5s6.66699 5.5 14 7.5l71 17v33c0 24 3.16699 47.167 9.5 69.5s17.5 42.333 33.5 60s38 31.834 66 42.501s63.667 16 107 16c16 -0.666992 40 -2.16699 72 -4.5s67 -8.5 105 -18.5c5.33301 -1.33301 9.16602 -3.66602 11.499 -6.99902
s2.83301 -8.66602 1.5 -15.999l-15 -70c-1.33301 -5.33301 -3.33301 -9.33301 -6 -12s-7.66699 -3.33398 -15 -2.00098c-26.667 4.66699 -50.834 7.83398 -72.501 9.50098s-39.5 2.5 -53.5 2.5c-37.333 0 -63.166 -6.83301 -77.499 -20.5s-21.5 -32.5 -21.5 -56.5v-29h299
c9.33301 0 15.166 -1.16699 17.499 -3.5s3.5 -7.16602 3.5 -14.499v-431z" />
    <glyph glyph-name="ffj" unicode="ffj" horiz-adv-x="919" 
d="M544 525l287.998 -0.00390625c9.33301 0 15.166 -1.33301 17.499 -4s3.5 -7.66699 3.5 -15v-431c0 -47.333 -5.16699 -87.666 -15.5 -120.999s-24.166 -61.333 -41.499 -84s-37.666 -41.167 -60.999 -55.5s-48.333 -25.833 -75 -34.5c-7.33301 -2 -13.5 -3 -18.5 -3
s-8.83301 4 -11.5 12l-34 86c-3.33301 7.33301 -4.16602 12.5 -2.49902 15.5s6.5 6.83301 14.5 11.5c20 10 36.5 20.833 49.5 32.5s23.333 24.334 31 38.001s12.834 28.834 15.501 45.501s4 35.334 4 56.001v342h-164v-399c0 -7.33301 -1.5 -12 -4.5 -14
s-7.83301 -3 -14.5 -3h-105c-6.66699 0 -11.667 1 -15 3s-5 7 -5 15v398h-157v-399c0 -7.33301 -1.66699 -12 -5 -14s-8.33301 -3 -15 -3h-104c-7.33301 0 -12.666 1 -15.999 3s-5 7 -5 15v398h-71c-8 0 -12.833 1.33301 -14.5 4s-2.5 6.66699 -2.5 12v57c0 6 1 10.5 3 13.5
s6.66699 5.5 14 7.5l71 17v31c0 23.333 3.16699 45.833 9.5 67.5s17.666 40.667 33.999 57s38.5 29.5 66.5 39.5s63.667 15 107 15c14.667 0 35.667 -1 63 -3s57 -6.66699 89 -14c16.667 11.333 37.167 20.166 61.5 26.499s53.5 9.5 87.5 9.5
c15.333 0 38.166 -1.16699 68.499 -3.5s62.5 -8.16602 96.5 -17.499c11.333 -2.66699 16 -9 14 -19l-15 -75c-1.33301 -7.33301 -4 -11.5 -8 -12.5s-8.66699 -1.16699 -14 -0.5c-23.333 2.66699 -45.5 5 -66.5 7s-36.833 3 -47.5 3c-38 0 -64.167 -6.83301 -78.5 -20.5
s-21.5 -32.5 -21.5 -56.5v-36zM242.998 524.996l157 0.000976562v43c0 8 0.333008 16.167 1 24.5s1.66699 16.166 3 23.499l-75 3c-33.333 -1.33301 -56 -8 -68 -20s-18 -29 -18 -51v-23z" />
    <glyph glyph-name="ff" unicode="ff" horiz-adv-x="716" 
d="M698 632c-1.33301 -5.33301 -3.50391 -8.66602 -6.50391 -9.99902s-7.5 -1.33301 -13.5 0c-11.333 2 -23.333 3.66699 -36 5s-23.334 2 -32.001 2c-22 0 -36.5 -4.66699 -43.5 -14s-10.5 -20.333 -10.5 -33v-57h119c6.66699 0 11 -1 13 -3s3 -6.33301 3 -13v-77
c0 -5.33301 -1 -9.33301 -3 -12s-6.66699 -4 -14 -4h-118v-398c0 -8 -1.66699 -13 -5 -15s-8.33301 -3 -15 -3h-104c-7.33301 0 -12.666 1 -15.999 3s-5 7.33301 -5 16v397h-166v-398c0 -8 -1.66699 -13 -5 -15s-8.33301 -3 -15 -3h-104c-7.33301 0 -12.666 1 -15.999 3
s-5 7.33301 -5 16v397h-71c-8 0 -12.833 1.5 -14.5 4.5s-2.5 7.16699 -2.5 12.5v57c0 6 1 10.5 3 13.5s6.66699 5.5 14 7.5l71 17v26c0 24 3.16699 47 9.5 69s17.5 41.5 33.5 58.5s38 30.5 66 40.5s63.667 15 107 15c13.333 -0.666992 33.333 -1.83398 60 -3.50098
s56 -5.83398 88 -12.501c26.667 21.333 63.334 32 110.001 32c4.66699 0 11.834 -0.166992 21.501 -0.5s20.5 -1.16602 32.5 -2.49902s24.5 -3 37.5 -5s25.5 -5 37.5 -9c7.33301 -2 11.333 -4.5 12 -7.5s0.333984 -7.16699 -0.999023 -12.5zM244.996 525h165.999v54
c0 6 0.166992 11.833 0.5 17.5s0.833008 11.167 1.5 16.5c-13.333 2.66699 -26.333 4.5 -39 5.5s-22.667 1.5 -30 1.5c-37.333 0 -63.166 -6.33301 -77.499 -19s-21.5 -29.667 -21.5 -51v-25z" />
    <glyph glyph-name="fi" unicode="fi" horiz-adv-x="630" 
d="M565 18c0 -7.33301 -1.33301 -12.167 -4 -14.5s-8.66699 -3.5 -18 -3.5h-103c-7.33301 0 -12.666 1.16699 -15.999 3.5s-5 7.16602 -5 14.499v398h-174v-398c0 -8 -1.66699 -13 -5 -15s-8.33301 -3 -15 -3h-104c-7.33301 0 -12.666 1 -15.999 3s-5 7.33301 -5 16v397h-71
c-8 0 -12.833 1.5 -14.5 4.5s-2.5 7.16699 -2.5 12.5v57c0 6 1 10.5 3 13.5s6.66699 5.5 14 7.5l71 17v32c0 24 3.16699 47.333 9.5 70s17.5 42.667 33.5 60s38 31.333 66 42s63.667 16 107 16c16 -0.666992 40 -2.16699 72 -4.5s67 -8.5 105 -18.5
c5.33301 -1.33301 9.16602 -3.66602 11.499 -6.99902s2.83301 -8.66602 1.5 -15.999l-15 -70c-1.33301 -5.33301 -3.33301 -9.33301 -6 -12s-7.66699 -3.33398 -15 -2.00098c-26.667 4.66699 -50.834 7.83398 -72.501 9.50098s-39.5 2.5 -53.5 2.5
c-37.333 0 -63.166 -6.83301 -77.499 -20.5s-21.5 -32.5 -21.5 -56.5v-28h299c9.33301 0 15.166 -1.33301 17.499 -4s3.5 -7.33398 3.5 -14.001v-489v0z" />
    <glyph glyph-name="fl" unicode="fl" horiz-adv-x="685" 
d="M245 18c0 -8 -1.66699 -13.0029 -5 -15.0029s-8.33301 -3 -15 -3h-104c-7.33301 0 -12.666 1 -15.999 3s-5 7.33301 -5 16v399h-71c-8 0 -12.833 1.5 -14.5 4.5s-2.5 6.83301 -2.5 11.5v56c0 6 1 10.5 3 13.5s6.66699 5.5 14 7.5l71 17v33c0 24 3.16699 47.167 9.5 69.5
s17.5 42.333 33.5 60s38 31.834 66 42.501s63.667 16 107 16c14.667 -0.666992 36.167 -2 64.5 -4s58.833 -6.66699 91.5 -14l79 16c7.33301 0.666992 12.666 -0.333008 15.999 -3s5 -7.66699 5 -15v-569c0 -17.333 2.5 -29.333 7.5 -36s15.167 -10 30.5 -10
c5.33301 0 11.5 0.166992 18.5 0.5s12.833 0.833008 17.5 1.5c6.66699 1.33301 10.834 1.5 12.501 0.5s3.16699 -4.5 4.5 -10.5l10 -78c1.33301 -6.66699 1 -11.167 -1 -13.5s-6.66699 -5.16602 -14 -8.49902c-14 -5.33301 -31.167 -9.33301 -51.5 -12
s-38.166 -4 -53.499 -4c-20 0 -37.833 2.16699 -53.5 6.5s-28.834 11.833 -39.501 22.5s-18.834 24.834 -24.501 42.501s-8.5 40.167 -8.5 67.5v493c-16.667 2.66699 -32.334 4.5 -47.001 5.5s-26.667 1.5 -36 1.5c-37.333 0 -63.166 -6.5 -77.499 -19.5
s-21.5 -31.5 -21.5 -55.5v-29h112c8 0 12.667 -1.33301 14 -4s2 -6.66699 2 -12v-72c0 -6.66699 -0.666992 -11.5 -2 -14.5s-6 -4.5 -14 -4.5h-112v-400z" />
    <glyph glyph-name="ffi" unicode="ffi" horiz-adv-x="919" 
d="M728 0c-7.33301 0 -12.501 1.00098 -15.501 3.00098s-4.5 6.66699 -4.5 14v399h-164v-399c0 -7.33301 -1.5 -12 -4.5 -14s-7.83301 -3 -14.5 -3h-105c-6.66699 0 -11.667 1 -15 3s-5 7 -5 15v398h-157v-399c0 -7.33301 -1.66699 -12 -5 -14s-8.33301 -3 -15 -3h-104
c-7.33301 0 -12.666 1 -15.999 3s-5 7 -5 15v398h-71c-8 0 -12.833 1.33301 -14.5 4s-2.5 6.66699 -2.5 12v57c0 6 1 10.5 3 13.5s6.66699 5.5 14 7.5l71 17c0 15.333 0.166992 26 0.5 32s0.5 11.333 0.5 16c0 22 3.66699 42.833 11 62.5s19.5 36.667 36.5 51
s39.333 25.833 67 34.5s61.5 13 101.5 13c14.667 0 35.667 -1.16699 63 -3.5s57 -7.16602 89 -14.499c16.667 11.333 37.167 20.333 61.5 27s53.5 10 87.5 10c17.333 -0.666992 40.666 -2.33398 69.999 -5.00098s61 -8 95 -16c11.333 -2.66699 16 -9 14 -19l-16 -80
c-1.33301 -6 -3.66602 -9.33301 -6.99902 -10s-8 -0.333984 -14 0.999023c-23.333 3.33301 -45.5 6 -66.5 8s-36.833 3 -47.5 3c-38 0 -64.167 -6.83301 -78.5 -20.5s-21.5 -32.5 -21.5 -56.5v-35h288c9.33301 0 15.166 -1.33301 17.499 -4s3.5 -7.66699 3.5 -15v-489
c0 -7.33301 -1.16699 -12 -3.5 -14s-8.16602 -3 -17.499 -3h-104zM242.999 525.001h157v42c0 8 0.333008 16 1 24s1.66699 15.667 3 23c-7.33301 1.33301 -16.333 2.33301 -27 3s-26 1 -46 1c-34 0 -57.167 -6.5 -69.5 -19.5s-18.5 -30.167 -18.5 -51.5v-22z" />
    <glyph glyph-name="ffl" unicode="ffl" horiz-adv-x="967" 
d="M709 629c-13.333 2 -26.3311 3.66602 -38.998 4.99902s-23.667 2 -33 2c-34 0 -57.5 -6.5 -70.5 -19.5s-19.5 -31.5 -19.5 -55.5v-36h95c8 0 12.667 -1.5 14 -4.5s2 -7.16699 2 -12.5v-74c0 -6 -0.666992 -10.5 -2 -13.5s-6 -4.5 -14 -4.5h-98v-399
c0 -7.33301 -1.5 -12 -4.5 -14s-7.83301 -3 -14.5 -3h-105c-6.66699 0 -11.667 1 -15 3s-5 7 -5 15v398h-157v-399c0 -7.33301 -1.66699 -12 -5 -14s-8.33301 -3 -15 -3h-104c-7.33301 0 -12.666 1 -15.999 3s-5 7 -5 15v398h-71c-8 0 -12.833 1.33301 -14.5 4
s-2.5 6.66699 -2.5 12v57c0 6 1 10.5 3 13.5s6.66699 5.5 14 7.5l71 17c0 15.333 0.166992 26.166 0.5 32.499s0.5 11.833 0.5 16.5c0 22 3.66699 42.833 11 62.5s19.5 36.834 36.5 51.501s39.333 26.334 67 35.001s61.5 13 101.5 13c14.667 -0.666992 35.667 -2 63 -4
s57 -6.66699 89 -14c17.333 12 37.833 21 61.5 27s54.834 9 93.501 9c6.66699 0 16 -0.333008 28 -1s24.667 -1.83398 38 -3.50098s27.166 -3.5 41.499 -5.5s27.5 -4 39.5 -6l64 13c6.66699 1.33301 11.834 1 15.501 -1s5.5 -7.33301 5.5 -16v-577
c0 -17.333 2.5 -29.333 7.5 -36s14.833 -10 29.5 -10c5.33301 0 11.5 0.166992 18.5 0.5s13.167 0.833008 18.5 1.5s9.16602 0.5 11.499 -0.5s4.16602 -4.83301 5.49902 -11.5l9 -76c1.33301 -6.66699 1 -11.167 -1 -13.5s-6.33301 -5.16602 -13 -8.49902
c-14.667 -5.33301 -32 -9.16602 -52 -11.499s-37.667 -3.5 -53 -3.5c-20 0 -37.833 2.16699 -53.5 6.5s-28.834 11.666 -39.501 21.999s-18.834 24.333 -24.501 42s-8.5 40.167 -8.5 67.5v501zM243.002 524.999l157 -0.00195312v44c0 8 0.333008 16 1 24
s1.66699 15.667 3 23c-14.667 1.33301 -27.667 2.33301 -39 3s-23.333 1 -36 1c-33.333 -1.33301 -56 -8.16602 -68 -20.499s-18 -29.166 -18 -50.499v-24z" />
    <glyph glyph-name="ft" unicode="ft" horiz-adv-x="737" 
d="M725 26c0.666992 -4.66699 0.838867 -8.49902 0.505859 -11.499s-4.16602 -5.83301 -11.499 -8.5c-24.667 -7.33301 -49.334 -12 -74.001 -14s-45.667 -3 -63 -3c-56.667 0 -97.334 12.167 -122.001 36.5s-37 60.166 -37 107.499v285h-173v-400c0 -8 -1.66699 -13 -5 -15
s-8.66602 -3 -15.999 -3h-104c-6.66699 0 -11.834 1 -15.501 3s-5.5 7.33301 -5.5 16v399h-73c-7.33301 0 -11.666 1.5 -12.999 4.5s-2 6.83301 -2 11.5v56c0 6 1.16699 10.5 3.5 13.5s7.16602 5.5 14.499 7.5l70 16v67c0 46 12.833 83.667 38.5 113s67.167 44 124.5 44h21
c9.33301 0 19.666 -0.5 30.999 -1.5s23.166 -2.5 35.499 -4.5s24.166 -4.66699 35.499 -8c7.33301 -2.66699 11.333 -5.5 12 -8.5s0.333984 -7.16699 -0.999023 -12.5l-16 -83c-1.33301 -6 -3.5 -9.66699 -6.5 -11s-7.5 -1.33301 -13.5 0c-11.333 2 -22.333 3.33301 -33 4
s-20 1 -28 1c-22.667 0 -37.334 -4.5 -44.001 -13.5s-10 -19.833 -10 -32.5v-56h175l8 86c0.666992 7.33301 2.66699 12.666 6 15.999s8.66602 6 15.999 8l92 30c6 1.33301 11 0.833008 15 -1.5s6 -7.5 6 -15.5v-123h109c8 0 12.667 -1.5 14 -4.5s2 -7.16699 2 -12.5v-71
c0 -6.66699 -0.5 -11.5 -1.5 -14.5s-5.83301 -4.5 -14.5 -4.5h-109v-254c0 -19.333 4.66699 -32.666 14 -39.999s23.666 -11 42.999 -11c10 0 22.833 0.833008 38.5 2.5s28.167 3.16699 37.5 4.5c10 2 15.333 -1.33301 16 -10l13 -84v0z" />
    <glyph glyph-name=".notdef" horiz-adv-x="453" 
d="M0 700h453v-700h-453v700zM336 80l-109 197l-109 -197h218zM336 620h-219l110 -195zM80 164l102 186l-102 188v-374zM374 164v373l-103 -187z" />
    <glyph glyph-name="space" unicode=" " horiz-adv-x="287" 
 />
    <glyph glyph-name="exclam" unicode="!" horiz-adv-x="301" 
d="M203 246c0 -8 -1.83203 -13.168 -5.49902 -15.501s-9.5 -3.5 -17.5 -3.5h-60c-9.33301 0 -15.5 1.16699 -18.5 3.5s-4.83301 7.16602 -5.5 14.499l-22 434c-0.666992 6.66699 0.666016 11.834 3.99902 15.501s9.66602 5.5 18.999 5.5h106
c10.667 0 17.334 -2.16699 20.001 -6.5s3.66699 -9.16602 3 -14.499zM241.001 76.999c0 -24 -8.66797 -44.502 -26.001 -61.502s-38.666 -25.5 -63.999 -25.5s-46.666 8.33301 -63.999 25s-26 37.334 -26 62.001c0 12 2.33301 23.333 7 34s11.167 19.834 19.5 27.501
s18 13.834 29 18.501s22.5 7 34.5 7c25.333 0 46.666 -8.33301 63.999 -25s26 -37.334 26 -62.001z" />
    <glyph glyph-name="quotedbl" unicode="&#x22;" horiz-adv-x="480" 
d="M387 417c-0.666992 -8 -2.66504 -13 -5.99805 -15s-9.33301 -3 -18 -3h-53c-8.66699 0 -14.667 1 -18 3s-5.33301 6.66699 -6 14l-24 263c-1.33301 14.667 6.66699 22 24 22h102c11.333 0 18.166 -2.16699 20.499 -6.5s3.16602 -9.5 2.49902 -15.5zM192.002 417
c-0.666992 -8 -2.66504 -13 -5.99805 -15s-9 -3 -17 -3h-53c-9.33301 0 -15.5 1 -18.5 3s-4.83301 6.66699 -5.5 14l-24 263c-2 14.667 5.66699 22 23 22h102c11.333 0 18.166 -2.16699 20.499 -6.5s3.16602 -9.5 2.49902 -15.5z" />
    <glyph glyph-name="numbersign" unicode="#" horiz-adv-x="653" 
d="M597 381c-1.33301 -6.66699 -3.16211 -11.001 -5.49512 -13.001s-6.16602 -3 -11.499 -3h-78l-29 -141h79c9.33301 0 13 -5.66699 11 -17l-13 -54c-1.33301 -6 -3.16602 -10 -5.49902 -12s-5.83301 -3 -10.5 -3h-78l-27 -124c-1.33301 -5.33301 -2.83301 -9 -4.5 -11
s-6.16699 -3 -13.5 -3h-64c-5.33301 0 -9.33301 0.833008 -12 2.5s-3.33398 5.83398 -2.00098 12.501l26 123h-117l-26 -124c-1.33301 -5.33301 -2.83301 -9 -4.5 -11s-6.16699 -3 -13.5 -3h-63c-6 -0 -10.333 0.833008 -13 2.5s-3.33398 5.83398 -2.00098 12.501l26 123
h-76c-10.667 0 -14.667 5 -12 15l11 56c1.33301 5.33301 2.83301 9.16602 4.5 11.499s6.16699 3.5 13.5 3.5h76l29 141h-77c-6.66699 0 -10.834 1.33301 -12.501 4s-1.83398 6.66699 -0.500977 12l12 54c1.33301 4.66699 2.83301 8.5 4.5 11.5s6.16699 4.5 13.5 4.5h78
l27 124c1.33301 5.33301 3.16602 8.83301 5.49902 10.5s7.16602 2.5 14.499 2.5h58c7.33301 0 12.333 -0.833008 15 -2.5s3.33398 -6.16699 2.00098 -13.5l-25 -121h117l26 124c1.33301 5.33301 3.16602 8.83301 5.49902 10.5s7.16602 2.5 14.499 2.5h58
c7.33301 0 12.166 -0.833008 14.499 -2.5s2.83301 -6.16699 1.5 -13.5l-25 -121h79c6 0 9.83301 -1.5 11.5 -4.5s1.83398 -7.16699 0.500977 -12.5zM289.004 364.999l-30 -141h117l30 141h-117z" />
    <glyph glyph-name="dollar" unicode="$" horiz-adv-x="653" 
d="M313 -100c0 -7.33301 -1.33008 -11.3291 -3.99707 -11.9961s-7.33398 -1 -14.001 -1h-22c-5.33301 0 -9.33301 0.333008 -12 1s-4 4.66699 -4 12v94c-30 3.33301 -60.667 9.66602 -92 18.999s-60 22 -86 38c-8 4.66699 -9.66699 13.667 -5 27
c1.33301 4 3.33301 9.33301 6 16l8.5 21.5l9 22.5c3 7.33301 5.16699 13 6.5 17c3.33301 6.66699 6.66602 10.5 9.99902 11.5s8 0.5 14 -1.5c18 -8 38.167 -15.333 60.5 -22s45.166 -12.334 68.499 -17.001v184c-24 10.667 -46.333 21.667 -67 33s-38.5 24.166 -53.5 38.499
s-26.833 30.666 -35.5 48.999s-13 39.833 -13 64.5c-0.666992 45.333 12.666 84.833 39.999 118.5s70.333 55.167 129 64.5v85c0 7.33301 1.33301 11.333 4 12s6.66699 1 12 1h22c6.66699 0 11.334 -0.333008 14.001 -1s4 -4.66699 4 -12v-863zM346.003 763.004
c0 7.33301 1.50195 11.3291 4.50195 11.9961s7.5 1 13.5 1h18c6.66699 0 11.334 -0.333008 14.001 -1s4 -4.66699 4 -12v-86c22.667 -3.33301 45.667 -8.16602 69 -14.499s44 -14.166 62 -23.499c5.33301 -2.66699 8.5 -6 9.5 -10s-0.166992 -9.66699 -3.5 -17l-26 -73
c-2.66699 -8 -5.33398 -12.5 -8.00098 -13.5s-7.33398 -0.833008 -14.001 0.5c-14 4.66699 -29 8.83398 -45 12.501s-30.667 6.83398 -44 9.50098v-164c24 -11.333 46.667 -23.166 68 -35.499s40 -26.5 56 -42.5s28.667 -34 38 -54s14 -42.667 14 -68
c0 -56.667 -16.167 -100.334 -48.5 -131.001s-74.833 -50 -127.5 -58v-95c0 -7.33301 -1.33301 -11.333 -4 -12s-7.33398 -1 -14.001 -1h-18c-6 0 -10.5 0.333008 -13.5 1s-4.5 4.66699 -4.5 12v863zM446.005 187c0 13.333 -3.66602 25.167 -10.999 35.5s-19 20.5 -35 30.5
v-128c15.333 6 26.666 14.5 33.999 25.5s11.333 23.167 12 36.5zM223.006 499.001c0 -10.667 2.5 -20.332 7.5 -28.999s13.833 -17.334 26.5 -26.001v104c-12 -5.33301 -20.667 -12.5 -26 -21.5s-8 -18.167 -8 -27.5z" />
    <glyph glyph-name="percent" unicode="%" horiz-adv-x="970" 
d="M934 203c0 -31.333 -4 -59.668 -12 -85.001s-20 -47.333 -36 -66s-36 -33 -60 -43s-52 -15 -84 -15c-63.333 0 -110.833 18.833 -142.5 56.5s-47.5 88.167 -47.5 151.5c0 32 4 60.833 12 86.5s20 47.834 36 66.501s36 33 60 43s52 15 84 15c64.667 0 112.5 -19 143.5 -57
s46.5 -89 46.5 -153zM818 201.998c0 34 -5.5 62.334 -16.5 85.001s-30.833 34 -59.5 34c-27.333 0 -46.5 -11.167 -57.5 -33.5s-16.5 -50.5 -16.5 -84.5c0 -16.667 1.33301 -32.167 4 -46.5s7 -26.833 13 -37.5s13.833 -19 23.5 -25s21.5 -9 35.5 -9
c27.333 0 46.5 11.167 57.5 33.5s16.5 50.166 16.5 83.499zM418 469.999c0 -31.333 -4 -59.668 -12 -85.001s-20 -47.333 -36 -66s-36 -33 -60 -43s-52 -15 -84 -15c-63.333 0 -110.833 18.833 -142.5 56.5s-47.5 88.167 -47.5 151.5c0 32 4 60.833 12 86.5
s20 47.834 36 66.501s36 33 60 43s52 15 84 15c64.667 0 112.5 -19 143.5 -57s46.5 -89 46.5 -153zM302 468.997c0 34 -5.5 62.334 -16.5 85.001s-30.833 34 -59.5 34c-27.333 0 -46.5 -11.167 -57.5 -33.5s-16.5 -50.5 -16.5 -84.5c0 -16.667 1.33301 -32.167 4 -46.5
s7 -26.833 13 -37.5s13.833 -19 23.5 -25s21.5 -9 35.5 -9c27.333 0 46.5 11.167 57.5 33.5s16.5 50.166 16.5 83.499zM328 -14.002c-3.33301 -6 -7.49902 -10.499 -12.499 -13.499s-12.167 -4.5 -21.5 -4.5h-51c-7.33301 0 -11.833 1.83301 -13.5 5.5
s-0.833984 8.16699 2.49902 13.5l414 704c3.33301 5.33301 6.33301 9.16602 9 11.499s7.66699 3.5 15 3.5h59c6 0 10.167 -1.66699 12.5 -5s1.5 -8.33301 -2.5 -15z" />
    <glyph glyph-name="ampersand" unicode="&#x26;" horiz-adv-x="767" 
d="M705 333c0.666992 -5.33301 -0.165039 -8.83496 -2.49805 -10.502s-6.16602 -3.16699 -11.499 -4.5c-20.667 -4 -38.667 -10 -54 -18s-29 -17.333 -41 -28s-22.5 -22.834 -31.5 -36.501s-17.167 -27.834 -24.5 -42.501l42 -47l51 -57l61 -68
c3.33301 -3.33301 4.5 -7.66602 3.5 -12.999s-5.83301 -8 -14.5 -8h-109c-9.33301 0 -17.333 1 -24 3s-12.667 6 -18 12c-9.33301 9.33301 -17.666 18.333 -24.999 27l-20 22c-6.66699 7.33301 -11.667 13 -15 17c-24.667 -26.667 -53.334 -48.834 -86.001 -66.501
s-72 -26.5 -118 -26.5c-30.667 0 -58.5 4.33301 -83.5 13s-46.5 21 -64.5 37s-31.833 35.667 -41.5 59s-14.5 49.666 -14.5 78.999c0 24 3.83301 46.833 11.5 68.5s18 41.834 31 60.501s28 35.834 45 51.501s35.167 29.5 54.5 41.5c-16.667 19.333 -31.167 41.5 -43.5 66.5
s-18.5 50.5 -18.5 76.5s5 49.667 15 71s23.5 39.333 40.5 54s37 26 60 34s47.167 12 72.5 12c26 0 50.167 -3.66699 72.5 -11s41.666 -17.833 57.999 -31.5s29.166 -30.167 38.499 -49.5s14 -41 14 -65c0 -23.333 -3.66699 -44.5 -11 -63.5s-16.666 -36.167 -27.999 -51.5
s-24.333 -29.166 -39 -41.499s-29.334 -23.166 -44.001 -32.499c12 -16 23 -29.667 33 -41l31 -35c18 30 40.167 56.833 66.5 80.5s57.166 40.167 92.499 49.5c22 6.66699 42.333 10.334 61 11.001c5.33301 0 8.83301 -0.833008 10.5 -2.5s3.16699 -4.5 4.5 -8.5z
M279.001 113.998c10 0 20.166 1.66699 30.499 5s20.333 8 30 14s18.834 12.833 27.501 20.5s16 15.834 22 24.501l-52.5 63l-51.5 63c-22.667 -14.667 -42.167 -31.834 -58.5 -51.501s-24.5 -42.167 -24.5 -67.5c0 -20 5.83301 -36.833 17.5 -50.5s31.5 -20.5 59.5 -20.5z
M383 538.998c0 14 -4.33203 26.6699 -12.999 38.0029s-21 17 -37 17c-17.333 0 -31 -5 -41 -15s-15 -23 -15 -39c0 -14.667 4.33301 -29.334 13 -44.001s18.667 -28.334 30 -41.001c15.333 9.33301 29.666 21.166 42.999 35.499s20 30.5 20 48.5z" />
    <glyph glyph-name="quotesingle" unicode="'" horiz-adv-x="285" 
d="M192 417c-0.666992 -8 -2.66602 -13 -5.99902 -15s-9 -3 -17 -3h-53c-9.33301 0 -15.5 1 -18.5 3s-4.83301 6.66699 -5.5 14l-24 263c-1.33301 14.667 6.33398 22 23.001 22h102c11.333 0 18.166 -2.16699 20.499 -6.5s3.16602 -9.5 2.49902 -15.5z" />
    <glyph glyph-name="parenleft" unicode="(" horiz-adv-x="349" 
d="M317 -15c7.33301 -10 6.00098 -18.3408 -3.99902 -25.0078l-53 -38c-6.66699 -5.33301 -11.834 -7.16602 -15.501 -5.49902s-8.5 5.83398 -14.5 12.501c-24.667 26 -48 53 -70 81s-41.333 58 -58 90s-29.834 66.167 -39.501 102.5s-14.5 75.5 -14.5 117.5
c0 42.667 4.83301 82.834 14.5 120.501s22.667 73.334 39 107.001s35.5 65 57.5 94s45.333 56.5 70 82.5c6.66699 7.33301 11.834 10.833 15.501 10.5s8.83398 -3.16602 15.501 -8.49902l53 -36c5.33301 -4 8.33301 -7.16699 9 -9.5s-1 -6.16602 -5 -11.499
c-40 -52 -70.333 -105.333 -91 -160s-31 -115.667 -31 -183c0 -35.333 2.66699 -68.166 8 -98.499s13.166 -59.166 23.499 -86.499s23 -53.833 38 -79.5s32.5 -51.167 52.5 -76.5z" />
    <glyph glyph-name="parenright" unicode=")" horiz-adv-x="357" 
d="M53 -16c20 26 37.6641 52 52.9971 78s28.166 52.667 38.499 80s18 55.833 23 85.5s7.5 61.5 7.5 95.5c0 35.333 -2.66699 68.333 -8 99s-13.166 60 -23.499 88s-23 55 -38 81s-32.5 52 -52.5 78c-4 5.33301 -5.66699 9.16602 -5 11.499s3.66699 5.16602 9 8.49902l53 37
c7.33301 5.33301 12.833 8.16602 16.5 8.49902s8.5 -2.83398 14.5 -9.50098c24.667 -26 47.834 -53.667 69.501 -83s40.834 -60.666 57.501 -93.999s29.834 -68.666 39.501 -105.999s14.5 -77 14.5 -119c0 -42.667 -4.83301 -82.334 -14.5 -119.001s-22.667 -71 -39 -103
s-35.5 -62.167 -57.5 -90.5s-45.333 -55.166 -70 -80.499c-6 -7.33301 -10.833 -11.666 -14.5 -12.999s-9.16699 0.333984 -16.5 5.00098l-53 37c-10 8 -11.333 16.333 -4 25z" />
    <glyph glyph-name="asterisk" unicode="*" horiz-adv-x="507" 
d="M436 532c3.33301 -13.333 -0.666016 -20.335 -11.999 -21.002l-112 -27l16 -16.5l22.5 -24.5l22 -25c7 -8 12.167 -13.667 15.5 -17c5.33301 -6 7.33301 -11 6 -15s-5 -8.33301 -11 -13l-49 -36c-7.33301 -5.33301 -12.333 -7.5 -15 -6.5s-6 5.16699 -10 12.5l-59 98
l-56 -99c-4 -7.33301 -8 -11.166 -12 -11.499s-9 1.83398 -15 6.50098l-11 8c-4.66699 3.33301 -9.5 7 -14.5 11s-9.83301 7.66699 -14.5 11l-11 8c-5.33301 4.66699 -8.5 8.66699 -9.5 12s1.16699 7.66602 6.5 12.999l76 86l-108 27c-7.33301 2 -11.833 4 -13.5 6
s-1.16699 7.66699 1.5 17l18 57c4 14 11.667 18 23 12l105 -46l-12 113c-2 11.333 4.66699 17 20 17h62c7.33301 0 12.166 -1 14.499 -3s2.83301 -6.66699 1.5 -14l-11 -115l101 46c7.33301 3.33301 12.833 3.83301 16.5 1.5s6.5 -7.16602 8.5 -14.499z" />
    <glyph glyph-name="plus" unicode="+" horiz-adv-x="653" 
d="M580 305c0 -8 -1.16699 -13.5 -3.5 -16.5s-7.16602 -4.5 -14.499 -4.5h-168v-176c0 -7.33301 -1.16699 -12.166 -3.5 -14.499s-8.16602 -3.5 -17.499 -3.5h-93c-7.33301 0 -12.666 1.16699 -15.999 3.5s-5 7.16602 -5 14.499v176h-168
c-7.33301 0 -12.166 1.5 -14.499 4.5s-3.5 8.5 -3.5 16.5v77c0 9.33301 1.16699 15.333 3.5 18s7.16602 4 14.499 4h168v176c0 7.33301 1.66699 12.166 5 14.499s8.66602 3.5 15.999 3.5h93c9.33301 0 15.166 -1.16699 17.499 -3.5s3.5 -7.16602 3.5 -14.499v-176h168
c7.33301 0 12.166 -1.33301 14.499 -4s3.5 -8.66699 3.5 -18v-77v0z" />
    <glyph glyph-name="comma" unicode="," horiz-adv-x="282" 
d="M163 -113c-2 -7.33301 -4.33301 -12.167 -7 -14.5s-7.66699 -3.5 -15 -3.5h-54c-16 0 -23.667 5.66699 -23 17l12 256c0.666992 7.33301 2.5 12.833 5.5 16.5s9.16699 5.5 18.5 5.5h114c11.333 0 18 -2.16699 20 -6.5s2.33301 -9.5 1 -15.5z" />
    <glyph glyph-name="hyphen" unicode="-" horiz-adv-x="397" 
d="M341 251c0 -7.33301 -1.16699 -12.666 -3.5 -15.999s-7.16602 -5 -14.499 -5h-254c-7.33301 0 -12.166 1.66699 -14.499 5s-3.5 8.66602 -3.5 15.999v90c0 8.66699 1.16699 14.334 3.5 17.001s7.16602 4 14.499 4h254c7.33301 0 12.166 -1.33301 14.499 -4
s3.5 -8.33398 3.5 -17.001v-90v0z" />
    <glyph glyph-name="period" unicode="." horiz-adv-x="298" 
d="M243 78c0 -25.333 -8.83301 -46.668 -26.5 -64.001s-39.5 -26 -65.5 -26c-12.667 0 -24.667 2.33301 -36 7s-21.166 11 -29.499 19s-15 17.5 -20 28.5s-7.5 22.833 -7.5 35.5s2.5 24.5 7.5 35.5s11.667 20.5 20 28.5s18.166 14.333 29.499 19s23.333 7 36 7
c26 0 47.833 -8.66699 65.5 -26s26.5 -38.666 26.5 -63.999z" />
    <glyph glyph-name="slash" unicode="/" horiz-adv-x="461" 
d="M140 -79c-2.66699 -6.66699 -6.16602 -11.168 -10.499 -13.501s-11.5 -3.5 -21.5 -3.5h-80c-14.667 0 -20 6 -16 18l313 840c2 6 4.83301 10.167 8.5 12.5s10.167 3.5 19.5 3.5h84c6 0 10.667 -1.16699 14 -3.5s3.66602 -7.16602 0.999023 -14.499z" />
    <glyph glyph-name="zero" unicode="0" horiz-adv-x="653" 
d="M612 337c0 -52 -5.83301 -99.333 -17.5 -142s-29.5 -79.334 -53.5 -110.001s-54 -54.334 -90 -71.001s-78 -25 -126 -25s-89.833 8.16699 -125.5 24.5s-65.334 39.666 -89.001 69.999s-41.334 66.833 -53.001 109.5s-17.5 90 -17.5 142c0 52.667 6 100.334 18 143.001
s30 79.334 54 110.001s53.833 54.334 89.5 71.001s77.5 25 125.5 25c48.667 0 90.834 -8.16699 126.501 -24.5s65.334 -39.666 89.001 -69.999s41.167 -66.833 52.5 -109.5s17 -90.334 17 -143.001zM463 335c0 32.667 -2.50195 62.8311 -7.50195 90.498s-13 51.5 -24 71.5
s-25.167 35.667 -42.5 47s-38.666 17 -63.999 17s-46.5 -5.5 -63.5 -16.5s-30.833 -26.5 -41.5 -46.5s-18.334 -43.667 -23.001 -71s-7 -57.333 -7 -90c0 -32 2.33301 -61.667 7 -89s12.334 -51.166 23.001 -71.499s24.834 -36.166 42.501 -47.499s39.167 -17 64.5 -17
s46.666 5.66699 63.999 17s31.333 27 42 47s18.334 43.5 23.001 70.5s7 56.5 7 88.5z" />
    <glyph glyph-name="one" unicode="1" horiz-adv-x="653" 
d="M535 20c0 -7.33301 -1.16797 -12.4971 -3.50098 -15.4971s-7.16602 -4.5 -14.499 -4.5h-366c-7.33301 0 -12.166 1.5 -14.499 4.5s-3.5 8.16699 -3.5 15.5v79c0 9.33301 1.16699 15 3.5 17s7.16602 3 14.499 3h106v420l-106 -18c-8 -1.33301 -13.333 -0.833008 -16 1.5
s-4 7.16602 -4 14.499v73c0 6 0.833008 11 2.5 15s6.83398 7.33301 15.501 10l166 45c11.333 3.33301 22.333 5.16602 33 5.49902s20 -1.33398 28 -5.00098s14.333 -9.5 19 -17.5s7 -18.333 7 -31v-513h115c7.33301 0 12.166 -1 14.499 -3s3.5 -7.66699 3.5 -17v-79v0z" />
    <glyph glyph-name="two" unicode="2" horiz-adv-x="653" 
d="M570 20c0 -7.33301 -1.16406 -12.502 -3.49707 -15.502s-7.16602 -4.5 -14.499 -4.5h-391c-29.333 0 -51.833 6.16699 -67.5 18.5s-23.5 37.166 -23.5 74.499c0 24.667 8.5 51.334 25.5 80.001s40.167 57 69.5 85c27.333 26.667 55.666 50.334 84.999 71.001s55 38 77 52
c19.333 12 35.166 22.833 47.499 32.5s22 18.667 29 27s11.833 16.5 14.5 24.5s4 16.667 4 26c0 8 -1.66699 16 -5 24s-8.66602 15 -15.999 21s-17.166 11 -29.499 15s-27.833 6 -46.5 6c-25.333 0 -50.833 -4.16699 -76.5 -12.5s-52.167 -21.5 -79.5 -39.5
c-5.33301 -3.33301 -10.333 -5 -15 -5s-9 2.66699 -13 8l-46 70c-6.66699 10.667 -5.33398 19.334 3.99902 26.001c71.333 53.333 150.666 80 237.999 80c33.333 0 64.333 -3.83301 93 -11.5s53.667 -19.334 75 -35.001s38 -35.167 50 -58.5s18 -50.666 18 -81.999
c0 -24.667 -4 -47.167 -12 -67.5s-19.333 -39 -34 -56s-31.834 -32.667 -51.501 -47s-41.5 -28.5 -65.5 -42.5c-16.667 -9.33301 -33.667 -20.166 -51 -32.499s-33.833 -25.5 -49.5 -39.5s-30 -28.833 -43 -44.5s-22.833 -31.834 -29.5 -48.501h315
c7.33301 0 12.166 -1 14.499 -3s3.5 -7.66699 3.5 -17v-79v0z" />
    <glyph glyph-name="three" unicode="3" horiz-adv-x="653" 
d="M447 354c43.333 -11.333 74.501 -31.5059 93.501 -60.5059s28.5 -60.5 28.5 -94.5c0 -32 -6.5 -61 -19.5 -87s-31 -48.167 -54 -66.5s-50.833 -32.333 -83.5 -42s-68.334 -14.5 -107.001 -14.5c-46.667 0 -89.667 5.33301 -129 16s-75 28.667 -107 54
c-5.33301 5.33301 -8.16602 9.5 -8.49902 12.5s1.16699 7.5 4.5 13.5l44 72c4.66699 7.33301 9.16699 11.5 13.5 12.5s10.833 -1.16699 19.5 -6.5c24 -17.333 49.667 -29.5 77 -36.5s52.666 -10.5 75.999 -10.5c40 0 70.5 9.16699 91.5 27.5s31.5 43.5 31.5 75.5
c0 21.333 -8.66699 40.166 -26 56.499s-44.333 24.5 -81 24.5h-26c-16 0 -26 2 -30 6s-6 13 -6 27v40c0 15.333 1.83301 25.166 5.5 29.499s11.167 6.5 22.5 6.5h29c31.333 0 55.5 7.33301 72.5 22s25.5 33.334 25.5 56.001c0 12.667 -2.66699 23.334 -8 32.001
s-12.5 15.667 -21.5 21s-19.167 9.33301 -30.5 12s-23 4 -35 4c-23.333 0 -48.5 -3.66699 -75.5 -11s-51.833 -18.666 -74.5 -33.999c-8.66699 -5.33301 -15.167 -7.66602 -19.5 -6.99902s-8.5 4.66699 -12.5 12l-40 67c-4 6 -6 10.833 -6 14.5s2.66699 7.83398 8 12.501
c16 12.667 33.5 23.667 52.5 33s38.667 17 59 23s40.833 10.5 61.5 13.5s40.667 4.5 60 4.5c30 0 58.833 -3.16699 86.5 -9.5s52.167 -16.5 73.5 -30.5s38.333 -32.167 51 -54.5s19 -49.166 19 -80.499c0 -16 -2.5 -31.667 -7.5 -47s-12.167 -29.666 -21.5 -42.999
s-20.5 -25.166 -33.5 -35.499s-27.167 -18.5 -42.5 -24.5v-5z" />
    <glyph glyph-name="four" unicode="4" horiz-adv-x="653" 
d="M617 153c0 -7.33301 -1.66602 -12.334 -4.99902 -15.001s-8.66602 -4 -15.999 -4h-65v-115c0 -7.33301 -1.33301 -12.333 -4 -15s-8.66699 -4 -18 -4h-102c-14 0 -21 6.33301 -21 19v114h-280c-8 0 -15.833 0.666992 -23.5 2s-14.334 4 -20.001 8
s-10.334 9.66699 -14.001 17s-5.5 17 -5.5 29v25c0 12.667 1.83301 25.5 5.5 38.5s10.167 25.167 19.5 36.5l270 346c4.66699 6 9.66699 12 15 18s11.5 11.5 18.5 16.5s15 9 24 12s19.5 4.5 31.5 4.5h48c20.667 0 35.167 -4.66699 43.5 -14s12.5 -25.666 12.5 -48.999v-372
h64c7.33301 0 12.833 -1 16.5 -3s5.5 -7.66699 5.5 -17v-78zM385.001 492.999l-4 3l-189 -241l2 -5h191v243z" />
    <glyph glyph-name="five" unicode="5" horiz-adv-x="653" 
d="M591 228c0 -39.333 -7.16699 -74.002 -21.5 -104.002s-34 -55 -59 -75s-54.5 -35.167 -88.5 -45.5s-70.333 -15.5 -109 -15.5c-43.333 0 -86.5 4.5 -129.5 13.5s-83.5 28.833 -121.5 59.5c-9.33301 7.33301 -11.333 15.333 -6 24l11 17l14.5 23l14.5 22.5l11 16.5
c4.66699 6.66699 9.5 9.83398 14.5 9.50098s11.5 -3.16602 19.5 -8.49902c24.667 -17.333 51.167 -29.666 79.5 -36.999s55.166 -11 80.499 -11c45.333 0 80.166 9.5 104.499 28.5s36.5 45.167 36.5 78.5c0 31.333 -10.333 55 -31 71s-46 24 -76 24
c-14.667 0 -27.667 -1 -39 -3s-22.166 -4.5 -32.499 -7.5s-20.5 -6.66699 -30.5 -11l-31 -13.5c-8 -3.33301 -17.333 -5.5 -28 -6.5s-20.667 0.166992 -30 3.5l-35 10c-15.333 5.33301 -25.5 12.5 -30.5 21.5s-6.83301 21.167 -5.5 36.5l26 250
c2.66699 26 10.334 44.833 23.001 56.5s29.667 17.5 51 17.5h349c8.66699 0 14.5 -1 17.5 -3s4.5 -8.33301 4.5 -19v-79c0 -8.66699 -1.66699 -14.5 -5 -17.5s-9 -4.5 -17 -4.5h-292l-15 -130c22 7.33301 44.333 12.166 67 14.499s44 3.5 64 3.5
c35.333 0 68 -4.83301 98 -14.5s55.833 -23.5 77.5 -41.5s38.667 -40 51 -66s18.5 -55.333 18.5 -88z" />
    <glyph glyph-name="six" unicode="6" horiz-adv-x="653" 
d="M610 223c0 -40 -7.49805 -74.668 -22.498 -104.001s-35 -53.666 -60 -72.999s-53.667 -33.666 -86 -42.999s-65.833 -14 -100.5 -14c-49.333 0 -92.166 7.33301 -128.499 22s-66.5 35.834 -90.5 63.501s-42 61 -54 100s-18 82.5 -18 130.5c0 54 6.66699 104.167 20 150.5
s33.833 86.666 61.5 120.999s62.5 61.166 104.5 80.499s92 29 150 29c22 0 46 -1.5 72 -4.5s49.333 -8.16699 70 -15.5c4.66699 -1.33301 8.33398 -3.5 11.001 -6.5s2.33398 -9.83301 -0.999023 -20.5l-22 -79c-2.66699 -8 -6.33398 -12.167 -11.001 -12.5
s-9.66699 0.166992 -15 1.5c-14.667 4 -30.5 7.16699 -47.5 9.5s-33.833 3.5 -50.5 3.5c-50 0 -90.667 -12.5 -122 -37.5s-52 -61.167 -62 -108.5c9.33301 2.66699 20.166 5.16699 32.499 7.5s25 4.5 38 6.5s26 3.5 39 4.5s24.833 1.5 35.5 1.5
c35.333 0 68.666 -4 99.999 -12s58.666 -20.667 81.999 -38s41.666 -39.333 54.999 -66s20 -59 20 -97zM461.002 217.999c0 31.333 -9.50098 55.832 -28.501 73.499s-47.5 26.5 -85.5 26.5c-26 0 -50.167 -1.83301 -72.5 -5.5s-47.166 -9.16699 -74.499 -16.5v-23
c0 -49.333 12.667 -88.333 38 -117s59.666 -43 102.999 -43c34.667 0 63.334 8.83301 86.001 26.5s34 43.834 34 78.501z" />
    <glyph glyph-name="seven" unicode="7" horiz-adv-x="653" 
d="M522 674c34.667 0 51.998 -15 51.998 -45v-31c0 -20.667 -5.33301 -41.667 -16 -63l-283 -513c-5.33301 -8.66699 -10.666 -14.5 -15.999 -17.5s-13.666 -4.5 -24.999 -4.5h-110c-8 0 -13.333 2.66699 -16 8s-2.33398 11 0.999023 17l291 525h-319
c-8 0 -13.5 1.5 -16.5 4.5s-4.5 9.16699 -4.5 18.5v77c0 10 1.33301 16.5 4 19.5s8.33398 4.5 17.001 4.5h441z" />
    <glyph glyph-name="eight" unicode="8" horiz-adv-x="653" 
d="M480 361c20 -6.66699 36.8359 -15.8369 50.5029 -27.5039s25 -24.834 34 -39.501s15.5 -30 19.5 -46s6 -31.333 6 -46c0 -30.667 -6 -59 -18 -85s-29.5 -48.5 -52.5 -67.5s-51.167 -33.833 -84.5 -44.5s-71.333 -16 -114 -16c-42 0 -79.5 5 -112.5 15s-61 24 -84 42
s-40.5 39.667 -52.5 65s-18 53.666 -18 84.999c0 18 2.66699 35.5 8 52.5s13 32.833 23 47.5s21.667 27.667 35 39s28 20 44 26v3c-16 6 -29.333 14 -40 24s-19.167 20.833 -25.5 32.5s-11 23.334 -14 35.001s-4.5 22.5 -4.5 32.5c0 32 6.66699 60.333 20 85
s31.166 45.334 53.499 62.001s48.166 29.334 77.499 38.001s60 13 92 13c37.333 0 70.833 -4.5 100.5 -13.5s55 -21.667 76 -38s37 -36.166 48 -59.499s16.5 -49 16.5 -77c0 -10 -1.5 -21.167 -4.5 -33.5s-7.83301 -24.666 -14.5 -36.999s-15.334 -24.166 -26.001 -35.499
s-23.667 -21 -39 -29v-2zM440.003 206.997c0 30.667 -11.167 54.5 -33.5 71.5s-50.5 25.5 -84.5 25.5s-62.167 -9 -84.5 -27s-33.5 -42 -33.5 -72c0 -11.333 2 -22.833 6 -34.5s10.667 -22 20 -31s21.333 -16.333 36 -22s33 -8.5 55 -8.5c22.667 0 41.5 3 56.5 9
s27.167 13.667 36.5 23s16 19.833 20 31.5s6 23.167 6 34.5zM419.003 480.997c0 22 -7.83203 41 -23.499 57s-40.5 24 -74.5 24s-58.5 -8.5 -73.5 -25.5s-22.5 -36.5 -22.5 -58.5c0 -20 8.83301 -37.167 26.5 -51.5s40.5 -21.5 68.5 -21.5
c29.333 0 53.166 7.66699 71.499 23s27.5 33 27.5 53z" />
    <glyph glyph-name="nine" unicode="9" horiz-adv-x="653" 
d="M194 458c0 -31.333 9.83105 -55.8311 29.498 -73.498s47.5 -26.5 83.5 -26.5c26.667 0 51.167 1.66699 73.5 5s46.5 8.66602 72.5 15.999c1.33301 6 2 10.667 2 14v10c0 24 -3.66699 45.833 -11 65.5s-17.166 36.5 -29.499 50.5s-27.166 24.833 -44.499 32.5
s-36 11.5 -56 11.5c-16 0 -31.167 -2.33301 -45.5 -7s-27 -11.334 -38 -20.001s-19.833 -19.667 -26.5 -33s-10 -28.333 -10 -45zM44.998 453.002c0 40 7.50684 74.499 22.5068 103.499s35 53.167 60 72.5s53.5 33.666 85.5 42.999s65.333 14 100 14
c48.667 0 91.167 -7.33301 127.5 -22s66.666 -35.834 90.999 -63.501s42.5 -61 54.5 -100s18 -82.5 18 -130.5c0 -54 -6.66699 -104.167 -20 -150.5s-33.833 -86.5 -61.5 -120.5s-62.667 -60.833 -105 -80.5s-92.5 -29.5 -150.5 -29.5c-21.333 0 -44.833 1.5 -70.5 4.5
s-48.834 8.16699 -69.501 15.5c-4.66699 2 -8.5 4.33301 -11.5 7s-2.83301 9.33398 0.5 20.001l22 80c2 7.33301 5.33301 11.333 10 12s10 0.333984 16 -0.999023c13.333 -3.33301 29 -6.33301 47 -9s35 -4 51 -4c49.333 0 89.833 12.5 121.5 37.5s52.5 61.167 62.5 108.5
c-9.33301 -3.33301 -19.833 -6.16602 -31.5 -8.49902s-23.834 -4.5 -36.501 -6.5s-25.334 -3.5 -38.001 -4.5s-24.334 -1.5 -35.001 -1.5c-35.333 0 -68.833 4 -100.5 12s-59.334 20.667 -83.001 38s-42.334 39.5 -56.001 66.5s-20.5 59.5 -20.5 97.5z" />
    <glyph glyph-name="colon" unicode=":" horiz-adv-x="298" 
d="M243 434c0 -12.667 -2.33398 -24.334 -7.00098 -35.001s-11.167 -20 -19.5 -28s-18.166 -14.333 -29.499 -19s-23.333 -7 -36 -7s-24.667 2.16699 -36 6.5s-21.166 10.5 -29.499 18.5s-15 17.5 -20 28.5s-7.5 22.833 -7.5 35.5s2.5 24.334 7.5 35.001s11.667 20 20 28
s18.166 14.333 29.499 19s23.333 7 36 7c26 0 47.833 -8.5 65.5 -25.5s26.5 -38.167 26.5 -63.5zM242.999 79c0 -12.667 -2.33398 -24.333 -7.00098 -35s-11.167 -20 -19.5 -28s-18.166 -14.333 -29.499 -19s-23.333 -7 -36 -7s-24.667 2.16699 -36 6.5
s-21.166 10.5 -29.499 18.5s-15 17.5 -20 28.5s-7.5 22.833 -7.5 35.5c0 12 2.5 23.5 7.5 34.5s11.667 20.5 20 28.5s18.166 14.333 29.499 19s23.333 7 36 7c26 0 47.833 -8.5 65.5 -25.5s26.5 -38.167 26.5 -63.5z" />
    <glyph glyph-name="semicolon" unicode=";" horiz-adv-x="296" 
d="M248 434c0 -25.333 -8.83301 -46.5 -26.5 -63.5s-39.5 -25.5 -65.5 -25.5s-47.833 8.5 -65.5 25.5s-26.5 38.167 -26.5 63.5s8.83301 46.5 26.5 63.5s39.5 25.5 65.5 25.5s47.833 -8.5 65.5 -25.5s26.5 -38.167 26.5 -63.5zM166 -111
c-2 -7.33301 -4.33398 -12.499 -7.00098 -15.499s-8 -4.5 -16 -4.5h-53c-16.667 0 -24.667 6.33301 -24 19l13 252c0.666992 7.33301 2.5 13.166 5.5 17.499s9.16699 6.5 18.5 6.5h114c11.333 0 17.833 -2.5 19.5 -7.5s1.83398 -10.5 0.500977 -16.5z" />
    <glyph glyph-name="less" unicode="&#x3c;" horiz-adv-x="653" 
d="M253 346l302.002 -139.003c11.333 -5.33301 18.166 -10.166 20.499 -14.499s3.5 -11.833 3.5 -22.5v-79c0 -6.66699 -1.33301 -12.167 -4 -16.5s-9 -3.83301 -19 1.5l-447 210c-11.333 5.33301 -19.833 10.833 -25.5 16.5s-8.83398 12.834 -9.50098 21.501v33
c0 14 3 23.833 9 29.5s14.667 11.167 26 16.5l447 211c10 5.33301 16.333 5.66602 19 0.999023s4 -10.667 4 -18v-77c0 -9.33301 -1 -16.166 -3 -20.499s-8.33301 -9.16602 -19 -14.499z" />
    <glyph glyph-name="equal" unicode="=" horiz-adv-x="653" 
d="M568 404c0 -7.33301 -1.16699 -12.667 -3.5 -16s-7.16602 -5 -14.499 -5h-447c-12.667 0 -19 7 -19 21v77c0 8.66699 1.16699 14.334 3.5 17.001s7.5 4 15.5 4h447c7.33301 0 12.166 -1.33301 14.499 -4s3.5 -8.33398 3.5 -17.001v-77zM569 196.999
c0 -7.33301 -1.16797 -12.833 -3.50098 -16.5s-7.16602 -5.5 -14.499 -5.5h-448c-12.667 0 -19 6.66699 -19 20v79c0 7.33301 1 12.333 3 15s6.66699 4 14 4h451c7.33301 0 12 -1.5 14 -4.5s3 -8.16699 3 -15.5v-76z" />
    <glyph glyph-name="greater" unicode="&#x3e;" horiz-adv-x="653" 
d="M96 485c-10 5.33301 -15.9971 10.1689 -17.9971 14.502s-3 11.166 -3 20.499v77c0 7.33301 1.33301 13.333 4 18s9 4.33398 19 -0.999023l446 -211c11.333 -5.33301 20.166 -10.833 26.499 -16.5s9.5 -15.5 9.5 -29.5v-33
c-0.666992 -8.66699 -3.83398 -15.834 -9.50098 -21.501s-14.5 -11.167 -26.5 -16.5l-447 -210c-9.33301 -5.33301 -15.333 -5.83301 -18 -1.5s-4 9.83301 -4 16.5v79c0 10.667 1.16699 18.167 3.5 22.5s9.16602 9.16602 20.499 14.499l301 139z" />
    <glyph glyph-name="question" unicode="?" horiz-adv-x="579" 
d="M296 707c30.667 0 60.168 -3.17188 88.501 -9.50488s53.333 -16.5 75 -30.5s39 -32 52 -54s19.5 -48.667 19.5 -80c0 -17.333 -2.83301 -33.5 -8.5 -48.5s-13 -29.167 -22 -42.5s-19.167 -26.166 -30.5 -38.499s-23 -24.166 -35 -35.499l-35.5 -34.5
c-11.667 -11 -22 -21.833 -31 -32.5s-16.333 -21.5 -22 -32.5s-8.5 -22.5 -8.5 -34.5v-23c0 -5.33301 -1 -9.16602 -3 -11.499s-6.33301 -3.5 -13 -3.5h-109c-7.33301 0 -11.666 1.5 -12.999 4.5s-2 7.16699 -2 12.5v32c0 18.667 3.16699 35.834 9.5 51.501
s14.333 30.167 24 43.5s20.5 25.833 32.5 37.5l36 34.5c17.333 16 32.5 32.333 45.5 49s19.5 35.667 19.5 57c0 15.333 -6.66699 28.833 -20 40.5s-34 17.5 -62 17.5c-49.333 0 -100.333 -16 -153 -48c-5.33301 -3.33301 -10 -5.16602 -14 -5.49902s-8 2.5 -12 8.5l-44 77
c-2.66699 4.66699 -3.83398 8.83398 -3.50098 12.501s3.5 7.5 9.5 11.5c18 13.333 36.833 24.666 56.5 33.999s39.5 17 59.5 23s39.667 10.5 59 13.5s37.666 4.5 54.999 4.5zM355.001 69.9951c0 -24.667 -8.83398 -45.167 -26.501 -61.5s-39.167 -24.5 -64.5 -24.5
s-47 8 -65 24s-27 36.667 -27 62c0 12 2.5 23.333 7.5 34s11.667 20 20 28s18.166 14.333 29.499 19s23.333 7 36 7c10.667 0 21.334 -1.83301 32.001 -5.5s20.334 -9.16699 29.001 -16.5s15.667 -16.5 21 -27.5s8 -23.833 8 -38.5z" />
    <glyph glyph-name="at" unicode="@" horiz-adv-x="982" 
d="M657 254c0 -4.66699 0.49707 -10.1709 1.49707 -16.5039s3.33301 -12.5 7 -18.5s9 -11 16 -15s16.833 -6 29.5 -6c33.333 0 58 13.833 74 41.5s24 63.167 24 106.5c0 44 -6.83301 84 -20.5 120s-33.334 67 -59.001 93s-56.667 46 -93 60s-77.166 21 -122.499 21
c-51.333 0 -97.833 -8.16699 -139.5 -24.5s-77.167 -38.833 -106.5 -67.5s-52.166 -62 -68.499 -100s-24.5 -79 -24.5 -123c0 -46 7.66699 -88 23 -126s37.166 -70.667 65.499 -98s62.333 -48.5 102 -63.5s84.167 -22.5 133.5 -22.5c16.667 0 36.5 1.83301 59.5 5.5
s47.167 10.167 72.5 19.5c5.33301 2 9.66602 3 12.999 3s6 -2.66699 8 -8l21 -57c2 -5.33301 2.16699 -9.33301 0.5 -12s-5.16699 -5.66699 -10.5 -9c-12 -6 -25.333 -11.333 -40 -16s-29.5 -8.33398 -44.5 -11.001s-29.667 -4.66699 -44 -6s-27.166 -2 -38.499 -2
c-65.333 0 -124 9.83301 -176 29.5s-96.167 47.334 -132.5 83.001s-64.333 78 -84 127s-29.5 103.167 -29.5 162.5c0 58.667 11.167 113 33.5 163s53.333 93.167 93 129.5s86.334 64.833 140.001 85.5s111.5 31 173.5 31c60.667 0 115.334 -9 164.001 -27
s90 -43.833 124 -77.5s60.167 -74.167 78.5 -121.5s27.5 -100 27.5 -158c0 -37.333 -5.16699 -71 -15.5 -101s-24.833 -55.5 -43.5 -76.5s-41 -37.167 -67 -48.5s-55 -17 -87 -17c-33.333 0 -61 5.5 -83 16.5s-36.667 25.167 -44 42.5
c-16 -11.333 -34.833 -20.666 -56.5 -27.999s-43.167 -11 -64.5 -11c-51.333 0 -90.333 10.833 -117 32.5s-40 54.5 -40 98.5c0 40.667 13.667 74.5 41 101.5s69.333 40.5 126 40.5h84v10c0 6.66699 -0.666992 13.334 -2 20.001s-4.33301 12.334 -9 17.001
s-11.167 8.5 -19.5 11.5s-19.833 4.5 -34.5 4.5c-15.333 0 -32.833 -1.33301 -52.5 -4s-37.5 -5.66699 -53.5 -9c-9.33301 -2 -15.666 -2.5 -18.999 -1.5s-5.66602 4.83301 -6.99902 11.5l-11 53c-2 7.33301 -2 12.5 0 15.5s6.66699 6.16699 14 9.5
c22 6.66699 44.833 11.834 68.5 15.501s49.167 5.5 76.5 5.5c57.333 0 99.166 -12.333 125.499 -37s39.5 -61 39.5 -109v-158zM539.997 318.996l-63.002 -0.000976562c-7.33301 0 -14.833 -0.5 -22.5 -1.5s-15 -3.5 -22 -7.5s-12.667 -9.5 -17 -16.5s-6.5 -16.5 -6.5 -28.5
c0 -17.333 5.83301 -29.166 17.5 -35.499s25.834 -9.5 42.501 -9.5c7.33301 0 18.333 1.33301 33 4s27.334 7.66699 38.001 15v80z" />
    <glyph glyph-name="A" unicode="A" horiz-adv-x="655" 
d="M441 146h-229l-39 -127c-2 -6.66699 -4.83301 -11.5 -8.5 -14.5s-10.167 -4.5 -19.5 -4.5h-117c-7.33301 0 -11.833 2 -13.5 6s-1.83398 8.66699 -0.500977 14l208 627c3.33301 11.333 7.16602 20.5 11.499 27.5s9.33301 12.5 15 16.5s12.334 6.83301 20.001 8.5
s16.5 2.5 26.5 2.5h60c11.333 0 21 -0.5 29 -1.5s15 -3.5 21 -7.5s11.167 -9.66699 15.5 -17s8.5 -17 12.5 -29l208 -627c1.33301 -4 1.33301 -8.33301 0 -13s-5.66602 -7 -12.999 -7h-119c-7.33301 -0 -13.5 0.833008 -18.5 2.5s-8.5 6.16699 -10.5 13.5zM248 270h157
l-38 127l-37 143h-6l-38 -143z" />
    <glyph glyph-name="B" unicode="B" horiz-adv-x="680" 
d="M518 383c18.667 -7.33301 34.833 -17.1689 48.5 -29.502s24.834 -26 33.501 -41s15 -31.167 19 -48.5s6 -34.333 6 -51c0 -32 -6.16699 -61 -18.5 -87s-29.333 -48.333 -51 -67s-47 -33.167 -76 -43.5s-60.167 -15.5 -93.5 -15.5h-251c-24 0 -40 4.83301 -48 14.5
s-12 25.167 -12 46.5v578c0 21.333 4 37 12 47s24 15 48 15h245c30 0 58.167 -3.33301 84.5 -10s49.166 -17.167 68.499 -31.5s34.5 -32.666 45.5 -54.999s16.5 -49.166 16.5 -80.499c0 -28 -7.16699 -54.167 -21.5 -78.5s-32.833 -42.833 -55.5 -55.5v-7zM467.999 222.997
c0 26.667 -8.16797 48.3311 -24.501 64.998s-40.5 25 -72.5 25h-144v-179h144c18.667 0 34.334 2.83301 47.001 8.5s22.667 12.834 30 21.501s12.5 18.334 15.5 29.001s4.5 20.667 4.5 30zM226.998 434.994h136c8 0 16.5 1 25.5 3s17.167 5.5 24.5 10.5s13.333 12 18 21
s7 20.5 7 34.5c0 20 -6.33301 35.667 -19 47s-29.667 17 -51 17h-141v-133z" />
    <glyph glyph-name="C" unicode="C" horiz-adv-x="643" 
d="M388 127c32 0 60.335 3.83398 85.002 11.501s47.667 15.5 69 23.5c9.33301 4 16 4.83301 20 2.5s7.66699 -7.16602 11 -14.499l34 -72c4.66699 -9.33301 6.33398 -16.333 5.00098 -21s-5 -8.66699 -11 -12c-36 -22 -73.833 -36.833 -113.5 -44.5
s-78.834 -11.5 -117.501 -11.5c-54.667 0 -101.834 8.16699 -141.501 24.5s-72.334 39.833 -98.001 70.5s-44.667 68.167 -57 112.5s-18.5 94.166 -18.5 149.499c0 54.667 7.83301 104.334 23.5 149.001s37.5 83 65.5 115s61.833 56.667 101.5 74s83.5 26 131.5 26
c34 0 67.333 -2.83301 100 -8.5s64.667 -17.167 96 -34.5c7.33301 -4 11.666 -8 12.999 -12s-0.333984 -11.667 -5.00098 -23l-31 -69c-3.33301 -9.33301 -6.83301 -15 -10.5 -17s-10.167 -1.33301 -19.5 2c-24 8.66699 -46.333 15.167 -67 19.5s-43.667 6.5 -69 6.5
c-27.333 0 -51.5 -5.83301 -72.5 -17.5s-38.667 -27.667 -53 -48s-25.166 -44.333 -32.499 -72s-11 -57.834 -11 -90.501s2.83301 -62.334 8.5 -89.001s15.334 -49.667 29.001 -69s31.5 -34.333 53.5 -45s49.333 -16 82 -16z" />
    <glyph glyph-name="D" unicode="D" horiz-adv-x="697" 
d="M135 0c-24 0 -39.999 4.83398 -47.999 14.501s-12 25.167 -12 46.5v578c0 21.333 4 37 12 47s24 15 48 15h187c58.667 0 108.334 -9.33301 149.001 -28s73.667 -43.667 99 -75s43.666 -68.166 54.999 -110.499s17 -86.833 17 -133.5c0 -46 -5 -90.333 -15 -133
s-27 -80.334 -51 -113.001s-55.833 -58.834 -95.5 -78.501s-88.834 -29.5 -147.501 -29.5h-198zM485.001 354.001c0 30.667 -2.66699 59 -8 85s-14.833 48.5 -28.5 67.5s-32.167 34 -55.5 45s-52.666 16.5 -87.999 16.5h-78v-434h81c34.667 0 63.5 5.5 86.5 16.5
s41.167 26.167 54.5 45.5s22.666 42.5 27.999 69.5s8 56.5 8 88.5z" />
    <glyph glyph-name="E" unicode="E" horiz-adv-x="613" 
d="M576 23c0 -8 -1.33203 -13.835 -3.99902 -17.502s-8 -5.5 -16 -5.5h-296c-37.333 0 -67.833 5.33301 -91.5 16s-42.5 24.667 -56.5 42s-23.667 37 -29 59s-8 44.333 -8 67v332c0 24 3.33301 47 10 69s17.167 41.667 31.5 59s33.166 31.166 56.499 41.499s52 15.5 86 15.5
h287c8 0 13.167 -1.66699 15.5 -5s3.5 -9.66602 3.5 -18.999v-85c0 -8.66699 -1.33301 -14.5 -4 -17.5s-7.66699 -4.5 -15 -4.5h-254c-26 0 -43.333 -6 -52 -18s-13 -26.667 -13 -44v-77h287c8 0 13.167 -1.66699 15.5 -5s3.5 -9.66602 3.5 -18.999v-78
c0 -8 -1.16699 -13.833 -3.5 -17.5s-7.5 -5.5 -15.5 -5.5h-287v-114c0 -23.333 5.5 -39.166 16.5 -47.499s27.167 -12.5 48.5 -12.5h264c8.66699 0 14.167 -1.5 16.5 -4.5s3.5 -9.5 3.5 -19.5v-85v0z" />
    <glyph glyph-name="F" unicode="F" horiz-adv-x="591" 
d="M227 21c0 -9.33301 -1.33105 -15.167 -3.99805 -17.5s-9 -3.5 -19 -3.5h-106c-8 0 -13.833 1.5 -17.5 4.5s-5.5 8.5 -5.5 16.5v495c0 24 3.16699 47 9.5 69s16.666 41.667 30.999 59s33.166 31.166 56.499 41.499s52.333 15.5 87 15.5h292
c8.66699 0 14.167 -1.66699 16.5 -5s3.5 -9.66602 3.5 -18.999v-85c0 -8.66699 -1.5 -14.5 -4.5 -17.5s-8.16699 -4.5 -15.5 -4.5h-259c-26 0 -43.333 -5.83301 -52 -17.5s-13 -26.5 -13 -44.5v-92h284c8 0 13.167 -1.5 15.5 -4.5s3.5 -9.5 3.5 -19.5v-78
c0 -8 -1.33301 -13.833 -4 -17.5s-7.66699 -5.5 -15 -5.5h-284v-270v0z" />
    <glyph glyph-name="G" unicode="G" horiz-adv-x="692" 
d="M384 126c12.667 0 28.6621 0.831055 47.9951 2.49805s38 5.83398 56 12.501l1 148c-23.333 1.33301 -46.666 0 -69.999 -4s-46 -10.667 -68 -20c-9.33301 -3.33301 -15.833 -5 -19.5 -5s-7.16699 3.66699 -10.5 11l-26 81c-2 5.33301 -2.66699 10 -2 14
s4.66699 7.66699 12 11c23.333 11.333 50.833 20.833 82.5 28.5s63.5 11.5 95.5 11.5c17.333 0 33.333 -0.5 48 -1.5s27.667 -2.83301 39 -5.5c14.667 -3.33301 26.334 -8.16602 35.001 -14.499s15.334 -14.333 20.001 -24s7.66699 -20.667 9 -33s2 -25.833 2 -40.5v-210
c0 -9.33301 -1.33301 -17.833 -4 -25.5s-9.33398 -14.834 -20.001 -21.501c-20 -12 -41.667 -21.333 -65 -28s-46.166 -11.834 -68.499 -15.501s-43.166 -6 -62.499 -7s-34.666 -1.5 -45.999 -1.5c-54.667 0 -101.834 8.16699 -141.501 24.5s-72.334 40 -98.001 71
s-44.667 68.5 -57 112.5s-18.5 94 -18.5 150c0 54.667 7 104.334 21 149.001s34.833 82.834 62.5 114.501s61.667 56.167 102 73.5s86.5 26 138.5 26c34.667 0 69 -2.83301 103 -8.5s66.667 -17.167 98 -34.5c7.33301 -4 11.666 -8 12.999 -12s-0.666992 -11.667 -6 -23
l-31 -71c-3.33301 -9.33301 -6.83301 -15 -10.5 -17s-10.167 -1.33301 -19.5 2c-24 8.66699 -47.167 15 -69.5 19s-46.166 6 -71.499 6c-29.333 0 -54.666 -5.66699 -75.999 -17s-39 -27 -53 -47s-24.333 -43.667 -31 -71s-10 -57.333 -10 -90
c0 -33.333 2.66699 -63.5 8 -90.5s14.5 -50 27.5 -69s30.333 -33.833 52 -44.5s48.834 -16 81.501 -16z" />
    <glyph glyph-name="H" unicode="H" horiz-adv-x="726" 
d="M651 21c0 -8.66699 -1.5 -14.3301 -4.5 -16.9971s-9.5 -4 -19.5 -4h-105c-8.66699 0 -14.667 1.5 -18 4.5s-5 8.5 -5 16.5v280h-271v-280c0 -8.66699 -1.5 -14.334 -4.5 -17.001s-9.5 -4 -19.5 -4h-106c-8 0 -13.833 1.5 -17.5 4.5s-5.5 8.5 -5.5 16.5v658
c0 8 1.83301 13.5 5.5 16.5s9.5 4.5 17.5 4.5h106c10 0 16.5 -1.33301 19.5 -4s4.5 -8.33398 4.5 -17.001v-249h271v249c0 8 1.66699 13.5 5 16.5s9.33301 4.5 18 4.5h105c10 0 16.5 -1.33301 19.5 -4s4.5 -8.33398 4.5 -17.001v-658v0z" />
    <glyph glyph-name="I" unicode="I" horiz-adv-x="329" 
d="M241 21c0 -8.66699 -1.5 -14.332 -4.5 -16.999s-9.5 -4 -19.5 -4h-106c-8 0 -13.833 1.5 -17.5 4.5s-5.5 8.5 -5.5 16.5v658c0 8 1.83301 13.5 5.5 16.5s9.5 4.5 17.5 4.5h106c10 0 16.5 -1.33301 19.5 -4s4.5 -8.33398 4.5 -17.001v-658v0z" />
    <glyph glyph-name="J" unicode="J" horiz-adv-x="590" 
d="M240 -11c-14 0 -30.501 0.833984 -49.501 2.50098s-38.667 4.5 -59 8.5s-40.333 9.33301 -60 16s-37.5 14.667 -53.5 24c-5.33301 3.33301 -8.5 6.33301 -9.5 9s0.5 8.66699 4.5 18l36 82c3.33301 7.33301 6.5 11.166 9.5 11.499s7.83301 -0.833984 14.5 -3.50098
c22.667 -9.33301 47.334 -17 74.001 -23s53.334 -9 80.001 -9c28 0 50.667 4 68 12s31 19.5 41 34.5s16.667 33 20 54s5 44.167 5 69.5v385c0 9.33301 2 15 6 17s9.66699 3 17 3h106c8.66699 0 14.667 -1 18 -3s5 -7.66699 5 -17v-410
c0 -43.333 -4.83301 -82.166 -14.5 -116.499s-25.167 -63.833 -46.5 -88.5s-49.333 -43.5 -84 -56.5s-77.334 -19.5 -128.001 -19.5z" />
    <glyph glyph-name="K" unicode="K" horiz-adv-x="683" 
d="M436 446l233.001 -421.002c4.66699 -7.33301 6 -13.333 4 -18s-6.66699 -7 -14 -7h-116c-14 0 -24.167 0.833008 -30.5 2.5s-12.833 8.5 -19.5 20.5l-161 299l-106 -127v-174c0 -9.33301 -1.33301 -15.166 -4 -17.499s-9 -3.5 -19 -3.5h-105c-8 0 -13.833 1.5 -17.5 4.5
s-5.5 8.5 -5.5 16.5v658c0 8 1.83301 13.5 5.5 16.5s9.5 4.5 17.5 4.5h105c10 0 16.333 -1.16699 19 -3.5s4 -8.16602 4 -17.499v-268l4 -2l94 119l125 156c6 6.66699 12 11 18 13s15.667 3 29 3h129c6 0 10.167 -1.83301 12.5 -5.5s1.16602 -8.16699 -3.50098 -13.5z" />
    <glyph glyph-name="L" unicode="L" horiz-adv-x="578" 
d="M260 0c-37.333 0 -67.833 5.33301 -91.5 16s-42.5 24.667 -56.5 42s-23.667 37 -29 59s-8 44.333 -8 67v496c0 8 1.83301 13.5 5.5 16.5s9.5 4.5 17.5 4.5h106c10 0 16.5 -1.33301 19.5 -4s4.5 -8.33398 4.5 -17.001v-485c0 -25.333 6.16699 -42.333 18.5 -51
s28.5 -13 48.5 -13h254c7.33301 0 12.333 -1.16699 15 -3.5s4 -8.16602 4 -17.499v-89c0 -14 -6.33301 -21 -19 -21h-289v0z" />
    <glyph glyph-name="M" unicode="M" horiz-adv-x="870" 
d="M651 403h-6l-41 -93l-83 -184c-7.33301 -17.333 -14.833 -29 -22.5 -35s-19.167 -9 -34.5 -9h-55c-16.667 0 -28.167 3 -34.5 9s-13.5 17.667 -21.5 35l-62 130l-62 135h-6v-371c0 -9.33301 -1.66699 -15 -5 -17s-9.33301 -3 -18 -3h-102c-7.33301 0 -13 1 -17 3
s-6 7.66699 -6 17v611c0 25.333 4.83301 43.333 14.5 54s26.167 16 49.5 16h58c18.667 0 32.5 -3.5 41.5 -10.5s17.5 -19.167 25.5 -36.5l109 -244l62 -142h4l68 156l102 228c8 18 16.833 30.667 26.5 38s25.167 11 46.5 11h49c21.333 0 37.333 -4.5 48 -13.5
s16 -26.167 16 -51.5v-616c0 -9.33301 -1.66699 -15 -5 -17s-9.33301 -3 -18 -3h-99c-7.33301 0 -12.833 1 -16.5 3s-5.5 7.66699 -5.5 17v383z" />
    <glyph glyph-name="N" unicode="N" horiz-adv-x="744" 
d="M226 435v-414c0 -8.66699 -1.5 -14.334 -4.5 -17.001s-9.16699 -4 -18.5 -4h-105c-8 0 -13.833 1.5 -17.5 4.5s-5.5 8.5 -5.5 16.5v610c0 26 4.66699 44.167 14 54.5s26.333 15.5 51 15.5h42c10 0 18.5 -0.5 25.5 -1.5s13.167 -3.16699 18.5 -6.5s10.333 -8 15 -14
s10 -13.667 16 -23l170 -259l86 -135h5v418c0 8 1.5 13.5 4.5 16.5s9.16699 4.5 18.5 4.5h105c15.333 0 23 -7 23 -21v-611c0 -21.333 -4.33301 -38.166 -13 -50.499s-26 -18.5 -52 -18.5h-42c-10 0 -18.5 0.5 -25.5 1.5s-13.167 3.16699 -18.5 6.5
s-10.333 7.83301 -15 13.5s-10 13.167 -16 22.5l-160 242l-96 149h-5z" />
    <glyph glyph-name="O" unicode="O" horiz-adv-x="730" 
d="M675 352c0 -57.333 -6.16797 -108.336 -18.501 -153.003s-31.5 -82.667 -57.5 -114s-58.667 -55.166 -98 -71.499s-86 -24.5 -140 -24.5c-103.333 0 -180.166 31.333 -230.499 94s-75.5 151.334 -75.5 266.001c0 56 7.16699 106.5 21.5 151.5s34.833 83 61.5 114
s59 54.833 97 71.5s81 25 129 25c52 0 97.5 -8.33301 136.5 -25s71.333 -40.5 97 -71.5s45 -68.667 58 -113s19.5 -94.166 19.5 -149.499zM515.999 348.997c0 30 -2.16699 58.668 -6.5 86.001s-12.166 51.333 -23.499 72s-26.666 37.167 -45.999 49.5s-44.333 18.5 -75 18.5
c-25.333 0 -47.5 -5.83301 -66.5 -17.5s-34.833 -27.5 -47.5 -47.5s-22 -43.333 -28 -70s-9 -55 -9 -85c0 -35.333 2.5 -67 7.5 -95s13.333 -52 25 -72s27.167 -35.333 46.5 -46s43.666 -16 72.999 -16c28.667 0 52.667 6.16699 72 18.5s34.666 28.666 45.999 48.999
s19.5 44 24.5 71s7.5 55.167 7.5 84.5z" />
    <glyph glyph-name="P" unicode="P" horiz-adv-x="644" 
d="M227 21c0 -9.33301 -1.49902 -15.168 -4.49902 -17.501s-9.5 -3.5 -19.5 -3.5h-105c-8 0 -13.833 1.5 -17.5 4.5s-5.5 8.5 -5.5 16.5v619c0 18.667 4 33.5 12 44.5s24 16.5 48 16.5h245c36 0 68.5 -5.5 97.5 -16.5s53.667 -26.167 74 -45.5s35.833 -42.333 46.5 -69
s16 -56 16 -88c0 -17.333 -2.66699 -38.833 -8 -64.5s-16.833 -50.667 -34.5 -75s-43.334 -45.166 -77.001 -62.499s-78.5 -26 -134.5 -26h-133v-233zM457.001 471.998c0 9.33301 -1.33203 19.5 -3.99902 30.5s-7.83398 21.333 -15.501 31s-18 17.667 -31 24
s-29.5 9.5 -49.5 9.5h-130v-190h131c34 0 59 9.16699 75 27.5s24 40.833 24 67.5z" />
    <glyph glyph-name="Q" unicode="Q" horiz-adv-x="730" 
d="M675 352c0 -57.333 -6.16797 -108.336 -18.501 -153.003s-31.5 -82.667 -57.5 -114s-58.667 -55.166 -98 -71.499s-86 -24.5 -140 -24.5c-103.333 0 -180.166 31.333 -230.499 94s-75.5 151.334 -75.5 266.001c0 56 7.16699 106.5 21.5 151.5s34.833 83 61.5 114
s59 54.833 97 71.5s81 25 129 25c52 0 97.5 -8.33301 136.5 -25s71.333 -40.5 97 -71.5s45 -68.667 58 -113s19.5 -94.166 19.5 -149.499zM515.999 348.997c0 30 -2.16699 58.668 -6.5 86.001s-12.166 51.333 -23.499 72s-26.666 37.167 -45.999 49.5s-44.333 18.5 -75 18.5
c-25.333 0 -47.5 -5.83301 -66.5 -17.5s-34.833 -27.5 -47.5 -47.5s-22 -43.333 -28 -70s-9 -55 -9 -85c0 -35.333 2.5 -67 7.5 -95s13.333 -52 25 -72s27.167 -35.333 46.5 -46s43.666 -16 72.999 -16c28.667 0 52.667 6.16699 72 18.5s34.666 28.666 45.999 48.999
s19.5 44 24.5 71s7.5 55.167 7.5 84.5zM331.999 -163.002c-7.33301 0 -11.998 1.50098 -13.998 4.50098s-3 7.83301 -3 14.5v77c0 7.33301 1 12.333 3 15s6.66699 4 14 4h113c59.333 0 111.166 -6.33301 155.499 -19s78.166 -27.667 101.499 -45
c5.33301 -4 8.66602 -7.66699 9.99902 -11s0.333008 -8 -3 -14l-37 -68c-3.33301 -6.66699 -7.16602 -10.5 -11.499 -11.5s-10.833 0.833008 -19.5 5.5c-26 13.333 -57.333 24.666 -94 33.999s-80 14 -130 14h-85z" />
    <glyph glyph-name="R" unicode="R" horiz-adv-x="669" 
d="M516 328c22.667 -10 38.667 -24.1699 48 -42.5029s17 -39.166 23 -62.499l51 -200c1.33301 -4 1.16602 -8.83301 -0.500977 -14.5s-6.5 -8.5 -14.5 -8.5h-105c-7.33301 0 -15 0.833008 -23 2.5s-13.667 7.5 -17 17.5l-44 177c-8.66699 32.667 -21.5 55.334 -38.5 68.001
s-40.5 19 -70.5 19h-97v-263c0 -9.33301 -1.33301 -15.166 -4 -17.499s-9 -3.5 -19 -3.5h-107c-8 0 -13.833 1.5 -17.5 4.5s-5.5 8.5 -5.5 16.5v619c0 20 4 35.167 12 45.5s24 15.5 48 15.5h245c72.667 0 128.834 -18.333 168.501 -55s59.5 -86 59.5 -148
c0 -34 -8 -66 -24 -96s-39 -53 -69 -69zM452 487.997c0 8.66699 -1.33398 17.667 -4.00098 27s-7.16699 17.833 -13.5 25.5s-15.166 14 -26.499 19s-25.666 7.5 -42.999 7.5h-136v-160h133c29.333 0 51.666 7.5 66.999 22.5s23 34.5 23 58.5z" />
    <glyph glyph-name="S" unicode="S" horiz-adv-x="600" 
d="M62 509c0 28 4.83105 54.333 14.498 79s24.167 46.167 43.5 64.5s44 32.833 74 43.5s65.333 16 106 16c18.667 0 38.167 -1 58.5 -3s40.333 -5 60 -9s38.5 -8.83301 56.5 -14.5s34.333 -12.167 49 -19.5c8 -4 12.5 -7.83301 13.5 -11.5s-0.166992 -10.5 -3.5 -20.5
l-26 -75c-3.33301 -9.33301 -6.66602 -14.666 -9.99902 -15.999s-9 -1 -17 1c-31.333 9.33301 -62.5 17 -93.5 23s-60.167 9 -87.5 9c-29.333 0 -50 -5.33301 -62 -16s-18 -23.667 -18 -39c0 -8.66699 2 -16.667 6 -24s10.5 -14.5 19.5 -21.5s21 -14.167 36 -21.5
s33.5 -15.333 55.5 -24c34 -13.333 65.333 -26.833 94 -40.5s53.167 -29.167 73.5 -46.5s36.333 -37.666 48 -60.999s17.5 -51.333 17.5 -84c0 -35.333 -6.33301 -66 -19 -92s-30.334 -47.667 -53.001 -65s-50.167 -30.333 -82.5 -39s-67.833 -13 -106.5 -13
c-21.333 0 -43.666 1.16699 -66.999 3.5s-46.5 6 -69.5 11s-45.5 11.5 -67.5 19.5s-42.333 17.667 -61 29c-5.33301 3.33301 -8.5 7 -9.5 11s0.166992 10.333 3.5 19l34 80c3.33301 8 7 12.667 11 14s9.66699 0.333008 17 -3c13.333 -5.33301 28 -10.833 44 -16.5
s32.5 -10.667 49.5 -15s34.333 -8 52 -11s35.167 -4.5 52.5 -4.5c20.667 0 38 2 52 6s25.333 9.16699 34 15.5s14.667 13.666 18 21.999s5 17.166 5 26.499c0 10 -1.83301 19 -5.5 27s-9.66699 15.833 -18 23.5s-19.666 15 -33.999 22s-32.166 14.5 -53.499 22.5
c-35.333 13.333 -67.333 27 -96 41s-53.334 29.5 -74.001 46.5s-36.5 36 -47.5 57s-16.5 45.5 -16.5 73.5z" />
    <glyph glyph-name="T" unicode="T" horiz-adv-x="574" 
d="M563 590c0 -13.333 -6.66699 -19.999 -20 -19.999h-181v-549c0 -8.66699 -1.5 -14.334 -4.5 -17.001s-9.5 -4 -19.5 -4h-107c-8 0 -13.833 1.5 -17.5 4.5s-5.5 8.5 -5.5 16.5v549h-177c-12.667 0 -19 6.66699 -19 20v89c0 8.66699 1.33301 14.334 4 17.001
s7.66699 4 15 4h512c8 0 13.333 -1.33301 16 -4s4 -8.33398 4 -17.001v-89v0z" />
    <glyph glyph-name="U" unicode="U" horiz-adv-x="717" 
d="M642 97c0 -23.333 -5.16699 -43.333 -15.5 -60s-29.5 -28.667 -57.5 -36c-13.333 -3.33301 -28 -5.83301 -44 -7.5s-32 -2.83398 -48 -3.50098s-31 -1.16699 -45 -1.5s-25.333 -0.5 -34 -0.5c-57.333 0 -106.5 4.83301 -147.5 14.5s-74.5 26.167 -100.5 49.5
s-45 54.333 -57 93s-18 87.334 -18 146.001l-1 388c0 8 2 13.5 6 16.5s9.66699 4.5 17 4.5h107c10 0 16.5 -1.33301 19.5 -4s4.5 -8.33398 4.5 -17.001v-397c0 -27.333 2.33301 -51.166 7 -71.499s13 -37.166 25 -50.499s28.167 -23.166 48.5 -29.499s46.5 -9.5 78.5 -9.5
c4.66699 0 11 0.166992 19 0.5s16.833 0.666016 26.5 0.999023s19.667 1 30 2s19.833 2.5 28.5 4.5v550c0 8 1.83301 13.5 5.5 16.5s9.5 4.5 17.5 4.5h106c10 0 16.167 -1.33301 18.5 -4s3.5 -8.33398 3.5 -17.001v-582z" />
    <glyph glyph-name="V" unicode="V" horiz-adv-x="664" 
d="M329 167h7.00098l47 175l107 344c2 6.66699 5.16699 10.834 9.5 12.501s10.166 2.5 17.499 2.5h122c6.66699 0 10.5 -2 11.5 -6s0.833008 -7.66699 -0.5 -11l-215 -631c-4 -12 -8.16699 -21.333 -12.5 -28s-9.33301 -11.834 -15 -15.501s-12.167 -6.16699 -19.5 -7.5
s-15.666 -2 -24.999 -2h-62c-10 0 -18.667 0.666992 -26 2s-13.833 4 -19.5 8s-10.834 9.5 -15.501 16.5s-9 16.167 -13 27.5l-213 630c-1.33301 4.66699 -1.16602 8.66699 0.500977 12s5.5 5 11.5 5h120c9.33301 0 15.666 -1.5 18.999 -4.5s6 -7.5 8 -13.5l105 -339z" />
    <glyph glyph-name="W" unicode="W" horiz-adv-x="904" 
d="M452 503l-42.0059 -183.999l-61 -266c-5.33301 -23.333 -12.833 -38.333 -22.5 -45s-24.5 -10 -44.5 -10h-58c-9.33301 0 -17.666 0.333008 -24.999 1s-13.666 2.66699 -18.999 6s-10 8.33301 -14 15s-7.33301 16.334 -10 29.001l-142 633c-2 9.33301 -1.66699 15 1 17
s7.66699 3 15 3h122c9.33301 0 16.5 -1.16699 21.5 -3.5s8.5 -8.5 10.5 -18.5l50 -290l30 -179h7l38 181l54 252c5.33301 21.333 12.333 36.166 21 44.499s23.667 12.5 45 12.5h58c20 0 33.5 -4.16699 40.5 -12.5s12.833 -21.833 17.5 -40.5l56 -263l36 -170h6l28 170
l51 293c1.33301 10 3.83301 16.333 7.5 19s9.83398 4 18.501 4h129c6 0 10.333 -1.16699 13 -3.5s2.66699 -7.83301 0 -16.5l-142 -630c-3.33301 -12.667 -6.83301 -22.5 -10.5 -29.5s-8.16699 -12.333 -13.5 -16s-11.666 -5.83398 -18.999 -6.50098s-15.666 -1 -24.999 -1
h-55c-10 0 -18.667 0.5 -26 1.5s-13.666 3.5 -18.999 7.5s-10 9.66699 -14 17s-7.66699 17 -11 29l-58 266l-39 184h-6z" />
    <glyph glyph-name="X" unicode="X" horiz-adv-x="618" 
d="M308 240l-121.001 -217c-6 -9.33301 -11.667 -15.5 -17 -18.5s-14.333 -4.5 -27 -4.5h-123c-6 0 -9.83301 2.16699 -11.5 6.5s-1.16699 8.83301 1.5 13.5l213 344l-195 318c-3.33301 4 -4 8.16699 -2 12.5s6.66699 6.5 14 6.5h117c13.333 0 22.5 -1.33301 27.5 -4
s10.167 -8.66699 15.5 -18l110 -195l109 195c5.33301 9.33301 10.5 15.333 15.5 18s14.167 4 27.5 4h115c7.33301 0 11.833 -2.16699 13.5 -6.5s0.833984 -8.83301 -2.49902 -13.5l-193 -316l213 -345c2.66699 -4.66699 3 -9.16699 1 -13.5s-5.66699 -6.5 -11 -6.5h-125
c-12 0 -20.833 1.5 -26.5 4.5s-11.167 9.16699 -16.5 18.5z" />
    <glyph glyph-name="Y" unicode="Y" horiz-adv-x="625" 
d="M316 397l66.001 148l66 137c3.33301 6.66699 6.83301 11.5 10.5 14.5s9.16699 4.5 16.5 4.5h127c9.33301 0 14.166 -2 14.499 -6s-0.5 -8 -2.5 -12l-223 -425v-238c0 -7.33301 -1.33301 -12.5 -4 -15.5s-8.66699 -4.5 -18 -4.5h-109c-14 0 -21 6.66699 -21 20v236
l-229 426c-2 3.33301 -2.16699 7.33301 -0.5 12s6.16699 7 13.5 7h126c9.33301 0 15.833 -1.66699 19.5 -5s7.16699 -9 10.5 -17l67 -139l64 -143h6z" />
    <glyph glyph-name="Z" unicode="Z" horiz-adv-x="629" 
d="M592 611c0 -15.333 -3.66602 -29.499 -10.999 -42.499s-15.333 -24.833 -24 -35.5l-326 -396l2 -7h344c7.33301 0 12.166 -1.33301 14.499 -4s3.5 -8.66699 3.5 -18v-87c0 -8 -1.16699 -13.5 -3.5 -16.5s-7.16602 -4.5 -14.499 -4.5h-489
c-19.333 0 -33.833 4.16699 -43.5 12.5s-14.5 22.166 -14.5 41.499v24c0 16 2.83301 29.833 8.5 41.5s13.5 23.5 23.5 35.5l338 410l-1 6h-304c-12.667 0 -19 7 -19 21v87c0 9.33301 1.16699 15.333 3.5 18s7.5 4 15.5 4h437c21.333 0 36.666 -4 45.999 -12s14 -23 14 -45
v-33z" />
    <glyph glyph-name="bracketleft" unicode="[" horiz-adv-x="365" 
d="M328 -73c0 -6.66699 -0.833984 -11.1709 -2.50098 -13.5039s-5.83398 -3.5 -12.501 -3.5h-218c-7.33301 0 -12.333 1.83301 -15 5.5s-4 8.83398 -4 15.501v768c0 6.66699 1.33301 11.834 4 15.501s7.66699 5.5 15 5.5h218c6.66699 0 10.834 -1.33301 12.501 -4
s2.5 -6.66699 2.5 -12v-76c0 -5.33301 -0.833008 -9.16602 -2.5 -11.499s-6.5 -3.5 -14.5 -3.5h-97v-596h99c6.66699 0 10.834 -1.16699 12.501 -3.5s2.5 -6.16602 2.5 -11.499v-75z" />
    <glyph glyph-name="backslash" unicode="\" horiz-adv-x="461" 
d="M451 -77c4 -12.667 -1.33398 -18.999 -16.001 -18.999h-80c-9.33301 0 -16.333 1.16699 -21 3.5s-8.33398 7.16602 -11.001 14.499l-311 837c-3.33301 6.66699 -3.16602 11.5 0.500977 14.5s8.5 4.5 14.5 4.5h83c9.33301 0 15.833 -1.5 19.5 -4.5
s6.83398 -7.5 9.50098 -13.5l312 -837v0z" />
    <glyph glyph-name="bracketright" unicode="]" horiz-adv-x="371" 
d="M319 -69c0 -6.66699 -1.49902 -11.8281 -4.49902 -15.4951s-8.5 -5.5 -16.5 -5.5h-217c-6.66699 0 -10.834 1.16699 -12.501 3.5s-2.5 7.16602 -2.5 14.499v74c0 5.33301 1 9.16602 3 11.499s6.33301 3.5 13 3.5h98v596h-98c-6.66699 0 -11 1.16699 -13 3.5
s-3 6.16602 -3 11.499v74c0 7.33301 1 12.166 3 14.499s6.33301 3.5 13 3.5h216c8 0 13.5 -1.83301 16.5 -5.5s4.5 -8.83398 4.5 -15.501v-768v0z" />
    <glyph glyph-name="asciicircum" unicode="^" horiz-adv-x="583" 
d="M536 399c4 -6 4.66992 -10.832 2.00293 -14.499s-6.66699 -5.5 -12 -5.5h-94c-6.66699 0 -12.334 1 -17.001 3s-8.66699 6 -12 12l-114 198h-3l-111 -194c-4.66699 -8 -9.16699 -13.333 -13.5 -16s-10.833 -4 -19.5 -4h-92c-6.66699 0 -10.834 1.83301 -12.501 5.5
s-0.833984 8.16699 2.49902 13.5l183 301c4.66699 7.33301 10.5 14.166 17.5 20.499s16.167 9.5 27.5 9.5h38c15.333 0 25.833 -2.5 31.5 -7.5s11.167 -12.167 16.5 -21.5l182 -300v0z" />
    <glyph glyph-name="underscore" unicode="_" horiz-adv-x="500" 
d="M518 -126c0 -7.33301 -1.16699 -12.666 -3.5 -15.999s-7.16602 -5 -14.499 -5h-500c-7.33301 0 -12 1.66699 -14 5s-3 8.66602 -3 15.999v33c0 9.33301 1 15.333 3 18s6.66699 4 14 4h500c7.33301 0 12.166 -1.33301 14.499 -4s3.5 -8.66699 3.5 -18v-33v0z" />
    <glyph glyph-name="grave" unicode="`" horiz-adv-x="547" 
d="M335 611c3.33301 -6.66699 4 -11.168 2 -13.501s-5.66699 -4.16602 -11 -5.49902l-55 -20c-5.33301 -1.33301 -9.5 -1.5 -12.5 -0.5s-6.5 4.16699 -10.5 9.5l-116 172c-2.66699 3.33301 -3.5 6.83301 -2.5 10.5s4.16699 6.16699 9.5 7.5l104 26
c7.33301 1.33301 12.5 1 15.5 -1s5.5 -5.33301 7.5 -10l69 -175v0z" />
    <glyph glyph-name="a" unicode="a" horiz-adv-x="576" 
d="M511 65c0 -8.66699 -1.16699 -15.999 -3.5 -21.999s-8.16602 -11.667 -17.499 -17c-15.333 -7.33301 -31.833 -13.333 -49.5 -18s-35.667 -8.33398 -54 -11.001s-36.833 -4.66699 -55.5 -6s-36.334 -2 -53.001 -2c-45.333 0 -82.833 4.33301 -112.5 13
s-53.5 20.5 -71.5 35.5s-30.667 32.667 -38 53s-11 42.166 -11 65.499c0 26 4.33301 49.833 13 71.5s21.667 40.5 39 56.5s39.166 28.5 65.499 37.5s57.5 13.5 93.5 13.5h110v16c0 9.33301 -1 18.333 -3 27s-6.16699 16.167 -12.5 22.5s-15.166 11.5 -26.499 15.5
s-26.333 6 -45 6c-10 0 -21.333 -0.5 -34 -1.5s-25.334 -2.33301 -38.001 -4s-25 -3.66699 -37 -6s-22.667 -4.83301 -32 -7.5c-8.66699 -2 -14.667 -2 -18 0s-5.66602 6.33301 -6.99902 13l-16 70c-2 7.33301 -2.16699 12.5 -0.5 15.5s5.16699 5.5 10.5 7.5
c30 10.667 61.5 18.334 94.5 23.001s65.833 7 98.5 7c72.667 0 126 -15.5 160 -46.5s51 -76.833 51 -137.5v-290zM365 238.001l-79.002 -0.00195312c-9.33301 0 -19.333 -0.666992 -30 -2s-20.5 -4.5 -29.5 -9.5s-16.5 -12.167 -22.5 -21.5s-9 -22 -9 -38
c0 -23.333 7.83301 -39.666 23.5 -48.999s36.834 -14 63.501 -14c4 0 9.33301 0.166992 16 0.5s13.834 1 21.501 2s15.5 2.33301 23.5 4s15.333 3.83398 22 6.50098v121z" />
    <glyph glyph-name="b" unicode="b" horiz-adv-x="604" 
d="M559 267c0 -38.667 -4.83301 -74.834 -14.5 -108.501s-25 -63 -46 -88s-48.167 -44.833 -81.5 -59.5s-73.333 -22 -120 -22c-36 0 -73 3 -111 9s-72.333 16 -103 30c-8 3.33301 -13 7.33301 -15 12s-3 10.667 -3 18v653c0 8 1.66699 13.333 5 16s9 4 17 4h103
c7.33301 0 12.666 -1.16699 15.999 -3.5s5 -7.83301 5 -16.5v-188c17.333 5.33301 36.333 9.33301 57 12s41 4 61 4c40.667 0 75.5 -7 104.5 -21s52.833 -33.167 71.5 -57.5s32.334 -53.166 41.001 -86.499s13 -69 13 -107zM408 264c0 50.667 -9.66602 88.333 -28.999 113
s-46.333 37 -81 37c-8.66699 0 -21.334 -0.833008 -38.001 -2.5s-33 -5.16699 -49 -10.5v-278c13.333 -4 27.333 -6.66699 42 -8s26.667 -2 36 -2c36.667 0 65.667 11.333 87 34s32 61.667 32 117z" />
    <glyph glyph-name="c" unicode="c" horiz-adv-x="511" 
d="M308 119c21.333 0 42.166 2.50098 62.499 7.50098s37.833 10.167 52.5 15.5c8.66699 3.33301 14.5 4.5 17.5 3.5s5.83301 -5.16699 8.5 -12.5l28 -75c3.33301 -6.66699 4.83301 -12 4.5 -16s-4.16602 -8 -11.499 -12c-29.333 -16 -60.666 -26.833 -93.999 -32.5
s-63.666 -8.5 -90.999 -8.5c-78.667 0 -138.334 22.667 -179.001 68s-61 113.333 -61 204c0 42.667 5.83301 81.167 17.5 115.5s28.167 63.5 49.5 87.5s47.5 42.333 78.5 55s65.5 19 103.5 19c28 0 55.667 -2.83301 83 -8.5s52.333 -14.167 75 -25.5
c8.66699 -4 13.5 -7.66699 14.5 -11s-0.166992 -9 -3.5 -17l-28 -77c-3.33301 -7.33301 -7 -11.333 -11 -12s-10.667 0.333008 -20 3c-17.333 5.33301 -34.333 9.66602 -51 12.999s-32.667 5 -48 5c-20 0 -36.833 -4 -50.5 -12s-24.834 -18.667 -33.501 -32
s-15 -28.833 -19 -46.5s-6 -36.5 -6 -56.5c0 -20.667 1.66699 -39.667 5 -57s9.33301 -32.333 18 -45s20.167 -22.5 34.5 -29.5s32.5 -10.5 54.5 -10.5z" />
    <glyph glyph-name="d" unicode="d" horiz-adv-x="604" 
d="M45 258c0 37.333 4.66699 72.999 14 106.999s23.666 63.833 42.999 89.5s44.333 46 75 61s67 22.5 109 22.5c17.333 0 34.166 -0.666992 50.499 -2s34.833 -4.33301 55.5 -9v183c0 8 1.5 13.333 4.5 16s8.83301 4 17.5 4h102c7.33301 0 12.833 -1.16699 16.5 -3.5
s5.5 -7.83301 5.5 -16.5v-616v-22.5c0 -7.66699 -0.666992 -15.167 -2 -22.5c-0.666992 -7.33301 -5.66699 -14 -15 -20s-21.166 -11.167 -35.499 -15.5s-30.333 -8.16602 -48 -11.499s-35.167 -5.83301 -52.5 -7.5s-33.666 -3 -48.999 -4s-28 -1.5 -38 -1.5
c-48 0 -88.167 6.66699 -120.5 20s-58.333 32 -78 56s-33.667 52.333 -42 85s-12.5 68.667 -12.5 108zM196 255.999c0 -53.333 10.498 -90.667 31.498 -112s50.167 -32 87.5 -32c9.33301 0 21.833 1 37.5 3s28.834 5 39.501 9v279c-17.333 4 -32.666 6.66699 -45.999 8
s-25.333 2 -36 2c-34 0 -61.5 -12.333 -82.5 -37s-31.5 -64.667 -31.5 -120z" />
    <glyph glyph-name="e" unicode="e" horiz-adv-x="568" 
d="M293 538c78 0 136.499 -19.5 175.499 -58.5s58.5 -94.833 58.5 -167.5c0 -34.667 -6.66699 -58.334 -20 -71.001s-31.666 -19 -54.999 -19h-256c0.666992 -21.333 4.16699 -39 10.5 -53s14.833 -25.333 25.5 -34s23.167 -14.667 37.5 -18s29.833 -5 46.5 -5
c19.333 0 39 2.33301 59 7s38.667 10.667 56 18c8 2.66699 13.5 3.5 16.5 2.5s5.83301 -4.16699 8.5 -9.5l32 -72c2.66699 -6 3.16699 -10.667 1.5 -14s-5.16699 -6.66602 -10.5 -9.99902c-24.667 -16 -53.334 -27.5 -86.001 -34.5s-63 -10.5 -91 -10.5
c-87.333 0 -152 21.667 -194 65s-63 112 -63 206c0 44 5.83301 83.167 17.5 117.5s28.334 63.5 50.001 87.5s47.667 42.167 78 54.5s64.5 18.5 102.5 18.5zM295.999 418c-27.333 0 -49.667 -9.66797 -67 -29.001s-27.333 -44 -30 -74h187c0 14.667 -1.5 28.334 -4.5 41.001
s-7.83301 23.5 -14.5 32.5s-15.667 16.167 -27 21.5s-26 8 -44 8z" />
    <glyph glyph-name="f" unicode="f" horiz-adv-x="404" 
d="M386 621c-1.33301 -6 -3.5 -9.66797 -6.5 -11.001s-7.16699 -1.33301 -12.5 0c-11.333 2 -23.5 3.66699 -36.5 5s-23.5 2 -31.5 2c-22.667 0 -37.5 -4.5 -44.5 -13.5s-10.5 -20.167 -10.5 -33.5v-45h120c6 0 10 -1 12 -3s3 -6.33301 3 -13v-77
c0 -5.33301 -0.833008 -9.33301 -2.5 -12s-6.5 -4 -14.5 -4h-118v-398c0 -8 -1.5 -13 -4.5 -15s-8.16699 -3 -15.5 -3h-104c-6.66699 0 -11.834 1 -15.501 3s-5.5 7.33301 -5.5 16v397h-73c-7.33301 0 -11.666 1.5 -12.999 4.5s-2 7.16699 -2 12.5v57
c0 6 1.16699 10.5 3.5 13.5s7.16602 5.5 14.499 7.5l70 16v57c0 46 12.833 83.667 38.5 113s67.167 44 124.5 44c4.66699 0 12 -0.166992 22 -0.5s21 -1 33 -2s24.5 -2.66699 37.5 -5s25.5 -5.16602 37.5 -8.49902c7.33301 -2.66699 11.333 -5.5 12 -8.5
s0.333984 -7.16699 -0.999023 -12.5z" />
    <glyph glyph-name="g" unicode="g" horiz-adv-x="604" 
d="M539 54c0 -47.333 -6.16309 -87.5039 -18.4961 -120.504s-30.333 -60.5 -54 -82.5s-52.834 -39.333 -87.501 -52s-74.334 -22 -119.001 -28c-7.33301 -1.33301 -12.333 -1.16602 -15 0.500977s-4.66699 5.83398 -6 12.501l-13 96
c-1.33301 7.33301 -0.833008 11.833 1.5 13.5s6.16602 3.16699 11.499 4.5c18.667 3.33301 37.167 7.33301 55.5 12s34.666 11.167 48.999 19.5s26 19 35 32s13.5 29.167 13.5 48.5v6c-17.333 -5.33301 -36.166 -9.16602 -56.499 -11.499s-40.5 -3.5 -60.5 -3.5
c-40 0 -74.5 6.33301 -103.5 19s-52.833 30.5 -71.5 53.5s-32.5 50.5 -41.5 82.5s-13.5 67.667 -13.5 107c0 38 5.16699 73.667 15.5 107s26.166 62.333 47.499 87s48.5 44 81.5 58s72.5 21 118.5 21c36 0 72.5 -2.83301 109.5 -8.5s70.833 -15.5 101.5 -29.5
c8.66699 -4.66699 14.167 -9.16699 16.5 -13.5s3.5 -10.166 3.5 -17.499v-413zM196.004 265.996c0 -51.333 9.83008 -87.668 29.4971 -109.001s46.834 -32 81.501 -32c8 0 20.333 0.833008 37 2.5s33 5.16699 49 10.5v264c-13.333 4 -27.166 6.83301 -41.499 8.5
s-26.166 2.5 -35.499 2.5c-18 0 -34.5 -2.66699 -49.5 -8s-27.667 -13.666 -38 -24.999s-18.333 -26.333 -24 -45s-8.5 -41.667 -8.5 -69z" />
    <glyph glyph-name="h" unicode="h" horiz-adv-x="609" 
d="M545 18c0 -8 -1.33203 -12.9961 -3.99902 -14.9961s-8.66699 -3 -18 -3h-104c-7.33301 0 -12.666 1.16699 -15.999 3.5s-5 7.16602 -5 14.499v280c0 17.333 -1.5 33.166 -4.5 47.499s-8.33301 26.5 -16 36.5s-17.834 17.833 -30.501 23.5s-28.667 8.5 -48 8.5
c-13.333 0 -28.333 -1 -45 -3s-31.334 -5.33301 -44.001 -10v-383c0 -8 -1.16699 -13 -3.5 -15s-8.16602 -3 -17.499 -3h-103c-7.33301 0 -12.666 1.16699 -15.999 3.5s-5 7.16602 -5 14.499v694c0 12.667 6.66699 19 20 19h104c9.33301 0 15.166 -1.33301 17.499 -4
s3.5 -7.66699 3.5 -15v-189c17.333 5.33301 37.166 9.33301 59.499 12s41.5 4 57.5 4c72.667 0 127.167 -19.333 163.5 -58s54.5 -93.334 54.5 -164.001v-299v0z" />
    <glyph glyph-name="i" unicode="i" horiz-adv-x="312" 
d="M242 662c0 -23.333 -8.16699 -42.833 -24.5 -58.5s-36.166 -23.5 -59.499 -23.5c-22.667 0 -42.167 7.83301 -58.5 23.5s-24.5 35.167 -24.5 58.5c0 12 2.16699 23 6.5 33s10.333 18.667 18 26s16.5 13.166 26.5 17.499s20.667 6.5 32 6.5s22.166 -2.16699 32.499 -6.5
s19.333 -10.166 27 -17.499s13.667 -16 18 -26s6.5 -21 6.5 -33zM229 18c0 -7.33301 -1.33301 -12.166 -4 -14.499s-8.66699 -3.5 -18 -3.5h-102c-7.33301 0 -12.666 1.16699 -15.999 3.5s-5 7.16602 -5 14.499v489c0 7.33301 1.66699 12.166 5 14.499
s8.66602 3.5 15.999 3.5h102c9.33301 0 15.333 -1.16699 18 -3.5s4 -7.16602 4 -14.499v-489z" />
    <glyph glyph-name="j" unicode="j" horiz-adv-x="319" 
d="M234 76c0 -48 -5.00195 -88.667 -15.002 -122s-23.833 -61.5 -41.5 -84.5s-38.167 -41.5 -61.5 -55.5s-48 -25.333 -74 -34c-10 -3.33301 -17 -4.5 -21 -3.5s-7.33301 4.83301 -10 11.5l-33 86c-3.33301 8.66699 -4 14.5 -2 17.5s6.66699 6.5 14 10.5
c20 10 36.333 20.667 49 32s22.834 24 30.501 38s12.834 29.333 15.501 46s4 35.667 4 57v432c0 7.33301 1.5 12.166 4.5 14.499s8.16699 3.5 15.5 3.5h105c9.33301 0 15 -1.16699 17 -3.5s3 -7.16602 3 -14.499v-431zM246.998 662c0 -23.333 -8 -42.832 -24 -58.499
s-35.667 -23.5 -59 -23.5s-43.166 7.83301 -59.499 23.5s-24.5 35.167 -24.5 58.5c0 12 2.16699 23 6.5 33s10.333 18.667 18 26s16.667 13.166 27 17.499s21.166 6.5 32.499 6.5c23.333 0 43 -8 59 -24s24 -35.667 24 -59z" />
    <glyph glyph-name="k" unicode="k" horiz-adv-x="552" 
d="M387 348l154.999 -328c5.33301 -13.333 0.333008 -20 -15 -20h-116c-8 0 -14.167 1.16699 -18.5 3.5s-8.16602 7.5 -11.499 15.5l-95 214l-76 -86v-25.5v-35c0 -12.333 -0.166992 -24.5 -0.5 -36.5s-0.5 -22.333 -0.5 -31c0 -7.33301 -1.16699 -12.333 -3.5 -15
s-8.16602 -4 -17.499 -4h-103c-14 -0 -21 6.33301 -21 19v694c0 7.33301 1.66699 12.166 5 14.499s8.66602 3.5 15.999 3.5h104c9.33301 0 15 -1 17 -3s3 -7 3 -15v-370l4 -2l143 170c5.33301 5.33301 9.83301 9 13.5 11s10.167 3 19.5 3h122
c9.33301 0 14.5 -2.16699 15.5 -6.5s-0.833008 -9.16602 -5.5 -14.499z" />
    <glyph glyph-name="l" unicode="l" horiz-adv-x="330" 
d="M318 27c1.33301 -7.33301 1.00195 -12.1699 -0.998047 -14.5029s-6.66699 -5.16602 -14 -8.49902c-14 -5.33301 -31.167 -9.16602 -51.5 -11.499s-38.166 -3.5 -53.499 -3.5c-20 0 -37.833 2.16699 -53.5 6.5s-28.834 11.666 -39.501 21.999s-18.834 24.5 -24.501 42.5
s-8.5 40.667 -8.5 68v584c0 9.33301 1.83301 14.833 5.5 16.5s9.16699 2.5 16.5 2.5h102c7.33301 0 12.833 -1.16699 16.5 -3.5s5.5 -7.16602 5.5 -14.499v-555c0 -16.667 2.33301 -28.5 7 -35.5s14.667 -10.5 30 -10.5c5.33301 0 11.666 0.333008 18.999 1
s13.333 1.33398 18 2.00098c6 0.666992 10.167 0.166992 12.5 -1.5s3.83301 -5.16699 4.5 -10.5z" />
    <glyph glyph-name="m" unicode="m" horiz-adv-x="932" 
d="M210 18c0 -7.33301 -1.16992 -12.168 -3.50293 -14.501s-8.16602 -3.5 -17.499 -3.5h-103c-7.33301 0 -12.666 1.16699 -15.999 3.5s-5 7.16602 -5 14.499v427c0 22.667 3.66699 40.667 11 54s24.333 23 51 29c6 1.33301 14.5 2.5 25.5 3.5s23 2 36 3
s26.167 1.83301 39.5 2.5s24.666 1 33.999 1c41.333 0 77.166 -3.66699 107.499 -11s56.833 -19.333 79.5 -36c22 14.667 48.833 26.334 80.5 35.001s63.5 13 95.5 13c43.333 0 80.333 -6 111 -18s55.667 -29 75 -51s33.5 -48.167 42.5 -78.5s13.5 -63.5 13.5 -99.5v-274
c0 -7.33301 -1.33301 -12.166 -4 -14.499s-8.66699 -3.5 -18 -3.5h-102c-7.33301 0 -12.666 1.16699 -15.999 3.5s-5 7.16602 -5 14.499v257c0 45.333 -8 80 -24 104s-45.667 36 -89 36c-12.667 0 -28.167 -1.66699 -46.5 -5s-32.833 -7.66602 -43.5 -12.999
c6 -16.667 10.167 -34.5 12.5 -53.5s3.5 -39.5 3.5 -61.5v-264c0 -7.33301 -1.33301 -12.166 -4 -14.499s-8.66699 -3.5 -18 -3.5h-103c-7.33301 0 -12.666 1.16699 -15.999 3.5s-5 7.16602 -5 14.499v270c0 20.667 -1.66699 39 -5 55s-9.16602 29.5 -17.499 40.5
s-20 19.5 -35 25.5s-34.167 9 -57.5 9c-7.33301 0 -17.5 -0.333008 -30.5 -1s-24.167 -2 -33.5 -4v-395v0z" />
    <glyph glyph-name="n" unicode="n" horiz-adv-x="609" 
d="M278 418c-6.66699 0 -16.1709 -0.167969 -28.5039 -0.500977s-25.5 -1.83301 -39.5 -4.5v-395c0 -7.33301 -1.16699 -12.166 -3.5 -14.499s-8.16602 -3.5 -17.499 -3.5h-103c-7.33301 0 -12.666 1.16699 -15.999 3.5s-5 7.16602 -5 14.499v429c0 22.667 4 40.5 12 53.5
s24.667 22.167 50 27.5c6.66699 1.33301 16.167 2.5 28.5 3.5s25.5 2 39.5 3s27.833 1.83301 41.5 2.5s25.5 1 35.5 1c46.667 0 87 -4.66699 121 -14s62.167 -24.166 84.5 -44.499s39 -47 50 -80s16.5 -73.167 16.5 -120.5v-261c0 -7.33301 -1.16699 -12.166 -3.5 -14.499
s-8.16602 -3.5 -17.499 -3.5h-104c-7.33301 0 -12.666 1.16699 -15.999 3.5s-5 7.16602 -5 14.499v270c0 22 -1.83301 41 -5.5 57s-10 29.5 -19 40.5s-21.333 19.167 -37 24.5s-35.167 8 -58.5 8z" />
    <glyph glyph-name="o" unicode="o" horiz-adv-x="595" 
d="M550 265c0 -88 -21.001 -156 -63.001 -204s-106 -72 -192 -72c-86.667 0 -150 24 -190 72s-60 115.333 -60 202c0 42.667 5.83301 81.167 17.5 115.5s28.334 63.166 50.001 86.499s48 41.333 79 54s66.167 19 105.5 19c84 0 147.167 -24.167 189.5 -72.5
s63.5 -115.166 63.5 -200.499zM398.999 262c0 22.667 -1.66602 43.332 -4.99902 61.999s-9 34.667 -17 48s-18.333 23.833 -31 31.5s-28.334 11.5 -47.001 11.5c-35.333 0 -61.5 -13.5 -78.5 -40.5s-25.5 -63.5 -25.5 -109.5c0 -50 7.83301 -88 23.5 -114s41.5 -39 77.5 -39
c18.667 0 34.5 3.83301 47.5 11.5s23.667 18.334 32 32.001s14.333 29.5 18 47.5s5.5 37.667 5.5 59z" />
    <glyph glyph-name="p" unicode="p" horiz-adv-x="604" 
d="M211 -187c0 -7.33301 -1.16992 -12.002 -3.50293 -14.002s-8.16602 -3 -17.499 -3h-104c-7.33301 0 -12.666 1 -15.999 3s-5 6.66699 -5 14v652c0 7.33301 1.16699 13.166 3.5 17.499s7.83301 8.83301 16.5 13.5c32 14.667 67.833 25 107.5 31s77.5 9 113.5 9
c47.333 0 87.166 -7.16699 119.499 -21.5s58.333 -33.666 78 -57.999s33.834 -53.166 42.501 -86.499s13 -69 13 -107c0 -37.333 -4.66699 -72.5 -14 -105.5s-23.666 -61.833 -42.999 -86.5s-43.833 -44.167 -73.5 -58.5s-64.5 -21.5 -104.5 -21.5
c-20 0 -38.5 0.833008 -55.5 2.5s-36.167 4.83398 -57.5 9.50098v-190zM406.997 265.998c0 27.333 -2.66895 50.332 -8.00195 68.999s-13.166 33.667 -23.499 45s-23 19.333 -38 24s-31.833 7 -50.5 7c-9.33301 0 -21.5 -1 -36.5 -3s-28.167 -4.66699 -39.5 -8v-273
c17.333 -4.66699 32.833 -7.66699 46.5 -9s25.834 -2 36.501 -2c33.333 0 60.5 11.333 81.5 34s31.5 61.334 31.5 116.001z" />
    <glyph glyph-name="q" unicode="q" horiz-adv-x="604" 
d="M539 -187c0 -7.33301 -1.16699 -12.3311 -3.5 -14.998s-8.16602 -4 -17.499 -4h-104c-14 0 -21 6.33301 -21 19v194c-17.333 -5.33301 -36.333 -9.33301 -57 -12s-41 -4 -61 -4c-40.667 0 -75.5 6.5 -104.5 19.5s-52.833 31.333 -71.5 55s-32.334 51.667 -41.001 84
s-13 67.5 -13 105.5c0 40 5 77 15 111s25.5 63.667 46.5 89s48.167 45.166 81.5 59.499s73.333 21.5 120 21.5c36 0 72.5 -3 109.5 -9s70.833 -16 101.5 -30c8.66699 -4 14.167 -8.33301 16.5 -13s3.5 -10.334 3.5 -17.001v-654zM196 263.002
c0 -51.333 9.83105 -88.667 29.498 -112s46.834 -35 81.501 -35c8 0 20.333 0.833008 37 2.5s33 5.16699 49 10.5v272c-13.333 4 -27.166 6.83301 -41.499 8.5s-26.166 2.5 -35.499 2.5c-36.667 -0.666992 -65.834 -12 -87.501 -34s-32.5 -60.333 -32.5 -115z" />
    <glyph glyph-name="r" unicode="r" horiz-adv-x="467" 
d="M217 18c0 -8 -1.33496 -13.001 -4.00195 -15.001s-8.66699 -3 -18 -3h-102c-7.33301 0 -12.666 1.16699 -15.999 3.5s-5 7.16602 -5 14.499v426c0 26 4.5 45.833 13.5 59.5s28.167 22.834 57.5 27.501c12 1.33301 24.333 2.5 37 3.5s25.667 1.5 39 1.5
c44 0 87.5 -5.66699 130.5 -17s81.167 -29.333 114.5 -54c5.33301 -4 7.83301 -7.83301 7.5 -11.5s-1.5 -7.5 -3.5 -11.5l-52 -83c-4 -6.66699 -7.66699 -9.66699 -11 -9s-8.66602 3.33398 -15.999 8.00098c-18.667 14 -38.667 25.5 -60 34.5s-45.333 13.833 -72 14.5
c-14 0 -27.333 -1 -40 -3v-386v0z" />
    <glyph glyph-name="s" unicode="s" horiz-adv-x="497" 
d="M461 150c0 -54 -19.165 -94.3359 -57.498 -121.003s-88.5 -40 -150.5 -40c-34.667 0 -71.167 3.83301 -109.5 11.5s-72.166 20.167 -101.499 37.5c-5.33301 3.33301 -8.5 6.83301 -9.5 10.5s0.166992 8.83398 3.5 15.501l29 69c3.33301 7.33301 6.83301 11.833 10.5 13.5
s9.16699 0.833984 16.5 -2.49902c10.667 -4.66699 22.667 -9.16699 36 -13.5s27.166 -8.16602 41.499 -11.499s28.166 -6 41.499 -8s25.333 -3 36 -3c24 0 40.833 4.16699 50.5 12.5s14.5 18.833 14.5 31.5c0 13.333 -6.83301 24.666 -20.5 33.999s-37.167 20.333 -70.5 33
c-26.667 10 -50.167 20.333 -70.5 31s-37.5 22.167 -51.5 34.5s-24.667 26.333 -32 42s-11 33.834 -11 54.501c0 22 4 42.5 12 61.5s20 35.5 36 49.5s36.167 25.167 60.5 33.5s53.166 12.5 86.499 12.5c30 0 60.5 -2.83301 91.5 -8.5s59.167 -14.167 84.5 -25.5
c7.33301 -3.33301 11.333 -6.83301 12 -10.5s-0.333008 -9.5 -3 -17.5l-25 -64c-2.66699 -7.33301 -5.66699 -11.5 -9 -12.5s-8.66602 -0.166992 -15.999 2.5c-24.667 7.33301 -47.334 13 -68.001 17s-42 6 -64 6c-18 0 -31 -4.16699 -39 -12.5s-12 -16.833 -12 -25.5
c0 -13.333 6.16699 -24.333 18.5 -33s33.833 -18.667 64.5 -30c24 -9.33301 46.667 -18.833 68 -28.5s39.833 -21 55.5 -34s28.167 -28.5 37.5 -46.5s14 -39.667 14 -65z" />
    <glyph glyph-name="t" unicode="t" horiz-adv-x="421" 
d="M409 26c0.666992 -4.66699 0.99707 -8.5 0.99707 -11.5s-3.66699 -5.83301 -11 -8.5c-24.667 -7.33301 -49.334 -12 -74.001 -14s-45.667 -3 -63 -3c-57.333 0 -98.333 12.167 -123 36.5s-37 60.166 -37 107.499v285h-70c-7.33301 0 -12 1.83301 -14 5.5
s-3 8.16699 -3 13.5v54c0 6.66699 0.833008 11.167 2.5 13.5s6.16699 4.5 13.5 6.5l74 17l7 94c0.666992 8 2.83398 13.667 6.50098 17s9.16699 6 16.5 8l92 30c6 1.33301 10.833 0.666016 14.5 -2.00098s5.5 -8 5.5 -16v-134h110c7.33301 0 11.833 -1.5 13.5 -4.5
s2.5 -7.16699 2.5 -12.5v-71c0 -6.66699 -0.666992 -11.5 -2 -14.5s-6 -4.5 -14 -4.5h-110v-254c0 -19.333 4.83301 -32.666 14.5 -39.999s24.167 -11 43.5 -11c4.66699 0 10.334 0.333008 17.001 1l20.5 2l20.5 2c6.66699 0.666992 12.334 1.33398 17.001 2.00098
c10.667 2 16.334 -1.33301 17.001 -10l12 -84v0z" />
    <glyph glyph-name="u" unicode="u" horiz-adv-x="600" 
d="M322 108c6.66699 0 16.1689 0.331055 28.502 0.998047s25.5 2 39.5 4v394c0 7.33301 1.16699 12.333 3.5 15s8.16602 4 17.499 4h103c14 0 21 -6.33301 21 -19v-427c0 -22.667 -4.5 -40.667 -13.5 -54s-25.167 -22.666 -48.5 -27.999
c-8 -1.33301 -18 -2.66602 -30 -3.99902s-24.833 -2.5 -38.5 -3.5s-27.167 -1.66699 -40.5 -2s-25 -0.5 -35 -0.5c-48 0 -88.833 4.66699 -122.5 14s-61 24.333 -82 45s-36.167 47.5 -45.5 80.5s-14 73.167 -14 120.5v259c0 7.33301 1.16699 12.333 3.5 15
s8.16602 4 17.499 4h104c14 0 21 -6.33301 21 -19v-268c0 -22 1.33301 -41.167 4 -57.5s8 -30 16 -41s19.333 -19.167 34 -24.5s33.667 -8 57 -8z" />
    <glyph glyph-name="v" unicode="v" horiz-adv-x="557" 
d="M387 48c-7.33301 -22.667 -15.999 -37.167 -25.999 -43.5s-24.333 -9.5 -43 -9.5h-75c-16 0 -28.833 3.33301 -38.5 10s-18.5 21 -26.5 43l-164 459c-2.66699 7.33301 -2.83398 12.166 -0.500977 14.499s6.83301 3.5 13.5 3.5h113c10.667 0 17.667 -1.16699 21 -3.5
s6.33301 -7.16602 9 -14.499l64 -205l46 -169h6l46 170l61 203c2 7.33301 4.5 12.333 7.5 15s9.83301 4 20.5 4h111c11.333 0 15 -5.33301 11 -16z" />
    <glyph glyph-name="w" unicode="w" horiz-adv-x="794" 
d="M396 327l-41.002 -138l-45 -142c-8 -21.333 -16.167 -35.333 -24.5 -42s-21.5 -10 -39.5 -10h-55c-16 0 -28.833 3.33301 -38.5 10s-17.5 21.334 -23.5 44.001l-114 459c-2 7.33301 -1.66699 12.166 1 14.499s7.33398 3.5 14.001 3.5h113c8 0 13.833 -0.666992 17.5 -2
s6.5 -6 8.5 -14l34 -178l27 -162h6l35 126l45 156c5.33301 16.667 12 28.834 20 36.501s21.333 11.5 40 11.5h52c17.333 0 29 -4.33301 35 -13s11.667 -20.334 17 -35.001l46 -154l36 -129h6l24 159l33 181c1.33301 7.33301 3.33301 11.833 6 13.5s8 2.5 16 2.5l117 1
c6.66699 0 11.167 -1.16699 13.5 -3.5s2.83301 -7.16602 1.5 -14.499l-115 -459c-6 -22.667 -14 -37.334 -24 -44.001s-23 -10 -39 -10h-52c-9.33301 0 -17.166 0.5 -23.499 1.5s-12 3.33301 -17 7s-9.33301 9 -13 16s-7.5 16.167 -11.5 27.5l-44 144l-39 136h-5z" />
    <glyph glyph-name="x" unicode="x" horiz-adv-x="523" 
d="M261 176l-89.002 -154c-4 -7.33301 -8.5 -12.833 -13.5 -16.5s-12.5 -5.5 -22.5 -5.5h-114c-7.33301 0 -12 2 -14 6s-1 9.33301 3 16l169 255l-151 230c-2.66699 3.33301 -3.5 7.16602 -2.5 11.499s4.83301 6.5 11.5 6.5h120c9.33301 0 16.5 -1.33301 21.5 -4
s9.16699 -7.66699 12.5 -15l70 -129l71 129c4 7.33301 8.33301 12.333 13 15s11.667 4 21 4h118c7.33301 0 11.333 -2 12 -6s0.333984 -7.66699 -0.999023 -11l-154 -229l170 -258c3.33301 -5.33301 4.33301 -10.166 3 -14.499s-6 -6.5 -14 -6.5h-117
c-11.333 -0 -19.166 1.83301 -23.499 5.5s-8.5 9.16699 -12.5 16.5z" />
    <glyph glyph-name="y" unicode="y" horiz-adv-x="559" 
d="M348 -87c-15.333 -46 -37.3301 -78.835 -65.9971 -98.502s-66.667 -29.5 -114 -29.5c-13.333 0 -28.833 1 -46.5 3s-35.167 5.66699 -52.5 11c-8 2 -13.167 4.33301 -15.5 7s-2.5 7.66699 -0.5 15l17 79c2 8 4.33301 12.333 7 13s7.66699 0.333984 15 -0.999023
c10.667 -2 19.667 -3.33301 27 -4s14.666 -1 21.999 -1c23.333 0 41.666 3.83301 54.999 11.5s23.666 23.167 30.999 46.5l18 54h-29c-15.333 0 -26.333 2.66699 -33 8s-13 17 -19 35l-152 444c-2.66699 7.33301 -2.5 12.333 0.5 15s7.16699 4 12.5 4h117
c10 0 16.833 -1.16699 20.5 -3.5s6.5 -7.16602 8.5 -14.499l57 -202l47 -174h6l51 177l60 197c2 7.33301 4.66699 12.5 8 15.5s10 4.5 20 4.5h119c11.333 0 15 -5.33301 11 -16l-202 -597v1z" />
    <glyph glyph-name="z" unicode="z" horiz-adv-x="504" 
d="M473 450c0 -10 -1.5 -19.833 -4.5 -29.5s-8.16699 -18.834 -15.5 -27.501l-240 -270l2 -5h244c7.33301 0 12.333 -1.16699 15 -3.5s4 -7.16602 4 -14.499v-81c0 -7.33301 -1.16699 -12.333 -3.5 -15s-7.16602 -4 -14.499 -4h-389
c-16.667 -0 -28.834 3.83301 -36.501 11.5s-11.5 18.167 -11.5 31.5v30c0 10 1.5 20 4.5 30s9.5 20.667 19.5 32l239 270l-2 4h-218c-8 0 -13 1.33301 -15 4s-3 7.66699 -3 15v78c0 12.667 6.33301 19 19 19h356c16.667 0 29.167 -2.5 37.5 -7.5s12.5 -15.833 12.5 -32.5
v-35z" />
    <glyph glyph-name="braceleft" unicode="{" horiz-adv-x="420" 
d="M366 -82c0 -9.33301 -4.33203 -14.002 -12.999 -14.002c-73.333 1.33301 -127.833 17.666 -163.5 48.999s-53.5 80.333 -53.5 147v102c0 24 -5.16699 41.833 -15.5 53.5s-23.5 18.167 -39.5 19.5c-5.33301 1.33301 -9.16602 2.83301 -11.499 4.5s-3.5 5.16699 -3.5 10.5
v68c0 4.66699 1 7.83398 3 9.50098s6 3.16699 12 4.5c16 1.33301 29.167 7.66602 39.5 18.999s15.5 29.333 15.5 54v80c0 66.667 17.167 115.334 51.5 146.001s89.166 46.667 164.499 48c9.33301 0.666992 14 -3.66602 14 -12.999v-77c0 -8.66699 -4.33301 -13.667 -13 -15
c-18 -0.666992 -32.333 -3.16699 -43 -7.5s-18.834 -10.333 -24.501 -18s-9.16699 -16.667 -10.5 -27s-2 -22.166 -2 -35.499v-68c0 -73.333 -24.333 -119 -73 -137v-3c24.667 -9.33301 43 -24.666 55 -45.999s18 -51 18 -89v-84c0 -13.333 0.833008 -25.166 2.5 -35.499
s5.33398 -19.333 11.001 -27s13.667 -13.834 24 -18.501s24.166 -7.33398 41.499 -8.00098c9.33301 -0.666992 14 -4.66699 14 -12v-80v0z" />
    <glyph glyph-name="bar" unicode="|" horiz-adv-x="268" 
d="M196 -144c0 -8 -1.16699 -13.5 -3.5 -16.5s-8.16602 -4.5 -17.499 -4.5h-77c-13.333 0 -20 7 -20 21v914c0 14 6.66699 21 20 21h77c9.33301 0 15.166 -1.5 17.499 -4.5s3.5 -8.5 3.5 -16.5v-914v0z" />
    <glyph glyph-name="braceright" unicode="}" horiz-adv-x="420" 
d="M368 291c0 -9.33301 -5.00098 -14.3281 -15.001 -14.9951c-15.333 -1.33301 -28.333 -8 -39 -20s-16 -30 -16 -54v-102c0 -66.667 -17.833 -115.334 -53.5 -146.001s-90.5 -47 -164.5 -49c-5.33301 0 -8.66602 1 -9.99902 3s-2 5.66699 -2 11v80
c0 7.33301 4.33301 11.333 13 12c17.333 0.666992 31.166 3.33398 41.499 8.00098s18.333 10.834 24 18.501s9.33398 16.667 11.001 27s2.5 22.166 2.5 35.499v84c0 38 6.16699 67.667 18.5 89s30.833 36.666 55.5 45.999v3c-49.333 17.333 -74 63 -74 137v68
c0 13.333 -0.666992 25.333 -2 36s-4.66602 19.667 -9.99902 27s-13.333 13.166 -24 17.499s-25 7.16602 -43 8.49902c-8.66699 0 -13 4.66699 -13 14v77c0 8.66699 4.33301 13 13 13c76 -1.33301 131.167 -17.333 165.5 -48s51.5 -79.334 51.5 -146.001v-80
c0 -24.667 5.16699 -42.834 15.5 -54.501s23.166 -18.167 38.499 -19.5c6.66699 -0.666992 11 -2 13 -4s3 -5.33301 3 -10v-67v0z" />
    <glyph glyph-name="asciitilde" unicode="~" horiz-adv-x="653" 
d="M580 305c-17.333 -28 -39.501 -50.668 -66.501 -68.001s-55.833 -26 -86.5 -26c-18 0 -35.667 3 -53 9s-34.333 12.667 -51 20s-33 14 -49 20s-31 9 -45 9c-15.333 0 -28.833 -2.83301 -40.5 -8.5s-23.5 -15.167 -35.5 -28.5c-3.33301 -4 -6.5 -6.66699 -9.5 -8
s-6.83301 -0.333008 -11.5 3l-56 42c-4 3.33301 -6 6.5 -6 9.5s1.33301 6.5 4 10.5c21.333 31.333 44.166 54.166 68.499 68.499s51.5 21.5 81.5 21.5c18.667 0 36.834 -3 54.501 -9s34.834 -12.667 51.501 -20s32.667 -14 48 -20s30 -9 44 -9c15.333 0 28.5 4 39.5 12
s22.5 19 34.5 33c6 8.66699 13 10.334 21 5.00098l60 -44c4.66699 -3.33301 7 -6.66602 7 -9.99902s-1.33301 -7.33301 -4 -12z" />
    <glyph glyph-name="exclamdown" unicode="&#xa1;" horiz-adv-x="301" 
d="M227 -160c0.666992 -6 -0.168945 -11.333 -2.50195 -16s-8.83301 -7 -19.5 -7h-105c-10 0 -16.667 2.16699 -20 6.5s-4.66602 9.83301 -3.99902 16.5l22 429c0.666992 8 2.83398 13.5 6.50098 16.5s10.167 4.5 19.5 4.5h60c13.333 0 20.333 -6.33301 21 -19zM242.997 440
c0 -24.667 -8.66699 -45.334 -26 -62.001s-38.666 -25 -63.999 -25s-46.666 8.33301 -63.999 25s-26 37.334 -26 62.001s8.66699 45.334 26 62.001s38.666 25 63.999 25s46.666 -8.33301 63.999 -25s26 -37.334 26 -62.001z" />
    <glyph glyph-name="cent" unicode="&#xa2;" horiz-adv-x="653" 
d="M325 -11c-74.667 2.66699 -131.337 26.502 -170.004 71.502s-58 111.833 -58 200.5c0 82 20.333 147.167 61 195.5s96.334 75.166 167.001 80.499v82c0 6 1.16699 9.83301 3.5 11.5s5.83301 2.5 10.5 2.5h31c5.33301 0 8.83301 -0.833008 10.5 -2.5s2.5 -5.5 2.5 -11.5
v-83c21.333 -2 42.5 -5.66699 63.5 -11s40.167 -12.333 57.5 -21c8.66699 -4 13.5 -7.66699 14.5 -11s-0.166992 -9 -3.5 -17l-28 -77c-3.33301 -7.33301 -7 -11.333 -11 -12s-10.667 0.333008 -20 3c-12.667 4 -25.167 7.33301 -37.5 10s-24.166 4.66699 -35.499 6v-286
c17.333 1.33301 34 4.16602 50 8.49902s30 8.83301 42 13.5c8.66699 3.33301 14.5 4.5 17.5 3.5s5.83301 -5.16699 8.5 -12.5l28 -75c3.33301 -6.66699 4.83301 -12 4.5 -16s-4.16602 -8 -11.499 -12c-21.333 -12 -44.166 -21 -68.499 -27s-47.833 -10 -70.5 -12v-86
c0 -6 -0.833008 -9.83301 -2.5 -11.5s-5.16699 -2.5 -10.5 -2.5h-31c-4.66699 0 -8.16699 0.833008 -10.5 2.5s-3.5 5.5 -3.5 11.5v84zM247.997 261.002c0 -35.333 5.33301 -65.333 16 -90s31 -40.667 61 -48v280c-28 -8 -47.833 -25.167 -59.5 -51.5
s-17.5 -56.5 -17.5 -90.5z" />
    <glyph glyph-name="sterling" unicode="&#xa3;" horiz-adv-x="653" 
d="M388 553c-26.667 0 -49.6689 -5.99707 -69.002 -17.9971s-29 -30.667 -29 -56c0 -11.333 1.33301 -25.833 4 -43.5s6.66699 -35.5 12 -53.5h157c7.33301 0 12 -1 14 -3s3 -7.66699 3 -17v-55c0 -7.33301 -1 -12.166 -3 -14.499s-6.66699 -3.5 -14 -3.5h-150
c1.33301 -16.667 1.33301 -32.667 0 -48c-1.33301 -19.333 -4.16602 -39.5 -8.49902 -60.5s-13.5 -40.167 -27.5 -57.5h283c7.33301 0 12.166 -1 14.499 -3s3.5 -7.66699 3.5 -17v-85c0 -7.33301 -1.16699 -12.166 -3.5 -14.499s-7.16602 -3.5 -14.499 -3.5h-429
c-14 0 -25.667 3.16699 -35 9.5s-14 16.166 -14 29.499v29c0 13.333 2 24.166 6 32.499s11.333 18.166 22 29.499c18.667 17.333 31.334 35 38.001 53s11.334 36.667 14.001 56c2 12.667 2.66699 29.334 2 50.001h-67c-7.33301 0 -12.166 1.16699 -14.499 3.5
s-3.5 7.16602 -3.5 14.499v55c0 7.33301 1.16699 12.5 3.5 15.5s7.16602 4.5 14.499 4.5h54l-11.5 51.5c-4.33301 19 -6.5 38.167 -6.5 57.5c0 32.667 6.33301 61 19 85s30 43.667 52 59s48.167 26.833 78.5 34.5s63.166 11.5 98.499 11.5c34 0 66 -3.33301 96 -10
s57.667 -17 83 -31c8.66699 -5.33301 13 -9.83301 13 -13.5s-2.33301 -10.5 -7 -20.5l-27 -62c-3.33301 -8.66699 -6.83301 -13.834 -10.5 -15.501s-10.5 -0.833984 -20.5 2.49902c-21.333 7.33301 -41.5 12.833 -60.5 16.5s-38.833 5.5 -59.5 5.5z" />
    <glyph glyph-name="currency" unicode="&#xa4;" horiz-adv-x="526" 
d="M257 498c40.667 0 77.3311 -9.66602 109.998 -28.999c2.66699 3.33301 6.66699 7.5 12 12.5s10.5 10.167 15.5 15.5s9.66699 10 14 14s7.16602 6.66699 8.49902 8c11.333 12 23.333 11.667 36 -1l44 -41c12.667 -13.333 13.667 -25.666 3 -36.999l-54 -53
c19.333 -32.667 29 -68.667 29 -108c0 -40.667 -9.66699 -77.334 -29 -110.001c2 -2.66699 5.5 -6.33398 10.5 -11.001l15.5 -14.5c5.33301 -5 10.333 -10 15 -15l11 -11.5c12 -10 11.333 -22.333 -2 -37l-43 -44c-12 -10.667 -24 -10 -36 2l-51 51
c-16 -9.33301 -33.333 -16.666 -52 -21.999s-37.667 -8 -57 -8s-37.666 2.5 -54.999 7.5s-33.666 11.833 -48.999 20.5l-11.5 -11.5l-15.5 -16l-15.5 -16.5c-5 -5.33301 -8.83301 -9 -11.5 -11c-12 -10.667 -23.667 -10 -35 2l-8.5 8.5l-14 13.5l-14 13.5
c-4.33301 4.33301 -6.83301 7.16602 -7.5 8.49902c-7.33301 6.66699 -10.666 12.834 -9.99902 18.501s4 11.5 10 17.5l51 50c-11.333 16.667 -19.666 34.667 -24.999 54s-8 39.666 -8 60.999s2.33301 41.333 7 60s12.334 35.667 23.001 51l-46 47
c-6 6 -9.5 11.833 -10.5 17.5s2.16699 12.167 9.5 19.5c2.66699 2 8.16699 7.16699 16.5 15.5l28.5 28.5c6.66699 6.66699 12.667 10 18 10s10.666 -2.66699 15.999 -8l48 -50c33.333 18.667 69.666 28 108.999 28zM255.997 383.001c-14.667 0 -28.5 -2.83301 -41.5 -8.5
s-24.333 -13.334 -34 -23.001s-17.167 -21 -22.5 -34s-8 -26.833 -8 -41.5s2.83301 -28.5 8.5 -41.5s13.167 -24.333 22.5 -34s20.5 -17.334 33.5 -23.001s26.833 -8.5 41.5 -8.5s28.5 2.83301 41.5 8.5s24.333 13.334 34 23.001s17.334 21 23.001 34s8.5 26.833 8.5 41.5
s-2.83301 28.5 -8.5 41.5s-13.334 24.333 -23.001 34s-21 17.334 -34 23.001s-26.833 8.5 -41.5 8.5z" />
    <glyph glyph-name="yen" unicode="&#xa5;" horiz-adv-x="653" 
d="M87 318c-7.33301 0 -11.666 1.33398 -12.999 4.00098s-2 7.33398 -2 14.001v44c0 6 0.666992 10.5 2 13.5s5.66602 4.5 12.999 4.5h87l-130 256c-2 3.33301 -2.16699 7.16602 -0.5 11.499s6.5 6.5 14.5 6.5h120c10 0 16.667 -1.33301 20 -4s6.66602 -7.66699 9.99902 -15
l62 -138l55 -134h5l55 135l61 139c2.66699 6 5.83398 10.333 9.50098 13s9.16699 4 16.5 4h125c8.66699 0 13.167 -2 13.5 -6s-0.5 -8 -2.5 -12l-128 -256h93c7.33301 0 11.666 -1.5 12.999 -4.5s2 -7.5 2 -13.5v-44c0 -6.66699 -0.666992 -11.334 -2 -14.001
s-5.66602 -4 -12.999 -4h-486zM573 270.001c7.33301 0 11.665 -1.5 12.998 -4.5s2 -7.5 2 -13.5v-44c0 -6.66699 -0.666992 -11.334 -2 -14.001s-5.66602 -4 -12.999 -4h-170v-173c0 -7.33301 -1.16699 -12 -3.5 -14s-8.16602 -3 -17.499 -3h-106
c-13.333 0 -20 5.66699 -20 17v173h-169c-7.33301 0 -11.666 1.33301 -12.999 4s-2 7.33398 -2 14.001v44c0 6 0.666992 10.5 2 13.5s5.66602 4.5 12.999 4.5h486z" />
    <glyph glyph-name="brokenbar" unicode="&#xa6;" horiz-adv-x="268" 
d="M196 -144c0 -8 -1.16699 -13.5 -3.5 -16.5s-8.16602 -4.5 -17.499 -4.5h-77c-13.333 0 -20 7 -20 21v409c0 12.667 6.66699 19 20 19h77c9.33301 0 15.166 -1.33301 17.499 -4s3.5 -7.66699 3.5 -15v-409zM196 356c0 -7.33301 -1.16699 -12.5 -3.5 -15.5
s-8.16602 -4.5 -17.499 -4.5h-77c-13.333 0 -20 6.66699 -20 20v411c0 13.333 6.66699 20 20 20h77c9.33301 0 15.166 -1.5 17.499 -4.5s3.5 -8.16699 3.5 -15.5v-411z" />
    <glyph glyph-name="section" unicode="&#xa7;" horiz-adv-x="623" 
d="M237 423c-6.66699 -5.33301 -12.167 -12.334 -16.5 -21.001s-6.5 -18 -6.5 -28c0 -8.66699 1.83301 -17 5.5 -25s9.66699 -16.667 18 -26s19 -19.833 32 -31.5l47.5 -41.5l36 -32.5c14 -12.333 26 -22.166 36 -29.499c14 14 21 28.667 21 44c0 10.667 -2 20.5 -6 29.5
s-10 18.167 -18 27.5s-18.167 19.5 -30.5 30.5l-42.5 37.5l-40.5 35.5zM263 -12.001c28.667 0 49.167 5.33301 61.5 16s18.5 22.334 18.5 35.001c0 14 -8 29.333 -24 46s-34.667 33.667 -56 51l-71 55.5c-22.667 18.333 -42.5 36.666 -59.5 54.999
s-30.5 37.166 -40.5 56.499s-15 39.333 -15 60c0 23.333 6.5 47.833 19.5 73.5s33.833 46.834 62.5 63.501c-8 12 -14.5 24.5 -19.5 37.5s-7.5 26.167 -7.5 39.5c0 20.667 4 40.667 12 60s20.167 36.333 36.5 51s36.666 26.334 60.999 35.001s53.166 13 86.499 13
c28 0 55.833 -2 83.5 -6s55.167 -12.333 82.5 -25c6.66699 -3.33301 10.334 -6.83301 11.001 -10.5s-0.666016 -9.5 -3.99902 -17.5l-24 -60c-2.66699 -7.33301 -5.5 -11.833 -8.5 -13.5s-8.5 -0.833984 -16.5 2.49902c-17.333 6.66699 -35 11.834 -53 15.501
s-35 5.5 -51 5.5c-52 0 -78 -15 -78 -45c0 -8.66699 2.83301 -17.5 8.5 -26.5s13 -18 22 -27s19.167 -18.167 30.5 -27.5l35 -29l74.5 -62c22.333 -19.333 41.333 -38 57 -56s27.834 -36 36.501 -54s13 -36.667 13 -56c0 -23.333 -7.16699 -46.666 -21.5 -69.999
s-34.166 -43 -59.499 -59c9.33301 -14 16.666 -27.5 21.999 -40.5s8 -26.833 8 -41.5c0 -20 -4.16699 -39.5 -12.5 -58.5s-21.333 -35.833 -39 -50.5s-40.5 -26.334 -68.5 -35.001s-61.667 -13 -101 -13c-29.333 0 -57.333 2.66699 -84 8s-52.667 14.666 -78 27.999
c-10 6 -12 14.333 -6 25l28 65c2.66699 6.66699 5.5 10.667 8.5 12s8.16699 0.333008 15.5 -3l46 -15.5c15.333 -5 34.666 -7.5 57.999 -7.5z" />
    <glyph glyph-name="dieresis" unicode="&#xa8;" horiz-adv-x="565" 
d="M474 666c0 -10 -2 -19.333 -6 -28s-9.5 -16.334 -16.5 -23.001s-14.833 -12 -23.5 -16s-18 -6 -28 -6s-19.5 2 -28.5 6s-17 9.33301 -24 16s-12.5 14.334 -16.5 23.001s-6 18 -6 28c0 20 7.5 37.333 22.5 52s32.5 22 52.5 22c10 0 19.333 -2 28 -6
s16.5 -9.33301 23.5 -16s12.5 -14.5 16.5 -23.5s6 -18.5 6 -28.5zM269 666c0 -10 -2 -19.333 -6 -28s-9.5 -16.334 -16.5 -23.001s-15 -12 -24 -16s-18.5 -6 -28.5 -6s-19.333 2 -28 6s-16.5 9.33301 -23.5 16s-12.5 14.334 -16.5 23.001s-6 18 -6 28s2 19.5 6 28.5
s9.5 16.833 16.5 23.5s14.833 12 23.5 16s18 6 28 6s19.5 -2 28.5 -6s17 -9.33301 24 -16s12.5 -14.5 16.5 -23.5s6 -18.5 6 -28.5z" />
    <glyph glyph-name="copyright" unicode="&#xa9;" horiz-adv-x="836" 
d="M423 121c-30 0 -56.8301 5.49707 -80.4971 16.4971s-44 26.5 -61 46.5s-30 43.5 -39 70.5s-13.5 56.5 -13.5 88.5c0 33.333 4.66699 63.666 14 90.999s22.5 50.833 39.5 70.5s37.333 34.834 61 45.501s49.834 16 78.501 16c30 0 57.833 -6 83.5 -18
s45.5 -26.667 59.5 -44c3.33301 -5.33301 4.66602 -8.83301 3.99902 -10.5s-3 -4.5 -7 -8.5l-30 -32c-3.33301 -3.33301 -6.5 -5.66602 -9.5 -6.99902s-7.16699 0.666992 -12.5 6c-12 10.667 -25.5 19.334 -40.5 26.001s-30.5 10 -46.5 10
c-34.667 0 -60.334 -13.167 -77.001 -39.5s-25 -61.5 -25 -105.5c0 -42 8.33301 -76.333 25 -103s42 -40 76 -40c16.667 0 32.167 3.33301 46.5 10s26.833 15 37.5 25c6.66699 6.66699 11.167 9.5 13.5 8.5s6.16602 -3.83301 11.499 -8.5l35 -32
c6 -5.33301 6 -11.666 0 -18.999c-13.333 -16 -32.833 -30.5 -58.5 -43.5s-53.834 -19.5 -84.501 -19.5zM782.003 349.997c0 -51.333 -9.33301 -99 -28 -143s-44.167 -82.167 -76.5 -114.5s-70.666 -57.666 -114.999 -75.999s-92.5 -27.5 -144.5 -27.5
s-100 9.16699 -144 27.5s-82.333 43.666 -115 75.999s-58.167 70.5 -76.5 114.5s-27.5 91.667 -27.5 143s9.16699 99 27.5 143s43.833 82.167 76.5 114.5s71 57.666 115 75.999s92 27.5 144 27.5s100.167 -9.16699 144.5 -27.5s82.666 -43.666 114.999 -75.999
s57.833 -70.5 76.5 -114.5s28 -91.667 28 -143zM710.003 349.997c0 42 -7.33301 80.833 -22 116.5s-35 66.5 -61 92.5s-56.833 46.333 -92.5 61s-74.5 22 -116.5 22s-80.833 -7.33301 -116.5 -22s-66.5 -35 -92.5 -61s-46.333 -56.833 -61 -92.5s-22 -74.5 -22 -116.5
c0 -42.667 7.33301 -82 22 -118s35 -67 61 -93s56.833 -46.167 92.5 -60.5s74.5 -21.5 116.5 -21.5s80.833 7.16699 116.5 21.5s66.5 34.5 92.5 60.5s46.333 57 61 93s22 75.333 22 118z" />
    <glyph glyph-name="ordfeminine" unicode="&#xaa;" horiz-adv-x="398" 
d="M356 314c0 -7.33301 -1 -13.335 -3 -18.002s-7 -9 -15 -13c-21.333 -9.33301 -45.333 -15.833 -72 -19.5s-52 -5.5 -76 -5.5c-31.333 0 -57.5 3 -78.5 9s-37.833 14 -50.5 24s-21.5 22 -26.5 36s-7.5 29 -7.5 45c0 35.333 12.167 63.666 36.5 84.999s61.833 32 112.5 32
h67v5c0 12 -3.16699 21.5 -9.5 28.5s-20.166 10.5 -41.499 10.5c-12.667 0 -28.334 -0.833008 -47.001 -2.5s-34.334 -4.16699 -47.001 -7.5c-6 -1.33301 -11.167 -1.66602 -15.5 -0.999023s-7.5 4.33398 -9.5 11.001l-11 50c-1.33301 6 -1 10.5 1 13.5
s6.33301 5.83301 13 8.5c18.667 6.66699 39.334 11.334 62.001 14.001s45.334 4 68.001 4c51.333 0 89.166 -10.5 113.499 -31.5s36.5 -51.833 36.5 -92.5v-185zM243 417.998l-47 0.000976562c-5.33301 0 -11.166 -0.333008 -17.499 -1s-12.333 -2.33398 -18 -5.00098
s-10.334 -6.66699 -14.001 -12s-5.5 -12.333 -5.5 -21c0 -12 4.66699 -20.333 14 -25s22.333 -7 39 -7c4 0 11 0.166992 21 0.5s19.333 1.83301 28 4.5v66z" />
    <glyph glyph-name="guillemotleft" unicode="&#xab;" horiz-adv-x="576" 
d="M58 254c0 8 1.50098 15.6689 4.50098 23.002s6.83301 14.666 11.5 21.999l88 149c5.33301 8.66699 10.666 14.667 15.999 18s15 5 29 5h92c6 0 10.167 -2.16699 12.5 -6.5s1.83301 -9.5 -1.5 -15.5l-116 -196l123 -203c4.66699 -7.33301 5.5 -12.833 2.5 -16.5
s-8.16699 -5.5 -15.5 -5.5h-91c-14 0 -23.667 1.66699 -29 5s-10 8.66602 -14 15.999l-97 162c-4 7.33301 -7.5 14.833 -10.5 22.5s-4.5 14.5 -4.5 20.5zM269.001 254.002c0 8 1.66699 15.6689 5 23.002s7 14.666 11 21.999l89 149c5.33301 8.66699 10.666 14.667 15.999 18
s15 5 29 5h91c6.66699 0 11.167 -2.16699 13.5 -6.5s1.5 -9.5 -2.5 -15.5l-115 -196l123 -203c4.66699 -7.33301 5.5 -12.833 2.5 -16.5s-8.16699 -5.5 -15.5 -5.5h-92c-13.333 0 -22.666 1.66699 -27.999 5s-10 8.66602 -14 15.999l-97 162
c-4 7.33301 -7.66699 14.833 -11 22.5s-5 14.5 -5 20.5z" />
    <glyph glyph-name="logicalnot" unicode="&#xac;" horiz-adv-x="653" 
d="M580 110c0 -7.33301 -1.33301 -12.5 -4 -15.5s-8.66699 -4.5 -18 -4.5h-82c-14 0 -21 6.66699 -21 20v174h-362c-7.33301 0 -12.5 1.5 -15.5 4.5s-4.5 8.5 -4.5 16.5v77c0 9.33301 1.5 15.333 4.5 18s8.16699 4 15.5 4h467c6.66699 0 11.667 -1.33301 15 -4
s5 -8.66699 5 -18v-272z" />
    <glyph glyph-name="sfthyphen" unicode="&#xad;" horiz-adv-x="397" 
d="M341 251c0 -7.33301 -1.16699 -12.666 -3.5 -15.999s-7.16602 -5 -14.499 -5h-254c-7.33301 0 -12.166 1.66699 -14.499 5s-3.5 8.66602 -3.5 15.999v90c0 8.66699 1.16699 14.334 3.5 17.001s7.16602 4 14.499 4h254c7.33301 0 12.166 -1.33301 14.499 -4
s3.5 -8.33398 3.5 -17.001v-90v0z" />
    <glyph glyph-name="registered" unicode="&#xae;" horiz-adv-x="582" 
d="M529 478c0 -33.333 -6.33203 -64.166 -18.999 -92.499s-29.667 -53 -51 -74s-46.5 -37.333 -75.5 -49s-59.833 -17.5 -92.5 -17.5c-34 0 -65.5 5.83301 -94.5 17.5s-54.167 28 -75.5 49s-38 45.667 -50 74s-18 59.166 -18 92.499c0 34 6.16699 65.333 18.5 94
s29.333 53.667 51 75s47.167 38 76.5 50s60.666 18 93.999 18c34 0 65.333 -6 94 -18s53.5 -28.667 74.5 -50s37.5 -46.5 49.5 -75.5s18 -60.167 18 -93.5zM474.001 479c0 26 -4.66602 50.5029 -13.999 73.5029s-22.166 42.833 -38.499 59.5s-35.666 29.834 -57.999 39.501
s-46.5 14.5 -72.5 14.5s-50.167 -4.83301 -72.5 -14.5s-41.833 -22.834 -58.5 -39.501s-29.667 -36.5 -39 -59.5s-14 -47.5 -14 -73.5s4.66699 -50.333 14 -73s22.166 -42.334 38.499 -59.001s35.833 -29.834 58.5 -39.501s47 -14.5 73 -14.5s50.167 4.66699 72.5 14
s41.666 22.166 57.999 38.499s29.166 35.833 38.499 58.5s14 47.667 14 75zM405.002 361.003c0.666992 -2.66699 0.833984 -5.00098 0.500977 -7.00098s-2.5 -3 -6.5 -3h-43c-3.33301 0 -6.16602 0.333008 -8.49902 1s-4.16602 3.33398 -5.49902 8.00098
c-0.666992 2.66699 -1.83398 7 -3.50098 13l-5 18.5l-5 18.5c-1.66699 6 -2.83398 10.667 -3.50098 14c-5.33301 21.333 -18.333 32 -39 32h-33v-96c0 -4 -0.666992 -6.5 -2 -7.5s-4 -1.5 -8 -1.5h-41c-6 0 -9 3 -9 9v229c0 16.667 8.66699 25 26 25h88
c28 0 49.333 -7.16699 64 -21.5s22 -33.166 22 -56.499c0 -13.333 -3.33301 -26 -10 -38s-16.334 -20.667 -29.001 -26v-1c10.667 -3.33301 18.167 -8.33301 22.5 -15s7.5 -14.334 9.5 -23.001zM333.002 532.002c0 7.33301 -2.16699 14 -6.5 20s-12.5 9 -24.5 9h-49v-57h48
c10.667 0 18.667 2.66699 24 8s8 12 8 20z" />
    <glyph glyph-name="macron" unicode="&#xaf;" horiz-adv-x="397" 
d="M356 604c0 -14 -6.66699 -21 -20 -21h-271c-13.333 0 -20 7 -20 21v60c0 9.33301 1.5 15.166 4.5 17.499s8.16699 3.5 15.5 3.5h271c7.33301 0 12.5 -1.16699 15.5 -3.5s4.5 -8.16602 4.5 -17.499v-60v0z" />
    <glyph glyph-name="degree" unicode="&#xb0;" horiz-adv-x="461" 
d="M400 539c0 -24 -4.33301 -46 -13 -66s-20.5 -37.333 -35.5 -52s-32.833 -26 -53.5 -34s-42.667 -12 -66 -12s-45.166 4 -65.499 12s-38 19.333 -53 34s-26.667 32 -35 52s-12.5 42 -12.5 66c0 23.333 4.16699 45 12.5 65s20 37.167 35 51.5s32.667 25.666 53 33.999
s42.5 12.5 66.5 12.5c23.333 0 45.166 -4.16699 65.499 -12.5s38 -19.666 53 -33.999s26.833 -31.5 35.5 -51.5s13 -41.667 13 -65zM315 539c0 24 -7.66699 43.667 -23 59s-35 23 -59 23c-23.333 0 -42.666 -7.66699 -57.999 -23s-23 -35 -23 -59
c0 -25.333 7.66699 -45.833 23 -61.5s34.666 -23.5 57.999 -23.5c24 0 43.667 7.83301 59 23.5s23 36.167 23 61.5z" />
    <glyph glyph-name="plusminus" unicode="&#xb1;" horiz-adv-x="653" 
d="M577 19c0 -13.333 -6.66699 -20 -20 -20h-463c-14 0 -21 6.66699 -21 20v81c0 8.66699 1.5 14.167 4.5 16.5s8.5 3.5 16.5 3.5h463c7.33301 0 12.5 -1.16699 15.5 -3.5s4.5 -7.83301 4.5 -16.5v-81zM581 368c0 -14 -7 -21 -21 -21h-165v-173
c0 -8 -1.33301 -13.5 -4 -16.5s-8.66699 -4.5 -18 -4.5h-92c-14 0 -21 7 -21 21v173h-166c-13.333 0 -20 7 -20 21v78c0 9.33301 1.5 15.333 4.5 18s8.16699 4 15.5 4h166v173c0 14 7 21 21 21h92c9.33301 0 15.333 -1.5 18 -4.5s4 -8.5 4 -16.5v-173h165
c8 0 13.5 -1.33301 16.5 -4s4.5 -8.66699 4.5 -18v-78z" />
    <glyph glyph-name="twosuperior" unicode="&#xb2;" horiz-adv-x="425" 
d="M377 376c0 -7.33301 -1.00098 -12.332 -3.00098 -14.999s-6.66699 -4 -14 -4h-258c-19.333 0 -34.5 4.16699 -45.5 12.5s-16.5 23.833 -16.5 46.5c0 15.333 5.83301 32.5 17.5 51.5s27.167 36.833 46.5 53.5c17.333 15.333 34.5 28.666 51.5 39.999l46.5 30
c23.333 12.667 38.5 23.167 45.5 31.5s10.5 16.833 10.5 25.5c0 7.33301 -3.5 13.833 -10.5 19.5s-18.833 8.5 -35.5 8.5s-33.667 -2.83301 -51 -8.5s-34.333 -13.167 -51 -22.5c-5.33301 -3.33301 -10.166 -5 -14.499 -5s-8.16602 3 -11.499 9l-27 47
c-3.33301 5.33301 -4.83301 10 -4.5 14s3.5 8 9.5 12c21.333 15.333 45.833 27.166 73.5 35.499s54.5 12.5 80.5 12.5c22.667 0 43.834 -2.33301 63.501 -7s36.667 -11.667 51 -21s25.5 -21.333 33.5 -36s12 -32 12 -52c0 -30.667 -10.167 -56 -30.5 -76
s-45.5 -38.667 -75.5 -56c-16.667 -9.33301 -33.834 -20.666 -51.501 -33.999s-31.834 -27.333 -42.501 -42h182c9.33301 0 14.833 -1 16.5 -3s2.5 -6.66699 2.5 -14v-53z" />
    <glyph glyph-name="threesuperior" unicode="&#xb3;" horiz-adv-x="425" 
d="M316 572c22.667 -8.66699 38.1641 -21.6641 46.4971 -38.9971s12.5 -34.666 12.5 -51.999c0 -40 -16.167 -71.5 -48.5 -94.5s-75.166 -34.5 -128.499 -34.5c-25.333 0 -52.166 3.16699 -80.499 9.5s-52.5 16.166 -72.5 29.499
c-7.33301 5.33301 -11.166 9.66602 -11.499 12.999s1.16699 8.33301 4.5 15l28 51c3.33301 4 6.66602 6 9.99902 6s8.66602 -1.66699 15.999 -5c15.333 -8 31.166 -14.333 47.499 -19s32.166 -7 47.499 -7c24.667 0 42.834 4.5 54.501 13.5s17.5 20.5 17.5 34.5
c0 11.333 -4 20.666 -12 27.999s-22.333 11 -43 11h-22c-11.333 0 -18.5 1.5 -21.5 4.5s-4.5 9.83301 -4.5 20.5v28c0 8.66699 1.83301 14.5 5.5 17.5s9.83398 4.5 18.501 4.5h21c33.333 0 50 12.333 50 37c0 11.333 -5 19.333 -15 24s-21.333 7 -34 7
c-28.667 0 -58.334 -7.33301 -89.001 -22c-9.33301 -4 -16.166 -6.66699 -20.499 -8s-8.5 1.66699 -12.5 9l-25 46c-3.33301 6 -4.66602 10.667 -3.99902 14s4 7.66602 10 12.999c22 15.333 47.167 26.333 75.5 33s54.833 10 79.5 10c20 0 39 -2 57 -6s34 -10.5 48 -19.5
s25.167 -20.333 33.5 -34s12.5 -30.5 12.5 -50.5c0 -16 -4.16699 -31.833 -12.5 -47.5s-21.166 -28.167 -38.499 -37.5v-3z" />
    <glyph glyph-name="acute" unicode="&#xb4;" horiz-adv-x="525" 
d="M181 591c-6 2 -9.33398 4.50098 -10.001 7.50098s0 7.16699 2 12.5l70 174c3.33301 9.33301 7.5 14 12.5 14s11.167 -1 18.5 -3l95 -25c10.667 -2.66699 13.334 -8.66699 8.00098 -18l-117 -172c-4 -6 -7.5 -9.33301 -10.5 -10s-7.16699 -0.333984 -12.5 0.999023z" />
    <glyph glyph-name="mu" unicode="&#xb5;" horiz-adv-x="600" 
d="M189 526c9.33301 0 15.165 -1.33301 17.498 -4s3.5 -7.66699 3.5 -15v-312c0 -16 1.5 -29.667 4.5 -41s8.66699 -20.333 17 -27s20.166 -11.5 35.499 -14.5s35.333 -4.5 60 -4.5c6.66699 0 15.334 0.333008 26.001 1s23 2 37 4v394c0 7.33301 1.16699 12.333 3.5 15
s8.16602 4 17.499 4h103c14 0 21 -6.33301 21 -19v-423c0 -14.667 -1.16699 -27 -3.5 -37s-6.33301 -18.167 -12 -24.5s-13 -11.5 -22 -15.5s-20.167 -7.33301 -33.5 -10c-8.66699 -1.33301 -18.667 -2.66602 -30 -3.99902s-22.666 -2.33301 -33.999 -3
s-22.5 -1.16699 -33.5 -1.5s-20.167 -0.5 -27.5 -0.5c-20.667 0 -43.667 1.16699 -69 3.5s-46.666 6.16602 -63.999 11.499v-189c0 -7.33301 -1.33301 -12.166 -4 -14.499s-8 -3.5 -16 -3.5h-100c-7.33301 0 -12.666 1.16699 -15.999 3.5s-5 7.16602 -5 14.499v693
c0 7.33301 1.5 12.333 4.5 15s8.5 4 16.5 4h103v0z" />
    <glyph glyph-name="mu" unicode="&#x3bc;" horiz-adv-x="600" 
d="M189 526c9.33301 0 15.165 -1.33301 17.498 -4s3.5 -7.66699 3.5 -15v-312c0 -16 1.5 -29.667 4.5 -41s8.66699 -20.333 17 -27s20.166 -11.5 35.499 -14.5s35.333 -4.5 60 -4.5c6.66699 0 15.334 0.333008 26.001 1s23 2 37 4v394c0 7.33301 1.16699 12.333 3.5 15
s8.16602 4 17.499 4h103c14 0 21 -6.33301 21 -19v-423c0 -14.667 -1.16699 -27 -3.5 -37s-6.33301 -18.167 -12 -24.5s-13 -11.5 -22 -15.5s-20.167 -7.33301 -33.5 -10c-8.66699 -1.33301 -18.667 -2.66602 -30 -3.99902s-22.666 -2.33301 -33.999 -3
s-22.5 -1.16699 -33.5 -1.5s-20.167 -0.5 -27.5 -0.5c-20.667 0 -43.667 1.16699 -69 3.5s-46.666 6.16602 -63.999 11.499v-189c0 -7.33301 -1.33301 -12.166 -4 -14.499s-8 -3.5 -16 -3.5h-100c-7.33301 0 -12.666 1.16699 -15.999 3.5s-5 7.16602 -5 14.499v693
c0 7.33301 1.5 12.333 4.5 15s8.5 4 16.5 4h103v0z" />
    <glyph glyph-name="paragraph" unicode="&#xb6;" horiz-adv-x="584" 
d="M520 54c0 -70.667 -20.001 -122.167 -60.001 -154.5s-96.333 -50.833 -169 -55.5c-4.66699 0 -8.5 0.5 -11.5 1.5s-5.16699 5.16699 -6.5 12.5l-10 77c-1.33301 9.33301 3 15 13 17c24.667 2.66699 44.834 7.16699 60.501 13.5s28.167 14.333 37.5 24s15.833 21 19.5 34
s5.5 28.167 5.5 45.5v619c0 4.66699 1.66699 8.16699 5 10.5s7.33301 3.5 12 3.5h87c11.333 0 17 -4.66699 17 -14v-634zM247.999 321c-30 0 -57.001 4.83496 -81.001 14.502s-44.167 23 -60.5 40s-28.833 37 -37.5 60s-13 47.833 -13 74.5c0 26 4.5 50.667 13.5 74
s21.833 43.666 38.5 60.999s36.834 31.166 60.501 41.499s50.167 15.5 79.5 15.5h85c9.33301 0 14 -5 14 -15v-351c0 -6 -1 -10 -3 -12s-5.66699 -3 -11 -3h-85z" />
    <glyph glyph-name="periodcentered" unicode="&#xb7;" horiz-adv-x="296" 
d="M240 293c0 -24.667 -8.83301 -45.6689 -26.5 -63.002s-39.5 -26 -65.5 -26c-12.667 0 -24.667 2.33301 -36 7s-21.166 11 -29.499 19s-14.833 17.333 -19.5 28s-7 22.334 -7 35.001s2.33301 24.5 7 35.5s11.167 20.5 19.5 28.5s18.166 14.333 29.499 19s23.333 7 36 7
c26 0 47.833 -8.66699 65.5 -26s26.5 -38.666 26.5 -63.999z" />
    <glyph glyph-name="cedilla" unicode="&#xb8;" horiz-adv-x="515" 
d="M282 -54c24.667 -1.33301 45.167 -5 61.5 -11s29.5 -13.333 39.5 -22s17 -18.167 21 -28.5s6 -20.833 6 -31.5c0 -13.333 -2.5 -26.333 -7.5 -39s-13 -24 -24 -34s-25.167 -18 -42.5 -24s-38.666 -9 -63.999 -9c-10.667 0 -21.667 0.666992 -33 2s-22.333 3 -33 5
s-20.667 4.33301 -30 7s-17.333 5.33398 -24 8.00098c-5.33301 2 -8.16602 4.33301 -8.49902 7s0.5 7.33398 2.5 14.001l12 36c2.66699 7.33301 5 11.166 7 11.499s5.66699 -0.166992 11 -1.5c13.333 -4.66699 25.666 -8.16699 36.999 -10.5s23.333 -3.5 36 -3.5
c16 0 28.667 2.66699 38 8s14 14 14 26c0 11.333 -5.66699 19.333 -17 24s-25.333 7 -42 7c-11.333 0 -18.833 0.166992 -22.5 0.5s-7.16699 2.16602 -10.5 5.49902c-4 3.33301 -5.66699 7.66602 -5 12.999s2 11 4 17l41 105c1.33301 1.33301 2.66602 3 3.99902 5
s4.33301 3 9 3h46c5.33301 0 8 -1.16699 8 -3.5s-0.666992 -4.16602 -2 -5.49902z" />
    <glyph glyph-name="onesuperior" unicode="&#xb9;" horiz-adv-x="425" 
d="M355 376c0 -7.33301 -1 -12.333 -3 -15s-7.33301 -4 -16 -4h-238c-8 0 -13 1.16699 -15 3.5s-3 7.16602 -3 14.499v54c0 7.33301 1 12 3 14s7 3 15 3h59v218l-59 -11c-8 -1.33301 -13.333 -0.666016 -16 2.00098s-4 6.66699 -4 12v51c0 6 0.833008 10.833 2.5 14.5
s6.5 6.5 14.5 8.5l112 28c18 4.66699 33.167 5 45.5 1s18.5 -16.333 18.5 -37v-287h65c8.66699 0 14 -1 16 -3s3 -6.66699 3 -14v-53z" />
    <glyph glyph-name="ordmasculine" unicode="&#xba;" horiz-adv-x="411" 
d="M384 441c0 -58 -14.833 -103.001 -44.5 -135.001s-74.834 -48 -135.501 -48c-61.333 0 -106.166 15.833 -134.499 47.5s-42.5 76.834 -42.5 135.501c0 56.667 15.667 101.167 47 133.5s75 48.5 131 48.5c58.667 0 103.167 -16.167 133.5 -48.5s45.5 -76.833 45.5 -133.5z
M266 439.999c0 26.667 -4.33105 48.167 -12.998 64.5s-24.334 24.5 -47.001 24.5c-21.333 0 -37 -7.83301 -47 -23.5s-15 -36.834 -15 -63.501c0 -29.333 4.66699 -51.666 14 -66.999s24.666 -23 45.999 -23c22.667 0 38.667 8.33301 48 25s14 37.667 14 63z" />
    <glyph glyph-name="guillemotright" unicode="&#xbb;" horiz-adv-x="576" 
d="M521 254c0 -6 -1.66699 -12.835 -5 -20.502s-7 -15.167 -11 -22.5l-97 -162c-4 -7.33301 -8.66699 -12.666 -14 -15.999s-14.666 -5 -27.999 -5h-92c-7.33301 0 -12.5 1.83301 -15.5 5.5s-2.16699 9.16699 2.5 16.5l123 203l-115 196c-4 6 -4.83301 11.167 -2.5 15.5
s6.83301 6.5 13.5 6.5h91c14 0 23.667 -1.66699 29 -5s10.666 -9.33301 15.999 -18l88 -149c4.66699 -7.33301 8.66699 -14.666 12 -21.999s5 -15 5 -23zM309 253.998c0 -6 -1.66504 -12.835 -4.99805 -20.502s-7 -15.167 -11 -22.5l-97 -162
c-3.33301 -7.33301 -7.83301 -12.666 -13.5 -15.999s-15.167 -5 -28.5 -5h-92c-7.33301 0 -12.5 1.83301 -15.5 5.5s-2.16699 9.16699 2.5 16.5l124 203l-116 196c-4 6 -4.83301 11.167 -2.5 15.5s6.83301 6.5 13.5 6.5h92c13.333 0 22.666 -1.66699 27.999 -5
s10.666 -9.33301 15.999 -18l89 -149c4 -7.33301 7.66699 -14.666 11 -21.999s5 -15 5 -23z" />
    <glyph glyph-name="onequarter" unicode="&#xbc;" horiz-adv-x="970" 
d="M879 94c0 -5.33301 -0.668945 -9.49805 -2.00195 -12.498s-6 -4.5 -14 -4.5h-38v-59c0 -8.66699 -1.66699 -13.834 -5 -15.501s-8.33301 -2.5 -15 -2.5h-75c-6 0 -10.5 1.16699 -13.5 3.5s-4.5 7.16602 -4.5 14.499v58h-171c-5.33301 0 -10.666 0.166992 -15.999 0.5
s-10.166 1.83301 -14.499 4.5s-7.83301 6.5 -10.5 11.5s-4 12.167 -4 21.5v21c0 16.667 5.66699 31.667 17 45l171 201c7.33301 8 15.5 15.333 24.5 22s22.167 10 39.5 10h36c15.333 0 26 -2.83301 32 -8.5s9 -16.167 9 -31.5v-208h37c8.66699 0 13.667 -1.33301 15 -4
s2 -7 2 -13v-54zM325.998 -13.998c-3.33301 -6 -7.49902 -10.499 -12.499 -13.499s-12.167 -4.5 -21.5 -4.5h-51c-7.33301 0 -11.833 1.83301 -13.5 5.5s-0.833984 8.16699 2.49902 13.5l414 704c3.33301 5.33301 6.33301 9.16602 9 11.499s7.66699 3.5 15 3.5h59
c6 0 10.167 -1.66699 12.5 -5s1.5 -8.33301 -2.5 -15zM367.999 286.003c0 -7.33301 -1 -12.333 -3 -15s-7.33301 -4 -16 -4h-238c-8 0 -13 1.16699 -15 3.5s-3 7.16602 -3 14.499v54c0 7.33301 1 12 3 14s7 3 15 3h59v218l-59 -11
c-8 -1.33301 -13.333 -0.666016 -16 2.00098s-4 6.66699 -4 12v51c0 6 0.833008 10.833 2.5 14.5s6.5 6.5 14.5 8.5l112 28c18 4.66699 33.167 5 45.5 1s18.5 -16.333 18.5 -37v-287h65c8.66699 0 14 -1 16 -3s3 -6.66699 3 -14v-53zM707.999 275.003l-89 -106l1 -4h92v109z
" />
    <glyph glyph-name="onehalf" unicode="&#xbd;" horiz-adv-x="970" 
d="M349 286c0 -7.33301 -1 -12.333 -3 -15s-7.33301 -4 -16 -4h-238c-8 0 -13 1.16699 -15 3.5s-3 7.16602 -3 14.499v54c0 7.33301 1 12 3 14s7 3 15 3h59v218l-59 -11c-8 -1.33301 -13.333 -0.666016 -16 2.00098s-4 6.66699 -4 12v51c0 6 0.833008 10.833 2.5 14.5
s6.5 6.5 14.5 8.5l112 28c18 4.66699 33.167 5 45.5 1s18.5 -16.333 18.5 -37v-287h65c8.66699 0 14 -1 16 -3s3 -6.66699 3 -14v-53zM311 -14c-3.33301 -6 -7.49902 -10.499 -12.499 -13.499s-12.167 -4.5 -21.5 -4.5h-51c-7.33301 0 -11.833 1.83301 -13.5 5.5
s-0.833984 8.16699 2.49902 13.5l414 704c3.33301 5.33301 6.33301 9.16602 9 11.499s7.66699 3.5 15 3.5h59c6 0 10.167 -1.66699 12.5 -5s1.5 -8.33301 -2.5 -15zM897.001 19.001c0 -7.33301 -1.00098 -12.332 -3.00098 -14.999s-6.66699 -4 -14 -4h-258
c-19.333 0 -34.5 4.16699 -45.5 12.5s-16.5 23.833 -16.5 46.5c0 15.333 5.83301 32.5 17.5 51.5s27.167 36.833 46.5 53.5c17.333 15.333 34.5 28.666 51.5 39.999l46.5 30c23.333 12.667 38.5 23.167 45.5 31.5s10.5 16.833 10.5 25.5c0 7.33301 -3.5 13.833 -10.5 19.5
s-18.833 8.5 -35.5 8.5s-33.667 -2.83301 -51 -8.5s-34.333 -13.167 -51 -22.5c-5.33301 -3.33301 -10.166 -5 -14.499 -5s-8.16602 3 -11.499 9l-27 47c-3.33301 5.33301 -4.83301 10 -4.5 14s3.5 8 9.5 12c21.333 15.333 45.833 27.166 73.5 35.499s54.5 12.5 80.5 12.5
c22.667 0 43.834 -2.33301 63.501 -7s36.667 -11.667 51 -21s25.5 -21.333 33.5 -36s12 -32 12 -52c0 -30.667 -10.167 -56 -30.5 -76s-45.5 -38.667 -75.5 -56c-16.667 -9.33301 -33.834 -20.666 -51.501 -33.999s-31.834 -27.333 -42.501 -42h182
c9.33301 0 14.833 -1 16.5 -3s2.5 -6.66699 2.5 -14v-53z" />
    <glyph glyph-name="threequarters" unicode="&#xbe;" horiz-adv-x="970" 
d="M916 94c0 -5.33301 -0.668945 -9.49805 -2.00195 -12.498s-6 -4.5 -14 -4.5h-38v-59c0 -8.66699 -1.66699 -13.834 -5 -15.501s-8.33301 -2.5 -15 -2.5h-75c-6 0 -10.5 1.16699 -13.5 3.5s-4.5 7.16602 -4.5 14.499v58h-171c-5.33301 0 -10.666 0.166992 -15.999 0.5
s-10.166 1.83301 -14.499 4.5s-7.83301 6.5 -10.5 11.5s-4 12.167 -4 21.5v21c0 16.667 5.66699 31.667 17 45l171 201c7.33301 8 15.5 15.333 24.5 22s22.167 10 39.5 10h36c15.333 0 26 -2.83301 32 -8.5s9 -16.167 9 -31.5v-208h37c8.66699 0 13.667 -1.33301 15 -4
s2 -7 2 -13v-54zM335.998 482.002c22.667 -8.66699 38.1641 -21.6641 46.4971 -38.9971s12.5 -34.666 12.5 -51.999c0 -40 -16.167 -71.5 -48.5 -94.5s-75.166 -34.5 -128.499 -34.5c-25.333 0 -52.166 3.16699 -80.499 9.5s-52.5 16.166 -72.5 29.499
c-7.33301 5.33301 -11.166 9.66602 -11.499 12.999s1.16699 8.33301 4.5 15l28 51c3.33301 4 6.66602 6 9.99902 6s8.66602 -1.66699 15.999 -5c15.333 -8 31.166 -14.333 47.499 -19s32.166 -7 47.499 -7c24.667 0 42.834 4.5 54.501 13.5s17.5 20.5 17.5 34.5
c0 11.333 -4 20.666 -12 27.999s-22.333 11 -43 11h-22c-11.333 0 -18.5 1.5 -21.5 4.5s-4.5 9.83301 -4.5 20.5v28c0 8.66699 1.83301 14.5 5.5 17.5s9.83398 4.5 18.501 4.5h21c33.333 0 50 12.333 50 37c0 11.333 -5 19.333 -15 24s-21.333 7 -34 7
c-28.667 0 -58.334 -7.33301 -89.001 -22c-9.33301 -4 -16.166 -6.66699 -20.499 -8s-8.5 1.66699 -12.5 9l-25 46c-3.33301 6 -4.66602 10.667 -3.99902 14s4 7.66602 10 12.999c22 15.333 47.167 26.333 75.5 33s54.833 10 79.5 10c20 0 39 -2 57 -6s34 -10.5 48 -19.5
s25.167 -20.333 33.5 -34s12.5 -30.5 12.5 -50.5c0 -16 -4.16699 -31.833 -12.5 -47.5s-21.166 -28.167 -38.499 -37.5v-3zM338.995 -13.9951c-3.33301 -6 -7.49902 -10.499 -12.499 -13.499s-12.167 -4.5 -21.5 -4.5h-51c-7.33301 0 -11.833 1.83301 -13.5 5.5
s-0.833984 8.16699 2.49902 13.5l414 704c3.33301 5.33301 6.33301 9.16602 9 11.499s7.66699 3.5 15 3.5h59c6 0 10.167 -1.66699 12.5 -5s1.5 -8.33301 -2.5 -15zM744.996 275.006l-89 -106l1 -4h92v109z" />
    <glyph glyph-name="questiondown" unicode="&#xbf;" horiz-adv-x="567" 
d="M287 -197c-30.667 0 -60.167 3.16602 -88.5 9.49902s-53.5 16.5 -75.5 30.5s-39.5 32 -52.5 54s-19.5 48.667 -19.5 80c0 18 3 34.667 9 50s13.833 30 23.5 44s20.667 27.167 33 39.5l36.5 36.5l34.5 32c11 10.667 20.667 21.334 29 32.001s15.166 21.334 20.499 32.001
s8 21.667 8 33v22c0 6 1 10 3 12s6.33301 3 13 3h108c7.33301 0 11.833 -1.33301 13.5 -4s2.5 -6.33398 2.5 -11.001v-32c0 -19.333 -3.16699 -37 -9.5 -53s-14.5 -30.667 -24.5 -44s-21.167 -25.833 -33.5 -37.5l-36.5 -33.5
c-17.333 -16.667 -32.166 -33.167 -44.499 -49.5s-18.5 -35.166 -18.5 -56.499c0 -14.667 6.66699 -28 20 -40s34 -18 62 -18c25.333 0 49.833 3.66699 73.5 11s48.834 19.666 75.501 36.999c6 3.33301 11.167 5.5 15.5 6.5s8.16602 -1.5 11.499 -7.5l47 -79
c2.66699 -4.66699 3.83398 -8.83398 3.50098 -12.501s-3.5 -7.5 -9.5 -11.5c-18 -13.333 -36.833 -24.666 -56.5 -33.999s-39.5 -17 -59.5 -23s-39.833 -10.5 -59.5 -13.5s-37.834 -4.5 -54.501 -4.5zM227 439.999c0 12 2.33496 23.333 7.00195 34
s11.167 19.834 19.5 27.501s18.166 13.667 29.499 18s23.333 6.5 36 6.5c25.333 0 46.833 -8 64.5 -24s26.5 -36.667 26.5 -62c0 -12.667 -2.5 -24.334 -7.5 -35.001s-11.667 -20 -20 -28s-18.166 -14.167 -29.499 -18.5s-23.333 -6.5 -36 -6.5
c-10.667 0 -21.334 1.83301 -32.001 5.5s-20.334 9.16699 -29.001 16.5s-15.667 16.5 -21 27.5s-8 23.833 -8 38.5z" />
    <glyph glyph-name="Agrave" unicode="&#xc0;" horiz-adv-x="655" 
d="M441 146h-229l-39 -127c-2 -6.66699 -4.83301 -11.5 -8.5 -14.5s-10.167 -4.5 -19.5 -4.5h-117c-7.33301 0 -11.833 2 -13.5 6s-1.83398 8.66699 -0.500977 14l208 627c3.33301 11.333 7.16602 20.5 11.499 27.5s9.33301 12.5 15 16.5s12.334 6.83301 20.001 8.5
s16.5 2.5 26.5 2.5h60c11.333 0 21 -0.5 29 -1.5s15 -3.5 21 -7.5s11.167 -9.66699 15.5 -17s8.5 -17 12.5 -29l208 -627c1.33301 -4 1.33301 -8.33301 0 -13s-5.66602 -7 -12.999 -7h-119c-7.33301 -0 -13.5 0.833008 -18.5 2.5s-8.5 6.16699 -10.5 13.5zM248 270h157
l-38 127l-37 143h-6l-38 -143zM403 810c5.33301 -4.66699 7.83301 -8.33398 7.5 -11.001s-2.16602 -6 -5.49902 -10l-38 -46c-3.33301 -3.33301 -6.5 -5.5 -9.5 -6.5s-7.83301 0.166992 -14.5 3.5l-193 99c-4 1.33301 -6.33301 3.83301 -7 7.5s1 7.5 5 11.5l69 79
c5.33301 5.33301 9.66602 7.33301 12.999 6s7 -3.66602 11 -6.99902z" />
    <glyph glyph-name="Aacute" unicode="&#xc1;" horiz-adv-x="655" 
d="M441 146h-229l-39 -127c-2 -6.66699 -4.83301 -11.5 -8.5 -14.5s-10.167 -4.5 -19.5 -4.5h-117c-7.33301 0 -11.833 2 -13.5 6s-1.83398 8.66699 -0.500977 14l208 627c3.33301 11.333 7.16602 20.5 11.499 27.5s9.33301 12.5 15 16.5s12.334 6.83301 20.001 8.5
s16.5 2.5 26.5 2.5h60c11.333 0 21 -0.5 29 -1.5s15 -3.5 21 -7.5s11.167 -9.66699 15.5 -17s8.5 -17 12.5 -29l208 -627c1.33301 -4 1.33301 -8.33301 0 -13s-5.66602 -7 -12.999 -7h-119c-7.33301 -0 -13.5 0.833008 -18.5 2.5s-8.5 6.16699 -10.5 13.5zM417 936
c4 3.33301 7.66699 5.66602 11 6.99902s7.66602 -0.666992 12.999 -6l69 -79c4 -4 5.66699 -7.83301 5 -11.5s-3 -6.16699 -7 -7.5l-193 -99c-6.66699 -3.33301 -11.5 -4.5 -14.5 -3.5s-6.16699 3.16699 -9.5 6.5l-38 46c-3.33301 4 -5.16602 7.33301 -5.49902 10
s2.16699 6.33398 7.5 11.001zM248 270h157l-38 127l-37 143h-6l-38 -143z" />
    <glyph glyph-name="Acircumflex" unicode="&#xc2;" horiz-adv-x="655" 
d="M441 146h-229l-39 -127c-2 -6.66699 -4.83301 -11.5 -8.5 -14.5s-10.167 -4.5 -19.5 -4.5h-117c-7.33301 0 -11.833 2 -13.5 6s-1.83398 8.66699 -0.500977 14l208 627c3.33301 11.333 7.16602 20.5 11.499 27.5s9.33301 12.5 15 16.5s12.334 6.83301 20.001 8.5
s16.5 2.5 26.5 2.5h60c11.333 0 21 -0.5 29 -1.5s15 -3.5 21 -7.5s11.167 -9.66699 15.5 -17s8.5 -17 12.5 -29l208 -627c1.33301 -4 1.33301 -8.33301 0 -13s-5.66602 -7 -12.999 -7h-119c-7.33301 -0 -13.5 0.833008 -18.5 2.5s-8.5 6.16699 -10.5 13.5zM248 270h157
l-38 127l-37 143h-6l-38 -143zM515 796c6 -5.33301 9.00098 -9.83301 9.00098 -13.5s-2.33301 -7.83398 -7 -12.501l-28 -31c-4 -4.66699 -8.33301 -6.5 -13 -5.5s-9.66699 3.16699 -15 6.5l-142 77l-138 -75c-5.33301 -3.33301 -10 -5.16602 -14 -5.49902
s-8.33301 2.16699 -13 7.5l-26 27c-4 5.33301 -6.16699 9.5 -6.5 12.5s1.83398 6.83301 6.50098 11.5l133 115c9.33301 8 19.166 14.333 29.499 19s19.833 7 28.5 7c19.333 0 39.666 -8.66699 60.999 -26z" />
    <glyph glyph-name="Atilde" unicode="&#xc3;" horiz-adv-x="655" 
d="M441 146h-229l-39 -127c-2 -6.66699 -4.83301 -11.5 -8.5 -14.5s-10.167 -4.5 -19.5 -4.5h-117c-7.33301 0 -11.833 2 -13.5 6s-1.83398 8.66699 -0.500977 14l208 627c3.33301 11.333 7.16602 20.5 11.499 27.5s9.33301 12.5 15 16.5s12.334 6.83301 20.001 8.5
s16.5 2.5 26.5 2.5h60c11.333 0 21 -0.5 29 -1.5s15 -3.5 21 -7.5s11.167 -9.66699 15.5 -17s8.5 -17 12.5 -29l208 -627c1.33301 -4 1.33301 -8.33301 0 -13s-5.66602 -7 -12.999 -7h-119c-7.33301 -0 -13.5 0.833008 -18.5 2.5s-8.5 6.16699 -10.5 13.5zM248 270h157
l-38 127l-37 143h-6l-38 -143zM394 747c-12 0 -24.0039 2.16992 -36.0039 6.50293s-23.667 9 -35 14s-22.666 9.66699 -33.999 14s-23 6.5 -35 6.5c-18 0 -33.667 -10.333 -47 -31c-4 -6 -7.5 -9.83301 -10.5 -11.5s-7.16699 -0.833984 -12.5 2.49902l-44 25
c-6 3.33301 -9.16699 6.66602 -9.5 9.99902s0.833984 7.66602 3.50098 12.999c12.667 25.333 28.167 45.833 46.5 61.5s42.5 23.5 72.5 23.5c12.667 0 24.667 -2.16699 36 -6.5s22.5 -9 33.5 -14s21.833 -9.5 32.5 -13.5s21.334 -6 32.001 -6s19.5 2.5 26.5 7.5
s13.833 13.167 20.5 24.5c4 7.33301 7 11.333 9 12s6 0 12 -2l50 -17c6.66699 -2 10.334 -4.5 11.001 -7.5s-0.333008 -7.83301 -3 -14.5c-12.667 -28 -28.167 -51.167 -46.5 -69.5s-42.5 -27.5 -72.5 -27.5z" />
    <glyph glyph-name="Adieresis" unicode="&#xc4;" horiz-adv-x="655" 
d="M441 146h-229l-39 -127c-2 -6.66699 -4.83301 -11.5 -8.5 -14.5s-10.167 -4.5 -19.5 -4.5h-117c-7.33301 0 -11.833 2 -13.5 6s-1.83398 8.66699 -0.500977 14l208 627c3.33301 11.333 7.16602 20.5 11.499 27.5s9.33301 12.5 15 16.5s12.334 6.83301 20.001 8.5
s16.5 2.5 26.5 2.5h60c11.333 0 21 -0.5 29 -1.5s15 -3.5 21 -7.5s11.167 -9.66699 15.5 -17s8.5 -17 12.5 -29l208 -627c1.33301 -4 1.33301 -8.33301 0 -13s-5.66602 -7 -12.999 -7h-119c-7.33301 -0 -13.5 0.833008 -18.5 2.5s-8.5 6.16699 -10.5 13.5zM248 270h157
l-38 127l-37 143h-6l-38 -143zM503 812c0 -10 -2 -19.333 -6 -28s-9.5 -16.334 -16.5 -23.001s-14.833 -12 -23.5 -16s-18 -6 -28 -6s-19.5 2 -28.5 6s-17 9.33301 -24 16s-12.5 14.334 -16.5 23.001s-6 18 -6 28c0 20 7.5 37.333 22.5 52s32.5 22 52.5 22
c10 0 19.333 -2 28 -6s16.5 -9.33301 23.5 -16s12.5 -14.5 16.5 -23.5s6 -18.5 6 -28.5zM298 812c0 -10 -2 -19.333 -6 -28s-9.5 -16.334 -16.5 -23.001s-15 -12 -24 -16s-18.5 -6 -28.5 -6s-19.333 2 -28 6s-16.5 9.33301 -23.5 16s-12.5 14.334 -16.5 23.001s-6 18 -6 28
s2 19.5 6 28.5s9.5 16.833 16.5 23.5s14.833 12 23.5 16s18 6 28 6s19.5 -2 28.5 -6s17 -9.33301 24 -16s12.5 -14.5 16.5 -23.5s6 -18.5 6 -28.5z" />
    <glyph glyph-name="Aring" unicode="&#xc5;" horiz-adv-x="655" 
d="M441 146h-229l-39 -127c-2 -6.66699 -4.83301 -11.5 -8.5 -14.5s-10.167 -4.5 -19.5 -4.5h-117c-7.33301 0 -11.833 2 -13.5 6s-1.83398 8.66699 -0.500977 14l208 627c3.33301 11.333 7.16602 20.5 11.499 27.5s9.33301 12.5 15 16.5s12.334 6.83301 20.001 8.5
s16.5 2.5 26.5 2.5h60c11.333 0 21 -0.5 29 -1.5s15 -3.5 21 -7.5s11.167 -9.66699 15.5 -17s8.5 -17 12.5 -29l208 -627c1.33301 -4 1.33301 -8.33301 0 -13s-5.66602 -7 -12.999 -7h-119c-7.33301 -0 -13.5 0.833008 -18.5 2.5s-8.5 6.16699 -10.5 13.5zM248 270h157
l-38 127l-37 143h-6l-38 -143zM375 835c0 14 -4.66699 25.667 -14 35s-21 14 -35 14s-25.5 -4.66699 -34.5 -14s-13.5 -21 -13.5 -35c0 -15.333 4.5 -27.5 13.5 -36.5s20.5 -13.5 34.5 -13.5c13.333 0 24.833 4.5 34.5 13.5s14.5 21.167 14.5 36.5zM450 835
c0 -17.333 -3.16602 -33.167 -9.49902 -47.5s-15 -26.833 -26 -37.5s-24.167 -18.834 -39.5 -24.501s-31.666 -8.5 -48.999 -8.5c-34.667 0 -63.834 10.833 -87.501 32.5s-35.5 50.167 -35.5 85.5c0 16.667 3.16699 32.334 9.5 47.001s15 27.167 26 37.5s24 18.5 39 24.5
s31.167 9 48.5 9s33.666 -2.83301 48.999 -8.5s28.5 -13.834 39.5 -24.501s19.667 -23.167 26 -37.5s9.5 -30.166 9.5 -47.499z" />
    <glyph glyph-name="AE" unicode="&#xc6;" horiz-adv-x="925" 
d="M893 21c0 -7.33301 -1.16699 -12.6689 -3.5 -16.002s-7.16602 -5 -14.499 -5h-290c-30.667 0 -56.667 2.83301 -78 8.5s-38.833 14.5 -52.5 26.5s-24.167 27.333 -31.5 46s-12 40.667 -14 66h-192l-42 -128c-2 -6.66699 -4.66699 -11.5 -8 -14.5s-9.33301 -4.5 -18 -4.5
h-121c-5.33301 0 -9.5 1.66699 -12.5 5s-2.83301 8.33301 0.5 15l184 541c8.66699 26 18.834 47.833 30.501 65.5s25.667 32 42 43s35.166 19 56.499 24s46 7.5 74 7.5h460c7.33301 0 12.166 -1.33301 14.499 -4s3.5 -8.66699 3.5 -18v-89
c0 -7.33301 -1.16699 -12.5 -3.5 -15.5s-7.16602 -4.5 -14.499 -4.5h-236c-26.667 0 -44.5 -6.16699 -53.5 -18.5s-13.5 -27.833 -13.5 -46.5v-74h273c7.33301 0 12.166 -1.33301 14.499 -4s3.5 -8.66699 3.5 -18v-82c0 -7.33301 -1.16699 -12.666 -3.5 -15.999
s-7.16602 -5 -14.499 -5h-273v-111c0 -23.333 5.83301 -39.666 17.5 -48.999s28.167 -14 49.5 -14h248c7.33301 0 12.166 -1.33301 14.499 -4s3.5 -8.66699 3.5 -18v-89zM252 265.997h157v251c0 11.333 0.5 22.5 1.5 33.5s3.16699 20.167 6.5 27.5
c-27.333 0 -46.5 -4.5 -57.5 -13.5s-18.833 -20.5 -23.5 -34.5l-35 -106z" />
    <glyph glyph-name="Ccedilla" unicode="&#xc7;" horiz-adv-x="643" 
d="M388 127c32 0 60.332 3.83496 84.999 11.502s47.667 15.5 69 23.5c9.33301 4 16 4.83301 20 2.5s7.66699 -7.16602 11 -14.499l34 -72c4.66699 -9.33301 6.33398 -16.333 5.00098 -21s-5 -8.66699 -11 -12c-32.667 -20 -66.834 -34 -102.501 -42
s-71.167 -12.667 -106.5 -14l-17 -43c24.667 -1.33301 45.167 -5 61.5 -11s29.5 -13.333 39.5 -22s17 -18.167 21 -28.5s6 -20.833 6 -31.5c0 -13.333 -2.5 -26.333 -7.5 -39s-13 -24 -24 -34s-25.167 -18 -42.5 -24s-38.666 -9 -63.999 -9
c-10.667 0 -21.667 0.666992 -33 2s-22.333 3 -33 5s-20.667 4.33301 -30 7s-17.333 5.33398 -24 8.00098c-5.33301 2 -8.16602 4.33301 -8.49902 7s0.5 7.33398 2.5 14.001l12 36c2.66699 7.33301 5 11.166 7 11.499s5.66699 -0.166992 11 -1.5
c13.333 -4.66699 25.666 -8.16699 36.999 -10.5s23.333 -3.5 36 -3.5c16 0 28.667 2.66699 38 8s14 14 14 26c0 11.333 -5.66699 19.333 -17 24s-25.333 7 -42 7c-11.333 0 -18.833 0.166992 -22.5 0.5s-7.16699 2.16602 -10.5 5.49902
c-4 3.33301 -5.66699 7.66602 -5 12.999s2 11 4 17l26 68c-47.333 4 -88 15.167 -122 33.5s-62.167 42.666 -84.5 72.999s-38.833 66.333 -49.5 108s-16 88.5 -16 140.5c0 54.667 7.83301 104.334 23.5 149.001s37.5 83 65.5 115s61.833 56.667 101.5 74s83.5 26 131.5 26
c34 0 67.333 -2.83301 100 -8.5s64.667 -17.167 96 -34.5c7.33301 -4 11.666 -8 12.999 -12s-0.333984 -11.667 -5.00098 -23l-31 -69c-3.33301 -9.33301 -6.83301 -15 -10.5 -17s-10.167 -1.33301 -19.5 2c-24 8.66699 -46.333 15.167 -67 19.5s-43.667 6.5 -69 6.5
c-27.333 0 -51.5 -5.83301 -72.5 -17.5s-38.667 -27.667 -53 -48s-25.166 -44.333 -32.499 -72s-11 -57.834 -11 -90.501s2.83301 -62.334 8.5 -89.001s15.334 -49.667 29.001 -69s31.5 -34.333 53.5 -45s49.333 -16 82 -16z" />
    <glyph glyph-name="Egrave" unicode="&#xc8;" horiz-adv-x="613" 
d="M576 23c0 -8 -1.33203 -13.835 -3.99902 -17.502s-8 -5.5 -16 -5.5h-296c-37.333 0 -67.833 5.33301 -91.5 16s-42.5 24.667 -56.5 42s-23.667 37 -29 59s-8 44.333 -8 67v332c0 24 3.33301 47 10 69s17.167 41.667 31.5 59s33.166 31.166 56.499 41.499s52 15.5 86 15.5
h287c8 0 13.167 -1.66699 15.5 -5s3.5 -9.66602 3.5 -18.999v-85c0 -8.66699 -1.33301 -14.5 -4 -17.5s-7.66699 -4.5 -15 -4.5h-254c-26 0 -43.333 -6 -52 -18s-13 -26.667 -13 -44v-77h287c8 0 13.167 -1.66699 15.5 -5s3.5 -9.66602 3.5 -18.999v-78
c0 -8 -1.16699 -13.833 -3.5 -17.5s-7.5 -5.5 -15.5 -5.5h-287v-114c0 -23.333 5.5 -39.166 16.5 -47.499s27.167 -12.5 48.5 -12.5h264c8.66699 0 14.167 -1.5 16.5 -4.5s3.5 -9.5 3.5 -19.5v-85zM430.001 809.998c5.33301 -4.66699 7.83301 -8.33398 7.5 -11.001
s-2.16602 -6 -5.49902 -10l-38 -46c-3.33301 -3.33301 -6.5 -5.5 -9.5 -6.5s-7.83301 0.166992 -14.5 3.5l-193 99c-4 1.33301 -6.33301 3.83301 -7 7.5s1 7.5 5 11.5l69 79c5.33301 5.33301 9.66602 7.33301 12.999 6s7 -3.66602 11 -6.99902z" />
    <glyph glyph-name="Eacute" unicode="&#xc9;" horiz-adv-x="613" 
d="M576 23c0 -8 -1.33203 -13.835 -3.99902 -17.502s-8 -5.5 -16 -5.5h-296c-37.333 0 -67.833 5.33301 -91.5 16s-42.5 24.667 -56.5 42s-23.667 37 -29 59s-8 44.333 -8 67v332c0 24 3.33301 47 10 69s17.167 41.667 31.5 59s33.166 31.166 56.499 41.499s52 15.5 86 15.5
h287c8 0 13.167 -1.66699 15.5 -5s3.5 -9.66602 3.5 -18.999v-85c0 -8.66699 -1.33301 -14.5 -4 -17.5s-7.66699 -4.5 -15 -4.5h-254c-26 0 -43.333 -6 -52 -18s-13 -26.667 -13 -44v-77h287c8 0 13.167 -1.66699 15.5 -5s3.5 -9.66602 3.5 -18.999v-78
c0 -8 -1.16699 -13.833 -3.5 -17.5s-7.5 -5.5 -15.5 -5.5h-287v-114c0 -23.333 5.5 -39.166 16.5 -47.499s27.167 -12.5 48.5 -12.5h264c8.66699 0 14.167 -1.5 16.5 -4.5s3.5 -9.5 3.5 -19.5v-85zM421.001 935.998c4 3.33301 7.66699 5.66602 11 6.99902
s7.66602 -0.666992 12.999 -6l69 -79c4 -4 5.66699 -7.83301 5 -11.5s-3 -6.16699 -7 -7.5l-193 -99c-6.66699 -3.33301 -11.5 -4.5 -14.5 -3.5s-6.16699 3.16699 -9.5 6.5l-38 46c-3.33301 4 -5.16602 7.33301 -5.49902 10s2.16699 6.33398 7.5 11.001z" />
    <glyph glyph-name="Ecircumflex" unicode="&#xca;" horiz-adv-x="613" 
d="M576 23c0 -8 -1.33203 -13.835 -3.99902 -17.502s-8 -5.5 -16 -5.5h-296c-37.333 0 -67.833 5.33301 -91.5 16s-42.5 24.667 -56.5 42s-23.667 37 -29 59s-8 44.333 -8 67v332c0 24 3.33301 47 10 69s17.167 41.667 31.5 59s33.166 31.166 56.499 41.499s52 15.5 86 15.5
h287c8 0 13.167 -1.66699 15.5 -5s3.5 -9.66602 3.5 -18.999v-85c0 -8.66699 -1.33301 -14.5 -4 -17.5s-7.66699 -4.5 -15 -4.5h-254c-26 0 -43.333 -6 -52 -18s-13 -26.667 -13 -44v-77h287c8 0 13.167 -1.66699 15.5 -5s3.5 -9.66602 3.5 -18.999v-78
c0 -8 -1.16699 -13.833 -3.5 -17.5s-7.5 -5.5 -15.5 -5.5h-287v-114c0 -23.333 5.5 -39.166 16.5 -47.499s27.167 -12.5 48.5 -12.5h264c8.66699 0 14.167 -1.5 16.5 -4.5s3.5 -9.5 3.5 -19.5v-85zM539.001 795.998c6 -5.33301 9.00098 -9.83301 9.00098 -13.5
s-2.33301 -7.83398 -7 -12.501l-28 -31c-4 -4.66699 -8.33301 -6.5 -13 -5.5s-9.66699 3.16699 -15 6.5l-142 77l-138 -75c-5.33301 -3.33301 -10 -5.16602 -14 -5.49902s-8.33301 2.16699 -13 7.5l-26 27c-4 5.33301 -6.16699 9.5 -6.5 12.5s1.83398 6.83301 6.50098 11.5
l133 115c9.33301 8 19.166 14.333 29.499 19s19.833 7 28.5 7c19.333 0 39.666 -8.66699 60.999 -26z" />
    <glyph glyph-name="Edieresis" unicode="&#xcb;" horiz-adv-x="613" 
d="M576 23c0 -8 -1.33203 -13.835 -3.99902 -17.502s-8 -5.5 -16 -5.5h-296c-37.333 0 -67.833 5.33301 -91.5 16s-42.5 24.667 -56.5 42s-23.667 37 -29 59s-8 44.333 -8 67v332c0 24 3.33301 47 10 69s17.167 41.667 31.5 59s33.166 31.166 56.499 41.499s52 15.5 86 15.5
h287c8 0 13.167 -1.66699 15.5 -5s3.5 -9.66602 3.5 -18.999v-85c0 -8.66699 -1.33301 -14.5 -4 -17.5s-7.66699 -4.5 -15 -4.5h-254c-26 0 -43.333 -6 -52 -18s-13 -26.667 -13 -44v-77h287c8 0 13.167 -1.66699 15.5 -5s3.5 -9.66602 3.5 -18.999v-78
c0 -8 -1.16699 -13.833 -3.5 -17.5s-7.5 -5.5 -15.5 -5.5h-287v-114c0 -23.333 5.5 -39.166 16.5 -47.499s27.167 -12.5 48.5 -12.5h264c8.66699 0 14.167 -1.5 16.5 -4.5s3.5 -9.5 3.5 -19.5v-85zM531.001 811.998c0 -10 -2 -19.333 -6 -28s-9.5 -16.334 -16.5 -23.001
s-14.833 -12 -23.5 -16s-18 -6 -28 -6s-19.5 2 -28.5 6s-17 9.33301 -24 16s-12.5 14.334 -16.5 23.001s-6 18 -6 28c0 20 7.5 37.333 22.5 52s32.5 22 52.5 22c10 0 19.333 -2 28 -6s16.5 -9.33301 23.5 -16s12.5 -14.5 16.5 -23.5s6 -18.5 6 -28.5zM326.001 811.998
c0 -10 -2 -19.333 -6 -28s-9.5 -16.334 -16.5 -23.001s-15 -12 -24 -16s-18.5 -6 -28.5 -6s-19.333 2 -28 6s-16.5 9.33301 -23.5 16s-12.5 14.334 -16.5 23.001s-6 18 -6 28s2 19.5 6 28.5s9.5 16.833 16.5 23.5s14.833 12 23.5 16s18 6 28 6s19.5 -2 28.5 -6
s17 -9.33301 24 -16s12.5 -14.5 16.5 -23.5s6 -18.5 6 -28.5z" />
    <glyph glyph-name="Igrave" unicode="&#xcc;" horiz-adv-x="329" 
d="M241 21c0 -8.66699 -1.5 -14.332 -4.5 -16.999s-9.5 -4 -19.5 -4h-106c-8 0 -13.833 1.5 -17.5 4.5s-5.5 8.5 -5.5 16.5v658c0 8 1.83301 13.5 5.5 16.5s9.5 4.5 17.5 4.5h106c10 0 16.5 -1.33301 19.5 -4s4.5 -8.33398 4.5 -17.001v-658zM232 810.002
c5.33301 -4.66699 7.83301 -8.33398 7.5 -11.001s-2.16602 -6 -5.49902 -10l-38 -46c-3.33301 -3.33301 -6.5 -5.5 -9.5 -6.5s-7.83301 0.166992 -14.5 3.5l-193 99c-4 1.33301 -6.33301 3.83301 -7 7.5s1 7.5 5 11.5l69 79c5.33301 5.33301 9.66602 7.33301 12.999 6
s7 -3.66602 11 -6.99902z" />
    <glyph glyph-name="Iacute" unicode="&#xcd;" horiz-adv-x="329" 
d="M241 21c0 -8.66699 -1.5 -14.332 -4.5 -16.999s-9.5 -4 -19.5 -4h-106c-8 0 -13.833 1.5 -17.5 4.5s-5.5 8.5 -5.5 16.5v658c0 8 1.83301 13.5 5.5 16.5s9.5 4.5 17.5 4.5h106c10 0 16.5 -1.33301 19.5 -4s4.5 -8.33398 4.5 -17.001v-658zM251 936.002
c4 3.33301 7.66699 5.66602 11 6.99902s7.66602 -0.666992 12.999 -6l69 -79c4 -4 5.66699 -7.83301 5 -11.5s-3 -6.16699 -7 -7.5l-193 -99c-6.66699 -3.33301 -11.5 -4.5 -14.5 -3.5s-6.16699 3.16699 -9.5 6.5l-38 46c-3.33301 4 -5.16602 7.33301 -5.49902 10
s2.16699 6.33398 7.5 11.001z" />
    <glyph glyph-name="Icircumflex" unicode="&#xce;" horiz-adv-x="329" 
d="M241 21c0 -8.66699 -1.5 -14.332 -4.5 -16.999s-9.5 -4 -19.5 -4h-106c-8 0 -13.833 1.5 -17.5 4.5s-5.5 8.5 -5.5 16.5v658c0 8 1.83301 13.5 5.5 16.5s9.5 4.5 17.5 4.5h106c10 0 16.5 -1.33301 19.5 -4s4.5 -8.33398 4.5 -17.001v-658zM360 796.002
c6 -5.33301 9.00098 -9.83301 9.00098 -13.5s-2.33301 -7.83398 -7 -12.501l-28 -31c-4 -4.66699 -8.33301 -6.5 -13 -5.5s-9.66699 3.16699 -15 6.5l-142 77l-138 -75c-5.33301 -3.33301 -10 -5.16602 -14 -5.49902s-8.33301 2.16699 -13 7.5l-26 27
c-4 5.33301 -6.16699 9.5 -6.5 12.5s1.83398 6.83301 6.50098 11.5l133 115c9.33301 8 19.166 14.333 29.499 19s19.833 7 28.5 7c19.333 0 39.666 -8.66699 60.999 -26z" />
    <glyph glyph-name="Idieresis" unicode="&#xcf;" horiz-adv-x="329" 
d="M241 21c0 -8.66699 -1.5 -14.332 -4.5 -16.999s-9.5 -4 -19.5 -4h-106c-8 0 -13.833 1.5 -17.5 4.5s-5.5 8.5 -5.5 16.5v658c0 8 1.83301 13.5 5.5 16.5s9.5 4.5 17.5 4.5h106c10 0 16.5 -1.33301 19.5 -4s4.5 -8.33398 4.5 -17.001v-658zM343 815.002
c0 -10 -2 -19.333 -6 -28s-9.5 -16.334 -16.5 -23.001s-14.833 -12 -23.5 -16s-18 -6 -28 -6s-19.5 2 -28.5 6s-17 9.33301 -24 16s-12.5 14.334 -16.5 23.001s-6 18 -6 28c0 20 7.5 37.333 22.5 52s32.5 22 52.5 22c10 0 19.333 -2 28 -6s16.5 -9.33301 23.5 -16
s12.5 -14.5 16.5 -23.5s6 -18.5 6 -28.5zM138 815.002c0 -10 -2 -19.333 -6 -28s-9.5 -16.334 -16.5 -23.001s-15 -12 -24 -16s-18.5 -6 -28.5 -6s-19.333 2 -28 6s-16.5 9.33301 -23.5 16s-12.5 14.334 -16.5 23.001s-6 18 -6 28s2 19.5 6 28.5s9.5 16.833 16.5 23.5
s14.833 12 23.5 16s18 6 28 6s19.5 -2 28.5 -6s17 -9.33301 24 -16s12.5 -14.5 16.5 -23.5s6 -18.5 6 -28.5z" />
    <glyph glyph-name="Eth" unicode="&#xd0;" horiz-adv-x="697" 
d="M141 0c-24 0 -40.999 4.83301 -50.999 14.5s-15 25.167 -15 46.5v246h-41c-13.333 0 -20 7 -20 21v54c0 8.66699 1.5 14.334 4.5 17.001s8.16699 4 15.5 4h41v236c0 21.333 5 37 15 47s27 15 51 15h181c58.667 0 108.334 -9.33301 149.001 -28s73.667 -43.667 99 -75
s43.666 -68.166 54.999 -110.499s17 -86.833 17 -133.5c0 -46 -5 -90.333 -15 -133s-27 -80.334 -51 -113.001s-55.833 -58.834 -95.5 -78.501s-88.834 -29.5 -147.501 -29.5h-192zM485.001 354c0 30.667 -2.66699 59.001 -8 85.001s-14.833 48.5 -28.5 67.5
s-32.167 34 -55.5 45s-52.666 16.5 -87.999 16.5h-77v-165h116c7.33301 0 12.333 -1.33301 15 -4s4 -8.33398 4 -17.001v-54c0 -14 -6.33301 -21 -19 -21h-116v-173h80c34.667 0 63.5 5.5 86.5 16.5s41.167 26.167 54.5 45.5s22.666 42.5 27.999 69.5s8 56.5 8 88.5z" />
    <glyph glyph-name="Ntilde" unicode="&#xd1;" horiz-adv-x="744" 
d="M226 435v-414c0 -8.66699 -1.5 -14.334 -4.5 -17.001s-9.16699 -4 -18.5 -4h-105c-8 0 -13.833 1.5 -17.5 4.5s-5.5 8.5 -5.5 16.5v610c0 26 4.66699 44.167 14 54.5s26.333 15.5 51 15.5h42c10 0 18.5 -0.5 25.5 -1.5s13.167 -3.16699 18.5 -6.5s10.333 -8 15 -14
s10 -13.667 16 -23l170 -259l86 -135h5v418c0 8 1.5 13.5 4.5 16.5s9.16699 4.5 18.5 4.5h105c15.333 0 23 -7 23 -21v-611c0 -21.333 -4.33301 -38.166 -13 -50.499s-26 -18.5 -52 -18.5h-42c-10 0 -18.5 0.5 -25.5 1.5s-13.167 3.16699 -18.5 6.5
s-10.333 7.83301 -15 13.5s-10 13.167 -16 22.5l-160 242l-96 149h-5zM443 754c-12 0 -24.0039 2.16992 -36.0039 6.50293s-23.667 9 -35 14s-22.666 9.66699 -33.999 14s-23 6.5 -35 6.5c-18 0 -33.667 -10.333 -47 -31c-4 -6 -7.5 -9.83301 -10.5 -11.5
s-7.16699 -0.833984 -12.5 2.49902l-44 25c-6 3.33301 -9.16699 6.66602 -9.5 9.99902s0.833984 7.66602 3.50098 12.999c12.667 25.333 28.167 45.833 46.5 61.5s42.5 23.5 72.5 23.5c12.667 0 24.667 -2.16699 36 -6.5s22.5 -9 33.5 -14s21.833 -9.5 32.5 -13.5
s21.334 -6 32.001 -6s19.5 2.5 26.5 7.5s13.833 13.167 20.5 24.5c4 7.33301 7 11.333 9 12s6 0 12 -2l50 -17c6.66699 -2 10.334 -4.5 11.001 -7.5s-0.333008 -7.83301 -3 -14.5c-12.667 -28 -28.167 -51.167 -46.5 -69.5s-42.5 -27.5 -72.5 -27.5z" />
    <glyph glyph-name="Ograve" unicode="&#xd2;" horiz-adv-x="730" 
d="M675 352c0 -57.333 -6.16797 -108.336 -18.501 -153.003s-31.5 -82.667 -57.5 -114s-58.667 -55.166 -98 -71.499s-86 -24.5 -140 -24.5c-103.333 0 -180.166 31.333 -230.499 94s-75.5 151.334 -75.5 266.001c0 56 7.16699 106.5 21.5 151.5s34.833 83 61.5 114
s59 54.833 97 71.5s81 25 129 25c52 0 97.5 -8.33301 136.5 -25s71.333 -40.5 97 -71.5s45 -68.667 58 -113s19.5 -94.166 19.5 -149.499zM515.999 348.997c0 30 -2.16699 58.668 -6.5 86.001s-12.166 51.333 -23.499 72s-26.666 37.167 -45.999 49.5s-44.333 18.5 -75 18.5
c-25.333 0 -47.5 -5.83301 -66.5 -17.5s-34.833 -27.5 -47.5 -47.5s-22 -43.333 -28 -70s-9 -55 -9 -85c0 -35.333 2.5 -67 7.5 -95s13.333 -52 25 -72s27.167 -35.333 46.5 -46s43.666 -16 72.999 -16c28.667 0 52.667 6.16699 72 18.5s34.666 28.666 45.999 48.999
s19.5 44 24.5 71s7.5 55.167 7.5 84.5zM445.999 812.998c5.33301 -4.66699 7.83301 -8.33398 7.5 -11.001s-2.16602 -6 -5.49902 -10l-38 -46c-3.33301 -3.33301 -6.5 -5.5 -9.5 -6.5s-7.83301 0.166992 -14.5 3.5l-193 99c-4 1.33301 -6.33301 3.83301 -7 7.5s1 7.5 5 11.5
l69 79c5.33301 5.33301 9.66602 7.33301 12.999 6s7 -3.66602 11 -6.99902z" />
    <glyph glyph-name="Oacute" unicode="&#xd3;" horiz-adv-x="730" 
d="M675 352c0 -57.333 -6.16797 -108.336 -18.501 -153.003s-31.5 -82.667 -57.5 -114s-58.667 -55.166 -98 -71.499s-86 -24.5 -140 -24.5c-103.333 0 -180.166 31.333 -230.499 94s-75.5 151.334 -75.5 266.001c0 56 7.16699 106.5 21.5 151.5s34.833 83 61.5 114
s59 54.833 97 71.5s81 25 129 25c52 0 97.5 -8.33301 136.5 -25s71.333 -40.5 97 -71.5s45 -68.667 58 -113s19.5 -94.166 19.5 -149.499zM515.999 348.997c0 30 -2.16699 58.668 -6.5 86.001s-12.166 51.333 -23.499 72s-26.666 37.167 -45.999 49.5s-44.333 18.5 -75 18.5
c-25.333 0 -47.5 -5.83301 -66.5 -17.5s-34.833 -27.5 -47.5 -47.5s-22 -43.333 -28 -70s-9 -55 -9 -85c0 -35.333 2.5 -67 7.5 -95s13.333 -52 25 -72s27.167 -35.333 46.5 -46s43.666 -16 72.999 -16c28.667 0 52.667 6.16699 72 18.5s34.666 28.666 45.999 48.999
s19.5 44 24.5 71s7.5 55.167 7.5 84.5zM467.999 941.998c4 3.33301 7.66699 5.66602 11 6.99902s7.66602 -0.666992 12.999 -6l69 -79c4 -4 5.66699 -7.83301 5 -11.5s-3 -6.16699 -7 -7.5l-193 -99c-6.66699 -3.33301 -11.5 -4.5 -14.5 -3.5s-6.16699 3.16699 -9.5 6.5
l-38 46c-3.33301 4 -5.16602 7.33301 -5.49902 10s2.16699 6.33398 7.5 11.001z" />
    <glyph glyph-name="Ocircumflex" unicode="&#xd4;" horiz-adv-x="730" 
d="M675 352c0 -57.333 -6.16797 -108.336 -18.501 -153.003s-31.5 -82.667 -57.5 -114s-58.667 -55.166 -98 -71.499s-86 -24.5 -140 -24.5c-103.333 0 -180.166 31.333 -230.499 94s-75.5 151.334 -75.5 266.001c0 56 7.16699 106.5 21.5 151.5s34.833 83 61.5 114
s59 54.833 97 71.5s81 25 129 25c52 0 97.5 -8.33301 136.5 -25s71.333 -40.5 97 -71.5s45 -68.667 58 -113s19.5 -94.166 19.5 -149.499zM515.999 348.997c0 30 -2.16699 58.668 -6.5 86.001s-12.166 51.333 -23.499 72s-26.666 37.167 -45.999 49.5s-44.333 18.5 -75 18.5
c-25.333 0 -47.5 -5.83301 -66.5 -17.5s-34.833 -27.5 -47.5 -47.5s-22 -43.333 -28 -70s-9 -55 -9 -85c0 -35.333 2.5 -67 7.5 -95s13.333 -52 25 -72s27.167 -35.333 46.5 -46s43.666 -16 72.999 -16c28.667 0 52.667 6.16699 72 18.5s34.666 28.666 45.999 48.999
s19.5 44 24.5 71s7.5 55.167 7.5 84.5zM554.999 795.998c6 -5.33301 9.00098 -9.83301 9.00098 -13.5s-2.33301 -7.83398 -7 -12.501l-28 -31c-4 -4.66699 -8.33301 -6.5 -13 -5.5s-9.66699 3.16699 -15 6.5l-142 77l-138 -75c-5.33301 -3.33301 -10 -5.16602 -14 -5.49902
s-8.33301 2.16699 -13 7.5l-26 27c-4 5.33301 -6.16699 9.5 -6.5 12.5s1.83398 6.83301 6.50098 11.5l133 115c9.33301 8 19.166 14.333 29.499 19s19.833 7 28.5 7c19.333 0 39.666 -8.66699 60.999 -26z" />
    <glyph glyph-name="Otilde" unicode="&#xd5;" horiz-adv-x="730" 
d="M675 352c0 -57.333 -6.16797 -108.336 -18.501 -153.003s-31.5 -82.667 -57.5 -114s-58.667 -55.166 -98 -71.499s-86 -24.5 -140 -24.5c-103.333 0 -180.166 31.333 -230.499 94s-75.5 151.334 -75.5 266.001c0 56 7.16699 106.5 21.5 151.5s34.833 83 61.5 114
s59 54.833 97 71.5s81 25 129 25c52 0 97.5 -8.33301 136.5 -25s71.333 -40.5 97 -71.5s45 -68.667 58 -113s19.5 -94.166 19.5 -149.499zM515.999 348.997c0 30 -2.16699 58.668 -6.5 86.001s-12.166 51.333 -23.499 72s-26.666 37.167 -45.999 49.5s-44.333 18.5 -75 18.5
c-25.333 0 -47.5 -5.83301 -66.5 -17.5s-34.833 -27.5 -47.5 -47.5s-22 -43.333 -28 -70s-9 -55 -9 -85c0 -35.333 2.5 -67 7.5 -95s13.333 -52 25 -72s27.167 -35.333 46.5 -46s43.666 -16 72.999 -16c28.667 0 52.667 6.16699 72 18.5s34.666 28.666 45.999 48.999
s19.5 44 24.5 71s7.5 55.167 7.5 84.5zM437.999 752.998c-12 0 -24.0039 2.16992 -36.0039 6.50293s-23.667 9 -35 14s-22.666 9.66699 -33.999 14s-23 6.5 -35 6.5c-18 0 -33.667 -10.333 -47 -31c-4 -6 -7.5 -9.83301 -10.5 -11.5s-7.16699 -0.833984 -12.5 2.49902
l-44 25c-6 3.33301 -9.16699 6.66602 -9.5 9.99902s0.833984 7.66602 3.50098 12.999c12.667 25.333 28.167 45.833 46.5 61.5s42.5 23.5 72.5 23.5c12.667 0 24.667 -2.16699 36 -6.5s22.5 -9 33.5 -14s21.833 -9.5 32.5 -13.5s21.334 -6 32.001 -6s19.5 2.5 26.5 7.5
s13.833 13.167 20.5 24.5c4 7.33301 7 11.333 9 12s6 0 12 -2l50 -17c6.66699 -2 10.334 -4.5 11.001 -7.5s-0.333008 -7.83301 -3 -14.5c-12.667 -28 -28.167 -51.167 -46.5 -69.5s-42.5 -27.5 -72.5 -27.5z" />
    <glyph glyph-name="Odieresis" unicode="&#xd6;" horiz-adv-x="730" 
d="M675 352c0 -57.333 -6.16797 -108.336 -18.501 -153.003s-31.5 -82.667 -57.5 -114s-58.667 -55.166 -98 -71.499s-86 -24.5 -140 -24.5c-103.333 0 -180.166 31.333 -230.499 94s-75.5 151.334 -75.5 266.001c0 56 7.16699 106.5 21.5 151.5s34.833 83 61.5 114
s59 54.833 97 71.5s81 25 129 25c52 0 97.5 -8.33301 136.5 -25s71.333 -40.5 97 -71.5s45 -68.667 58 -113s19.5 -94.166 19.5 -149.499zM515.999 348.997c0 30 -2.16699 58.668 -6.5 86.001s-12.166 51.333 -23.499 72s-26.666 37.167 -45.999 49.5s-44.333 18.5 -75 18.5
c-25.333 0 -47.5 -5.83301 -66.5 -17.5s-34.833 -27.5 -47.5 -47.5s-22 -43.333 -28 -70s-9 -55 -9 -85c0 -35.333 2.5 -67 7.5 -95s13.333 -52 25 -72s27.167 -35.333 46.5 -46s43.666 -16 72.999 -16c28.667 0 52.667 6.16699 72 18.5s34.666 28.666 45.999 48.999
s19.5 44 24.5 71s7.5 55.167 7.5 84.5zM542.999 816.998c0 -10 -2 -19.333 -6 -28s-9.5 -16.334 -16.5 -23.001s-14.833 -12 -23.5 -16s-18 -6 -28 -6s-19.5 2 -28.5 6s-17 9.33301 -24 16s-12.5 14.334 -16.5 23.001s-6 18 -6 28c0 20 7.5 37.333 22.5 52s32.5 22 52.5 22
c10 0 19.333 -2 28 -6s16.5 -9.33301 23.5 -16s12.5 -14.5 16.5 -23.5s6 -18.5 6 -28.5zM337.999 816.998c0 -10 -2 -19.333 -6 -28s-9.5 -16.334 -16.5 -23.001s-15 -12 -24 -16s-18.5 -6 -28.5 -6s-19.333 2 -28 6s-16.5 9.33301 -23.5 16s-12.5 14.334 -16.5 23.001
s-6 18 -6 28s2 19.5 6 28.5s9.5 16.833 16.5 23.5s14.833 12 23.5 16s18 6 28 6s19.5 -2 28.5 -6s17 -9.33301 24 -16s12.5 -14.5 16.5 -23.5s6 -18.5 6 -28.5z" />
    <glyph glyph-name="multiply" unicode="&#xd7;" horiz-adv-x="653" 
d="M105 179c-10 9.33301 -9.99902 18.9961 0.000976562 28.9961l136 136l-134 134c-10 10 -10 19.667 0 29l55 55c6.66699 6.66699 12 9.83398 16 9.50098s8.66699 -3.16602 14 -8.49902l134 -135l135 136c9.33301 9.33301 19 9.33301 29 0l57 -56
c6 -7.33301 8.83301 -12.833 8.5 -16.5s-3.16602 -8.16699 -8.49902 -13.5l-135 -135l133 -133c5.33301 -6 8.16602 -11 8.49902 -15s-2.83398 -9.33301 -9.50098 -16l-54 -55c-10 -9.33301 -19.667 -9.33301 -29 0l-134 134l-136 -136
c-5.33301 -5.33301 -10 -8.16602 -14 -8.49902s-9.33301 2.83398 -16 9.50098l-56 56v0z" />
    <glyph glyph-name="Oslash" unicode="&#xd8;" horiz-adv-x="730" 
d="M112 4c-4.66699 -5.33301 -8.33496 -8.16895 -11.002 -8.50195s-5.66699 1.16699 -9 4.5l-22 18c-4.66699 3.33301 -7 6.33301 -7 9s2.33301 7 7 13l48 59c-42 60.667 -63 144 -63 250c0 56 7.16699 106.5 21.5 151.5s34.833 83 61.5 114s59 54.833 97 71.5s81 25 129 25
c42 0 79.5 -5.5 112.5 -16.5s62.167 -26.833 87.5 -47.5l42 52c8 10.667 15.667 12.334 23 5.00098l21 -17c4 -3.33301 6.33301 -6.5 7 -9.5s-1.66602 -7.16699 -6.99902 -12.5l-47 -58c24 -31.333 42 -68.333 54 -111s18 -90.667 18 -144
c0 -57.333 -6.16699 -108.333 -18.5 -153s-31.5 -82.667 -57.5 -114s-58.667 -55.166 -98 -71.499s-86 -24.5 -140 -24.5c-87.333 0 -155.666 22.667 -204.999 68zM515.999 348.997c-0.666992 23.333 -2.33301 46.002 -5 68.002s-7.66699 42.333 -15 61l-241 -301
c12 -16.667 27.167 -29.334 45.5 -38.001s40.833 -13 67.5 -13c28.667 0 52.5 6.16699 71.5 18.5s34.167 28.666 45.5 48.999s19.333 44 24 71s7 55.167 7 84.5zM214 354.999c0 -23.333 1.16699 -45 3.5 -65s6.5 -38.333 12.5 -55l238 297
c-11.333 13.333 -25.5 23.833 -42.5 31.5s-37.167 11.5 -60.5 11.5c-25.333 0 -47.5 -5.83301 -66.5 -17.5s-34.833 -27.5 -47.5 -47.5s-22 -43.333 -28 -70s-9 -55 -9 -85z" />
    <glyph glyph-name="Ugrave" unicode="&#xd9;" horiz-adv-x="717" 
d="M642 97c0 -23.333 -5.16699 -43.333 -15.5 -60s-29.5 -28.667 -57.5 -36c-13.333 -3.33301 -28 -5.83301 -44 -7.5s-32 -2.83398 -48 -3.50098s-31 -1.16699 -45 -1.5s-25.333 -0.5 -34 -0.5c-57.333 0 -106.5 4.83301 -147.5 14.5s-74.5 26.167 -100.5 49.5
s-45 54.333 -57 93s-18 87.334 -18 146.001l-1 388c0 8 2 13.5 6 16.5s9.66699 4.5 17 4.5h107c10 0 16.5 -1.33301 19.5 -4s4.5 -8.33398 4.5 -17.001v-397c0 -27.333 2.33301 -51.166 7 -71.499s13 -37.166 25 -50.499s28.167 -23.166 48.5 -29.499s46.5 -9.5 78.5 -9.5
c4.66699 0 11 0.166992 19 0.5s16.833 0.666016 26.5 0.999023s19.667 1 30 2s19.833 2.5 28.5 4.5v550c0 8 1.83301 13.5 5.5 16.5s9.5 4.5 17.5 4.5h106c10 0 16.167 -1.33301 18.5 -4s3.5 -8.33398 3.5 -17.001v-582zM444 810
c5.33301 -4.66699 7.83301 -8.33398 7.5 -11.001s-2.16602 -6 -5.49902 -10l-38 -46c-3.33301 -3.33301 -6.5 -5.5 -9.5 -6.5s-7.83301 0.166992 -14.5 3.5l-193 99c-4 1.33301 -6.33301 3.83301 -7 7.5s1 7.5 5 11.5l69 79c5.33301 5.33301 9.66602 7.33301 12.999 6
s7 -3.66602 11 -6.99902z" />
    <glyph glyph-name="Uacute" unicode="&#xda;" horiz-adv-x="717" 
d="M642 97c0 -23.333 -5.16699 -43.333 -15.5 -60s-29.5 -28.667 -57.5 -36c-13.333 -3.33301 -28 -5.83301 -44 -7.5s-32 -2.83398 -48 -3.50098s-31 -1.16699 -45 -1.5s-25.333 -0.5 -34 -0.5c-57.333 0 -106.5 4.83301 -147.5 14.5s-74.5 26.167 -100.5 49.5
s-45 54.333 -57 93s-18 87.334 -18 146.001l-1 388c0 8 2 13.5 6 16.5s9.66699 4.5 17 4.5h107c10 0 16.5 -1.33301 19.5 -4s4.5 -8.33398 4.5 -17.001v-397c0 -27.333 2.33301 -51.166 7 -71.499s13 -37.166 25 -50.499s28.167 -23.166 48.5 -29.499s46.5 -9.5 78.5 -9.5
c4.66699 0 11 0.166992 19 0.5s16.833 0.666016 26.5 0.999023s19.667 1 30 2s19.833 2.5 28.5 4.5v550c0 8 1.83301 13.5 5.5 16.5s9.5 4.5 17.5 4.5h106c10 0 16.167 -1.33301 18.5 -4s3.5 -8.33398 3.5 -17.001v-582zM451 936c4 3.33301 7.66699 5.66602 11 6.99902
s7.66602 -0.666992 12.999 -6l69 -79c4 -4 5.66699 -7.83301 5 -11.5s-3 -6.16699 -7 -7.5l-193 -99c-6.66699 -3.33301 -11.5 -4.5 -14.5 -3.5s-6.16699 3.16699 -9.5 6.5l-38 46c-3.33301 4 -5.16602 7.33301 -5.49902 10s2.16699 6.33398 7.5 11.001z" />
    <glyph glyph-name="Ucircumflex" unicode="&#xdb;" horiz-adv-x="717" 
d="M642 97c0 -23.333 -5.16699 -43.333 -15.5 -60s-29.5 -28.667 -57.5 -36c-13.333 -3.33301 -28 -5.83301 -44 -7.5s-32 -2.83398 -48 -3.50098s-31 -1.16699 -45 -1.5s-25.333 -0.5 -34 -0.5c-57.333 0 -106.5 4.83301 -147.5 14.5s-74.5 26.167 -100.5 49.5
s-45 54.333 -57 93s-18 87.334 -18 146.001l-1 388c0 8 2 13.5 6 16.5s9.66699 4.5 17 4.5h107c10 0 16.5 -1.33301 19.5 -4s4.5 -8.33398 4.5 -17.001v-397c0 -27.333 2.33301 -51.166 7 -71.499s13 -37.166 25 -50.499s28.167 -23.166 48.5 -29.499s46.5 -9.5 78.5 -9.5
c4.66699 0 11 0.166992 19 0.5s16.833 0.666016 26.5 0.999023s19.667 1 30 2s19.833 2.5 28.5 4.5v550c0 8 1.83301 13.5 5.5 16.5s9.5 4.5 17.5 4.5h106c10 0 16.167 -1.33301 18.5 -4s3.5 -8.33398 3.5 -17.001v-582zM557 796c6 -5.33301 9.00098 -9.83301 9.00098 -13.5
s-2.33301 -7.83398 -7 -12.501l-28 -31c-4 -4.66699 -8.33301 -6.5 -13 -5.5s-9.66699 3.16699 -15 6.5l-142 77l-138 -75c-5.33301 -3.33301 -10 -5.16602 -14 -5.49902s-8.33301 2.16699 -13 7.5l-26 27c-4 5.33301 -6.16699 9.5 -6.5 12.5s1.83398 6.83301 6.50098 11.5
l133 115c9.33301 8 19.166 14.333 29.499 19s19.833 7 28.5 7c19.333 0 39.666 -8.66699 60.999 -26z" />
    <glyph glyph-name="Udieresis" unicode="&#xdc;" horiz-adv-x="717" 
d="M642 97c0 -23.333 -5.16699 -43.333 -15.5 -60s-29.5 -28.667 -57.5 -36c-13.333 -3.33301 -28 -5.83301 -44 -7.5s-32 -2.83398 -48 -3.50098s-31 -1.16699 -45 -1.5s-25.333 -0.5 -34 -0.5c-57.333 0 -106.5 4.83301 -147.5 14.5s-74.5 26.167 -100.5 49.5
s-45 54.333 -57 93s-18 87.334 -18 146.001l-1 388c0 8 2 13.5 6 16.5s9.66699 4.5 17 4.5h107c10 0 16.5 -1.33301 19.5 -4s4.5 -8.33398 4.5 -17.001v-397c0 -27.333 2.33301 -51.166 7 -71.499s13 -37.166 25 -50.499s28.167 -23.166 48.5 -29.499s46.5 -9.5 78.5 -9.5
c4.66699 0 11 0.166992 19 0.5s16.833 0.666016 26.5 0.999023s19.667 1 30 2s19.833 2.5 28.5 4.5v550c0 8 1.83301 13.5 5.5 16.5s9.5 4.5 17.5 4.5h106c10 0 16.167 -1.33301 18.5 -4s3.5 -8.33398 3.5 -17.001v-582zM543 812c0 -10 -2 -19.333 -6 -28
s-9.5 -16.334 -16.5 -23.001s-14.833 -12 -23.5 -16s-18 -6 -28 -6s-19.5 2 -28.5 6s-17 9.33301 -24 16s-12.5 14.334 -16.5 23.001s-6 18 -6 28c0 20 7.5 37.333 22.5 52s32.5 22 52.5 22c10 0 19.333 -2 28 -6s16.5 -9.33301 23.5 -16s12.5 -14.5 16.5 -23.5
s6 -18.5 6 -28.5zM338 812c0 -10 -2 -19.333 -6 -28s-9.5 -16.334 -16.5 -23.001s-15 -12 -24 -16s-18.5 -6 -28.5 -6s-19.333 2 -28 6s-16.5 9.33301 -23.5 16s-12.5 14.334 -16.5 23.001s-6 18 -6 28s2 19.5 6 28.5s9.5 16.833 16.5 23.5s14.833 12 23.5 16s18 6 28 6
s19.5 -2 28.5 -6s17 -9.33301 24 -16s12.5 -14.5 16.5 -23.5s6 -18.5 6 -28.5z" />
    <glyph glyph-name="Yacute" unicode="&#xdd;" horiz-adv-x="625" 
d="M316 397l66.001 148l66 137c3.33301 6.66699 6.83301 11.5 10.5 14.5s9.16699 4.5 16.5 4.5h127c9.33301 0 14.166 -2 14.499 -6s-0.5 -8 -2.5 -12l-223 -425v-238c0 -7.33301 -1.33301 -12.5 -4 -15.5s-8.66699 -4.5 -18 -4.5h-109c-14 0 -21 6.66699 -21 20v236
l-229 426c-2 3.33301 -2.16699 7.33301 -0.5 12s6.16699 7 13.5 7h126c9.33301 0 15.833 -1.66699 19.5 -5s7.16699 -9 10.5 -17l67 -139l64 -143h6zM405.001 936c4 3.33301 7.66699 5.66602 11 6.99902s7.66602 -0.666992 12.999 -6l69 -79c4 -4 5.66699 -7.83301 5 -11.5
s-3 -6.16699 -7 -7.5l-193 -99c-6.66699 -3.33301 -11.5 -4.5 -14.5 -3.5s-6.16699 3.16699 -9.5 6.5l-38 46c-3.33301 4 -5.16602 7.33301 -5.49902 10s2.16699 6.33398 7.5 11.001z" />
    <glyph glyph-name="Thorn" unicode="&#xde;" horiz-adv-x="644" 
d="M380 592c36 0 68.332 -5.5 96.999 -16.5s53.167 -26.167 73.5 -45.5s35.833 -42.333 46.5 -69s16 -55.667 16 -87c0 -16 -2.33301 -36.167 -7 -60.5s-14.667 -48 -30 -71s-37.166 -43.5 -65.499 -61.5s-65.833 -29 -112.5 -33c-17.333 -2 -35.333 -3 -54 -3h-116v-126
c0 -7.33301 -1.16699 -12.333 -3.5 -15s-7.83301 -4 -16.5 -4h-107c-6 -0 -12.167 0.833008 -18.5 2.5s-8.83301 7.16699 -7.5 16.5v667c0 13.333 6.66699 20 20 20h104c9.33301 0 15.333 -1.5 18 -4.5s4 -8.16699 4 -15.5v-94h159zM455.999 363
c0 9.33301 -1.33301 19.5 -4 30.5s-7.66699 21.333 -15 31s-17.5 17.667 -30.5 24s-29.833 9.5 -50.5 9.5h-128v-189h130c34 0 58.833 9 74.5 27s23.5 40.333 23.5 67z" />
    <glyph glyph-name="germandbls" unicode="&#xdf;" horiz-adv-x="604" 
d="M447 401c16 -6 30.8359 -14.666 44.5029 -25.999s25.5 -25 35.5 -41s17.833 -33.667 23.5 -53s8.5 -39.666 8.5 -60.999c0 -46 -7.16699 -85 -21.5 -117s-33.5 -58 -57.5 -78s-51.333 -34.333 -82 -43s-62 -12.334 -94 -11.001c-13.333 0.666992 -21.333 2 -24 4
s-4 7 -4 15v79c0 6.66699 1 11.334 3 14.001s7 4.66699 15 6c37.333 2 65.5 14.667 84.5 38s28.5 54 28.5 92c0 15.333 -1.66699 30.166 -5 44.499s-8.83301 27 -16.5 38s-17.834 20 -30.501 27s-28.334 10.833 -47.001 11.5c-14 1.33301 -23.833 4.5 -29.5 9.5
s-8.5 13.5 -8.5 25.5v35c0 11.333 3 20.833 9 28.5s15.667 11.5 29 11.5c22.667 0 40.334 7.5 53.001 22.5s19 35.167 19 60.5c0 8.66699 -1.33301 17.834 -4 27.501s-7.33398 18.5 -14.001 26.5s-15.167 14.5 -25.5 19.5s-23.166 7.5 -38.499 7.5s-28.5 -3 -39.5 -9
s-20 -13.833 -27 -23.5s-12.167 -20.834 -15.5 -33.501s-5 -25.667 -5 -39v-485c0 -8.66699 -1.33301 -14.834 -4 -18.501s-9.33398 -5.5 -20.001 -5.5h-102c-8.66699 0 -14 2 -16 6s-3 10 -3 18v468c0 36.667 5.5 70 16.5 100s26.667 55.333 47 76s44.833 36.667 73.5 48
s60 17 94 17c38 0 71.167 -4.83301 99.5 -14.5s52.166 -23 71.499 -40s33.833 -37.167 43.5 -60.5s14.5 -48.333 14.5 -75c0 -10.667 -1.33301 -22.334 -4 -35.001s-7.16699 -25.5 -13.5 -38.5s-14.5 -25.167 -24.5 -36.5s-22.333 -20.666 -37 -27.999v-4z" />
    <glyph glyph-name="agrave" unicode="&#xe0;" horiz-adv-x="576" 
d="M511 65c0 -8.66699 -1.16699 -15.999 -3.5 -21.999s-8.16602 -11.667 -17.499 -17c-15.333 -7.33301 -31.833 -13.333 -49.5 -18s-35.667 -8.33398 -54 -11.001s-36.833 -4.66699 -55.5 -6s-36.334 -2 -53.001 -2c-45.333 0 -82.833 4.33301 -112.5 13
s-53.5 20.5 -71.5 35.5s-30.667 32.667 -38 53s-11 42.166 -11 65.499c0 26 4.33301 49.833 13 71.5s21.667 40.5 39 56.5s39.166 28.5 65.499 37.5s57.5 13.5 93.5 13.5h110v16c0 9.33301 -1 18.333 -3 27s-6.16699 16.167 -12.5 22.5s-15.166 11.5 -26.499 15.5
s-26.333 6 -45 6c-10 0 -21.333 -0.5 -34 -1.5s-25.334 -2.33301 -38.001 -4s-25 -3.66699 -37 -6s-22.667 -4.83301 -32 -7.5c-8.66699 -2 -14.667 -2 -18 0s-5.66602 6.33301 -6.99902 13l-16 70c-2 7.33301 -2.16699 12.5 -0.5 15.5s5.16699 5.5 10.5 7.5
c30 10.667 61.5 18.334 94.5 23.001s65.833 7 98.5 7c72.667 0 126 -15.5 160 -46.5s51 -76.833 51 -137.5v-290zM365 238.001l-79.002 -0.00195312c-9.33301 0 -19.333 -0.666992 -30 -2s-20.5 -4.5 -29.5 -9.5s-16.5 -12.167 -22.5 -21.5s-9 -22 -9 -38
c0 -23.333 7.83301 -39.666 23.5 -48.999s36.834 -14 63.501 -14c4 0 9.33301 0.166992 16 0.5s13.834 1 21.501 2s15.5 2.33301 23.5 4s15.333 3.83398 22 6.50098v121zM367.998 610.999c3.33301 -6.66699 4 -11.168 2 -13.501s-5.66699 -4.16602 -11 -5.49902l-55 -20
c-5.33301 -1.33301 -9.5 -1.5 -12.5 -0.5s-6.5 4.16699 -10.5 9.5l-116 172c-2.66699 3.33301 -3.5 6.83301 -2.5 10.5s4.16699 6.16699 9.5 7.5l104 26c7.33301 1.33301 12.5 1 15.5 -1s5.5 -5.33301 7.5 -10z" />
    <glyph glyph-name="aacute" unicode="&#xe1;" horiz-adv-x="576" 
d="M511 65c0 -8.66699 -1.16699 -15.999 -3.5 -21.999s-8.16602 -11.667 -17.499 -17c-15.333 -7.33301 -31.833 -13.333 -49.5 -18s-35.667 -8.33398 -54 -11.001s-36.833 -4.66699 -55.5 -6s-36.334 -2 -53.001 -2c-45.333 0 -82.833 4.33301 -112.5 13
s-53.5 20.5 -71.5 35.5s-30.667 32.667 -38 53s-11 42.166 -11 65.499c0 26 4.33301 49.833 13 71.5s21.667 40.5 39 56.5s39.166 28.5 65.499 37.5s57.5 13.5 93.5 13.5h110v16c0 9.33301 -1 18.333 -3 27s-6.16699 16.167 -12.5 22.5s-15.166 11.5 -26.499 15.5
s-26.333 6 -45 6c-10 0 -21.333 -0.5 -34 -1.5s-25.334 -2.33301 -38.001 -4s-25 -3.66699 -37 -6s-22.667 -4.83301 -32 -7.5c-8.66699 -2 -14.667 -2 -18 0s-5.66602 6.33301 -6.99902 13l-16 70c-2 7.33301 -2.16699 12.5 -0.5 15.5s5.16699 5.5 10.5 7.5
c30 10.667 61.5 18.334 94.5 23.001s65.833 7 98.5 7c72.667 0 126 -15.5 160 -46.5s51 -76.833 51 -137.5v-290zM365 238.001l-79.002 -0.00195312c-9.33301 0 -19.333 -0.666992 -30 -2s-20.5 -4.5 -29.5 -9.5s-16.5 -12.167 -22.5 -21.5s-9 -22 -9 -38
c0 -23.333 7.83301 -39.666 23.5 -48.999s36.834 -14 63.501 -14c4 0 9.33301 0.166992 16 0.5s13.834 1 21.501 2s15.5 2.33301 23.5 4s15.333 3.83398 22 6.50098v121zM249.998 590.999c-6 2 -9.33398 4.50098 -10.001 7.50098s0 7.16699 2 12.5l70 174
c3.33301 9.33301 7.5 14 12.5 14s11.167 -1 18.5 -3l95 -25c10.667 -2.66699 13.334 -8.66699 8.00098 -18l-117 -172c-4 -6 -7.5 -9.33301 -10.5 -10s-7.16699 -0.333984 -12.5 0.999023z" />
    <glyph glyph-name="acircumflex" unicode="&#xe2;" horiz-adv-x="576" 
d="M511 65c0 -8.66699 -1.16699 -15.999 -3.5 -21.999s-8.16602 -11.667 -17.499 -17c-15.333 -7.33301 -31.833 -13.333 -49.5 -18s-35.667 -8.33398 -54 -11.001s-36.833 -4.66699 -55.5 -6s-36.334 -2 -53.001 -2c-45.333 0 -82.833 4.33301 -112.5 13
s-53.5 20.5 -71.5 35.5s-30.667 32.667 -38 53s-11 42.166 -11 65.499c0 26 4.33301 49.833 13 71.5s21.667 40.5 39 56.5s39.166 28.5 65.499 37.5s57.5 13.5 93.5 13.5h110v16c0 9.33301 -1 18.333 -3 27s-6.16699 16.167 -12.5 22.5s-15.166 11.5 -26.499 15.5
s-26.333 6 -45 6c-10 0 -21.333 -0.5 -34 -1.5s-25.334 -2.33301 -38.001 -4s-25 -3.66699 -37 -6s-22.667 -4.83301 -32 -7.5c-8.66699 -2 -14.667 -2 -18 0s-5.66602 6.33301 -6.99902 13l-16 70c-2 7.33301 -2.16699 12.5 -0.5 15.5s5.16699 5.5 10.5 7.5
c30 10.667 61.5 18.334 94.5 23.001s65.833 7 98.5 7c72.667 0 126 -15.5 160 -46.5s51 -76.833 51 -137.5v-290zM365 238.001l-79.002 -0.00195312c-9.33301 0 -19.333 -0.666992 -30 -2s-20.5 -4.5 -29.5 -9.5s-16.5 -12.167 -22.5 -21.5s-9 -22 -9 -38
c0 -23.333 7.83301 -39.666 23.5 -48.999s36.834 -14 63.501 -14c4 0 9.33301 0.166992 16 0.5s13.834 1 21.501 2s15.5 2.33301 23.5 4s15.333 3.83398 22 6.50098v121zM493.998 621.999c5.33301 -5.33301 7.83496 -9.83301 7.50195 -13.5
s-3.16602 -8.16699 -8.49902 -13.5l-29 -28c-4.66699 -3.33301 -8.83398 -5 -12.501 -5s-8.83398 2.33301 -15.501 7l-139 98l-134 -100c-5.33301 -3.33301 -9.83301 -5 -13.5 -5s-8.16699 2.33301 -13.5 7l-30 28c-4 4.66699 -5.83301 8.5 -5.5 11.5
s2.16602 7.16699 5.49902 12.5l131 137c9.33301 9.33301 19 16.833 29 22.5s20 8.5 30 8.5c14.667 0 26.667 -2.33301 36 -7s19 -12.667 29 -24z" />
    <glyph glyph-name="atilde" unicode="&#xe3;" horiz-adv-x="576" 
d="M511 65c0 -8.66699 -1.16699 -15.999 -3.5 -21.999s-8.16602 -11.667 -17.499 -17c-15.333 -7.33301 -31.833 -13.333 -49.5 -18s-35.667 -8.33398 -54 -11.001s-36.833 -4.66699 -55.5 -6s-36.334 -2 -53.001 -2c-45.333 0 -82.833 4.33301 -112.5 13
s-53.5 20.5 -71.5 35.5s-30.667 32.667 -38 53s-11 42.166 -11 65.499c0 26 4.33301 49.833 13 71.5s21.667 40.5 39 56.5s39.166 28.5 65.499 37.5s57.5 13.5 93.5 13.5h110v16c0 9.33301 -1 18.333 -3 27s-6.16699 16.167 -12.5 22.5s-15.166 11.5 -26.499 15.5
s-26.333 6 -45 6c-10 0 -21.333 -0.5 -34 -1.5s-25.334 -2.33301 -38.001 -4s-25 -3.66699 -37 -6s-22.667 -4.83301 -32 -7.5c-8.66699 -2 -14.667 -2 -18 0s-5.66602 6.33301 -6.99902 13l-16 70c-2 7.33301 -2.16699 12.5 -0.5 15.5s5.16699 5.5 10.5 7.5
c30 10.667 61.5 18.334 94.5 23.001s65.833 7 98.5 7c72.667 0 126 -15.5 160 -46.5s51 -76.833 51 -137.5v-290zM365 238.001l-79.002 -0.00195312c-9.33301 0 -19.333 -0.666992 -30 -2s-20.5 -4.5 -29.5 -9.5s-16.5 -12.167 -22.5 -21.5s-9 -22 -9 -38
c0 -23.333 7.83301 -39.666 23.5 -48.999s36.834 -14 63.501 -14c4 0 9.33301 0.166992 16 0.5s13.834 1 21.501 2s15.5 2.33301 23.5 4s15.333 3.83398 22 6.50098v121zM361.998 604.999c-12 0 -24.0039 2.16992 -36.0039 6.50293s-23.667 9 -35 14
s-22.666 9.66699 -33.999 14s-23 6.5 -35 6.5c-18 0 -33.667 -10.333 -47 -31c-4 -6 -7.5 -9.83301 -10.5 -11.5s-7.16699 -0.833984 -12.5 2.49902l-44 25c-6 3.33301 -9.16699 6.66602 -9.5 9.99902s0.833984 7.66602 3.50098 12.999
c12.667 25.333 28.167 45.833 46.5 61.5s42.5 23.5 72.5 23.5c12.667 0 24.667 -2.16699 36 -6.5s22.5 -9 33.5 -14s21.833 -9.5 32.5 -13.5s21.334 -6 32.001 -6s19.5 2.5 26.5 7.5s13.833 13.167 20.5 24.5c4 7.33301 7 11.333 9 12s6 0 12 -2l50 -17
c6.66699 -2 10.334 -4.5 11.001 -7.5s-0.333008 -7.83301 -3 -14.5c-12.667 -28 -28.167 -51.167 -46.5 -69.5s-42.5 -27.5 -72.5 -27.5z" />
    <glyph glyph-name="adieresis" unicode="&#xe4;" horiz-adv-x="576" 
d="M511 65c0 -8.66699 -1.16699 -15.999 -3.5 -21.999s-8.16602 -11.667 -17.499 -17c-15.333 -7.33301 -31.833 -13.333 -49.5 -18s-35.667 -8.33398 -54 -11.001s-36.833 -4.66699 -55.5 -6s-36.334 -2 -53.001 -2c-45.333 0 -82.833 4.33301 -112.5 13
s-53.5 20.5 -71.5 35.5s-30.667 32.667 -38 53s-11 42.166 -11 65.499c0 26 4.33301 49.833 13 71.5s21.667 40.5 39 56.5s39.166 28.5 65.499 37.5s57.5 13.5 93.5 13.5h110v16c0 9.33301 -1 18.333 -3 27s-6.16699 16.167 -12.5 22.5s-15.166 11.5 -26.499 15.5
s-26.333 6 -45 6c-10 0 -21.333 -0.5 -34 -1.5s-25.334 -2.33301 -38.001 -4s-25 -3.66699 -37 -6s-22.667 -4.83301 -32 -7.5c-8.66699 -2 -14.667 -2 -18 0s-5.66602 6.33301 -6.99902 13l-16 70c-2 7.33301 -2.16699 12.5 -0.5 15.5s5.16699 5.5 10.5 7.5
c30 10.667 61.5 18.334 94.5 23.001s65.833 7 98.5 7c72.667 0 126 -15.5 160 -46.5s51 -76.833 51 -137.5v-290zM365 238.001l-79.002 -0.00195312c-9.33301 0 -19.333 -0.666992 -30 -2s-20.5 -4.5 -29.5 -9.5s-16.5 -12.167 -22.5 -21.5s-9 -22 -9 -38
c0 -23.333 7.83301 -39.666 23.5 -48.999s36.834 -14 63.501 -14c4 0 9.33301 0.166992 16 0.5s13.834 1 21.501 2s15.5 2.33301 23.5 4s15.333 3.83398 22 6.50098v121zM475.998 670.999c0 -10 -2 -19.333 -6 -28s-9.5 -16.334 -16.5 -23.001s-14.833 -12 -23.5 -16
s-18 -6 -28 -6s-19.5 2 -28.5 6s-17 9.33301 -24 16s-12.5 14.334 -16.5 23.001s-6 18 -6 28c0 20 7.5 37.333 22.5 52s32.5 22 52.5 22c10 0 19.333 -2 28 -6s16.5 -9.33301 23.5 -16s12.5 -14.5 16.5 -23.5s6 -18.5 6 -28.5zM270.998 670.999c0 -10 -2 -19.333 -6 -28
s-9.5 -16.334 -16.5 -23.001s-15 -12 -24 -16s-18.5 -6 -28.5 -6s-19.333 2 -28 6s-16.5 9.33301 -23.5 16s-12.5 14.334 -16.5 23.001s-6 18 -6 28s2 19.5 6 28.5s9.5 16.833 16.5 23.5s14.833 12 23.5 16s18 6 28 6s19.5 -2 28.5 -6s17 -9.33301 24 -16
s12.5 -14.5 16.5 -23.5s6 -18.5 6 -28.5z" />
    <glyph glyph-name="aring" unicode="&#xe5;" horiz-adv-x="576" 
d="M511 65c0 -8.66699 -1.16699 -15.999 -3.5 -21.999s-8.16602 -11.667 -17.499 -17c-15.333 -7.33301 -31.833 -13.333 -49.5 -18s-35.667 -8.33398 -54 -11.001s-36.833 -4.66699 -55.5 -6s-36.334 -2 -53.001 -2c-45.333 0 -82.833 4.33301 -112.5 13
s-53.5 20.5 -71.5 35.5s-30.667 32.667 -38 53s-11 42.166 -11 65.499c0 26 4.33301 49.833 13 71.5s21.667 40.5 39 56.5s39.166 28.5 65.499 37.5s57.5 13.5 93.5 13.5h110v16c0 9.33301 -1 18.333 -3 27s-6.16699 16.167 -12.5 22.5s-15.166 11.5 -26.499 15.5
s-26.333 6 -45 6c-10 0 -21.333 -0.5 -34 -1.5s-25.334 -2.33301 -38.001 -4s-25 -3.66699 -37 -6s-22.667 -4.83301 -32 -7.5c-8.66699 -2 -14.667 -2 -18 0s-5.66602 6.33301 -6.99902 13l-16 70c-2 7.33301 -2.16699 12.5 -0.5 15.5s5.16699 5.5 10.5 7.5
c30 10.667 61.5 18.334 94.5 23.001s65.833 7 98.5 7c72.667 0 126 -15.5 160 -46.5s51 -76.833 51 -137.5v-290zM365 238.001l-79.002 -0.00195312c-9.33301 0 -19.333 -0.666992 -30 -2s-20.5 -4.5 -29.5 -9.5s-16.5 -12.167 -22.5 -21.5s-9 -22 -9 -38
c0 -23.333 7.83301 -39.666 23.5 -48.999s36.834 -14 63.501 -14c4 0 9.33301 0.166992 16 0.5s13.834 1 21.501 2s15.5 2.33301 23.5 4s15.333 3.83398 22 6.50098v121zM350.998 686.999c0 14 -4.66699 25.667 -14 35s-21 14 -35 14s-25.5 -4.66699 -34.5 -14
s-13.5 -21 -13.5 -35c0 -15.333 4.5 -27.5 13.5 -36.5s20.5 -13.5 34.5 -13.5c13.333 0 24.833 4.5 34.5 13.5s14.5 21.167 14.5 36.5zM425.998 686.999c0 -17.333 -3.16602 -33.167 -9.49902 -47.5s-15 -26.833 -26 -37.5s-24.167 -18.834 -39.5 -24.501
s-31.666 -8.5 -48.999 -8.5c-34.667 0 -63.834 10.833 -87.501 32.5s-35.5 50.167 -35.5 85.5c0 16.667 3.16699 32.334 9.5 47.001s15 27.167 26 37.5s24 18.5 39 24.5s31.167 9 48.5 9s33.666 -2.83301 48.999 -8.5s28.5 -13.834 39.5 -24.501s19.667 -23.167 26 -37.5
s9.5 -30.166 9.5 -47.499z" />
    <glyph glyph-name="ae" unicode="&#xe6;" horiz-adv-x="881" 
d="M606 539c76.667 0 134.5 -19.6689 173.5 -59.002s58.5 -94.666 58.5 -165.999c0 -34 -6.5 -57 -19.5 -69s-31.167 -18.333 -54.5 -19h-256c0.666992 -24 4.16699 -43.5 10.5 -58.5s14.833 -26.667 25.5 -35s23.167 -13.833 37.5 -16.5s29.833 -4 46.5 -4
c19.333 0 39 2.33301 59 7s38.667 10.334 56 17.001c7.33301 3.33301 12.666 4.66602 15.999 3.99902s6.33301 -4 9 -10l31 -72c2.66699 -6 3.33398 -10.667 2.00098 -14s-4.66602 -6.66602 -9.99902 -9.99902c-24.667 -16 -53.5 -27.5 -86.5 -34.5s-63.5 -10.5 -91.5 -10.5
c-32.667 0 -62.5 3.5 -89.5 10.5s-50.5 19.5 -70.5 37.5c-29.333 -17.333 -61.833 -29.666 -97.5 -36.999s-68.5 -11 -98.5 -11c-41.333 0 -75.666 4.5 -102.999 13.5s-49 21 -65 36s-27.333 32.333 -34 52s-10 40.167 -10 61.5c0 24.667 4 47.5 12 68.5
s20.167 39.167 36.5 54.5s37.166 27.5 62.499 36.5s55.666 13.5 90.999 13.5h114c1.33301 4.66699 2.33301 9.16699 3 13.5s1 8.16602 1 11.499c0.666992 47.333 -29.666 71 -90.999 71c-20.667 0 -44.5 -1.66699 -71.5 -5s-50.167 -7.66602 -69.5 -12.999
c-7.33301 -1.33301 -12.833 -1.5 -16.5 -0.5s-6.16699 5.16699 -7.5 12.5l-16 71c-1.33301 6.66699 -1.33301 11.5 0 14.5s4.66602 5.5 9.99902 7.5c30 10.667 61.167 18.5 93.5 23.5s65.166 7.5 98.499 7.5c73.333 0 126 -19 158 -57c20 19.333 43.333 33.666 70 42.999
s54.334 14 83.001 14zM279 102.998c11.333 0 26.665 1.33203 45.998 3.99902s37 8.33398 53 17.001c-12 30 -19 65.667 -21 107h-77c-9.33301 0 -19 -0.833008 -29 -2.5s-19.167 -4.83398 -27.5 -9.50098s-15.166 -11.5 -20.499 -20.5s-8 -20.833 -8 -35.5
c0 -21.333 7.33301 -36.666 22 -45.999s35.334 -14 62.001 -14zM608.999 418.997c-27.333 0 -49.8311 -8.83301 -67.498 -26.5s-27.834 -41.167 -30.501 -70.5h187c-0.666992 11.333 -2.33398 22.833 -5.00098 34.5s-7.33398 22.167 -14.001 31.5s-15.667 16.833 -27 22.5
s-25.666 8.5 -42.999 8.5z" />
    <glyph glyph-name="ccedilla" unicode="&#xe7;" horiz-adv-x="511" 
d="M308 119c21.333 0 42.165 2.50098 62.498 7.50098s37.833 10.167 52.5 15.5c8.66699 3.33301 14.5 4.5 17.5 3.5s5.83301 -5.16699 8.5 -12.5l28 -75c3.33301 -6.66699 4.83301 -12 4.5 -16s-4.16602 -8 -11.499 -12c-26 -14.667 -54.167 -24.834 -84.5 -30.501
s-58.166 -9.16699 -83.499 -10.5l-17 -43c24.667 -1.33301 45.167 -5 61.5 -11s29.5 -13.333 39.5 -22s17 -18.167 21 -28.5s6 -20.833 6 -31.5c0 -13.333 -2.5 -26.333 -7.5 -39s-13 -24 -24 -34s-25.167 -18 -42.5 -24s-38.666 -9 -63.999 -9
c-10.667 0 -21.667 0.666992 -33 2s-22.333 3 -33 5s-20.667 4.33301 -30 7s-17.333 5.33398 -24 8.00098c-5.33301 2 -8.16602 4.33301 -8.49902 7s0.5 7.33398 2.5 14.001l12 36c2.66699 7.33301 5 11.166 7 11.499s5.66699 -0.166992 11 -1.5
c13.333 -4.66699 25.666 -8.16699 36.999 -10.5s23.333 -3.5 36 -3.5c16 0 28.667 2.66699 38 8s14 14 14 26c0 11.333 -5.66699 19.333 -17 24s-25.333 7 -42 7c-11.333 0 -18.833 0.166992 -22.5 0.5s-7.16699 2.16602 -10.5 5.49902
c-4 3.33301 -5.66699 7.66602 -5 12.999s2 11 4 17l27 70c-63.333 8.66699 -111.333 35.334 -144 80.001s-49 107.334 -49 188.001c0 42.667 5.83301 81.167 17.5 115.5s28.167 63.5 49.5 87.5s47.5 42.333 78.5 55s65.5 19 103.5 19c28 0 55.667 -2.83301 83 -8.5
s52.333 -14.167 75 -25.5c8.66699 -4 13.5 -7.66699 14.5 -11s-0.166992 -9 -3.5 -17l-28 -77c-3.33301 -7.33301 -7 -11.333 -11 -12s-10.667 0.333008 -20 3c-17.333 5.33301 -34.333 9.66602 -51 12.999s-32.667 5 -48 5c-20 0 -36.833 -4 -50.5 -12
s-24.834 -18.667 -33.501 -32s-15 -28.833 -19 -46.5s-6 -36.5 -6 -56.5c0 -20.667 1.66699 -39.667 5 -57s9.33301 -32.333 18 -45s20.167 -22.5 34.5 -29.5s32.5 -10.5 54.5 -10.5z" />
    <glyph glyph-name="egrave" unicode="&#xe8;" horiz-adv-x="568" 
d="M293 538c78 0 136.499 -19.5 175.499 -58.5s58.5 -94.833 58.5 -167.5c0 -34.667 -6.66699 -58.334 -20 -71.001s-31.666 -19 -54.999 -19h-256c0.666992 -21.333 4.16699 -39 10.5 -53s14.833 -25.333 25.5 -34s23.167 -14.667 37.5 -18s29.833 -5 46.5 -5
c19.333 0 39 2.33301 59 7s38.667 10.667 56 18c8 2.66699 13.5 3.5 16.5 2.5s5.83301 -4.16699 8.5 -9.5l32 -72c2.66699 -6 3.16699 -10.667 1.5 -14s-5.16699 -6.66602 -10.5 -9.99902c-24.667 -16 -53.334 -27.5 -86.001 -34.5s-63 -10.5 -91 -10.5
c-87.333 0 -152 21.667 -194 65s-63 112 -63 206c0 44 5.83301 83.167 17.5 117.5s28.334 63.5 50.001 87.5s47.667 42.167 78 54.5s64.5 18.5 102.5 18.5zM351.999 611c3.33301 -6.66699 4 -11.168 2 -13.501s-5.66699 -4.16602 -11 -5.49902l-55 -20
c-5.33301 -1.33301 -9.5 -1.5 -12.5 -0.5s-6.5 4.16699 -10.5 9.5l-116 172c-2.66699 3.33301 -3.5 6.83301 -2.5 10.5s4.16699 6.16699 9.5 7.5l104 26c7.33301 1.33301 12.5 1 15.5 -1s5.5 -5.33301 7.5 -10zM295.999 417.999c-27.333 0 -49.667 -9.66797 -67 -29.001
s-27.333 -44 -30 -74h187c0 14.667 -1.5 28.334 -4.5 41.001s-7.83301 23.5 -14.5 32.5s-15.667 16.167 -27 21.5s-26 8 -44 8z" />
    <glyph glyph-name="eacute" unicode="&#xe9;" horiz-adv-x="568" 
d="M293 538c78 0 136.499 -19.5 175.499 -58.5s58.5 -94.833 58.5 -167.5c0 -34.667 -6.66699 -58.334 -20 -71.001s-31.666 -19 -54.999 -19h-256c0.666992 -21.333 4.16699 -39 10.5 -53s14.833 -25.333 25.5 -34s23.167 -14.667 37.5 -18s29.833 -5 46.5 -5
c19.333 0 39 2.33301 59 7s38.667 10.667 56 18c8 2.66699 13.5 3.5 16.5 2.5s5.83301 -4.16699 8.5 -9.5l32 -72c2.66699 -6 3.16699 -10.667 1.5 -14s-5.16699 -6.66602 -10.5 -9.99902c-24.667 -16 -53.334 -27.5 -86.001 -34.5s-63 -10.5 -91 -10.5
c-87.333 0 -152 21.667 -194 65s-63 112 -63 206c0 44 5.83301 83.167 17.5 117.5s28.334 63.5 50.001 87.5s47.667 42.167 78 54.5s64.5 18.5 102.5 18.5zM243.999 591c-6 2 -9.33398 4.50098 -10.001 7.50098s0 7.16699 2 12.5l70 174c3.33301 9.33301 7.5 14 12.5 14
s11.167 -1 18.5 -3l95 -25c10.667 -2.66699 13.334 -8.66699 8.00098 -18l-117 -172c-4 -6 -7.5 -9.33301 -10.5 -10s-7.16699 -0.333984 -12.5 0.999023zM295.998 418.001c-27.333 0 -49.667 -9.66797 -67 -29.001s-27.333 -44 -30 -74h187
c0 14.667 -1.5 28.334 -4.5 41.001s-7.83301 23.5 -14.5 32.5s-15.667 16.167 -27 21.5s-26 8 -44 8z" />
    <glyph glyph-name="ecircumflex" unicode="&#xea;" horiz-adv-x="568" 
d="M293 538c78 0 136.499 -19.5 175.499 -58.5s58.5 -94.833 58.5 -167.5c0 -34.667 -6.66699 -58.334 -20 -71.001s-31.666 -19 -54.999 -19h-256c0.666992 -21.333 4.16699 -39 10.5 -53s14.833 -25.333 25.5 -34s23.167 -14.667 37.5 -18s29.833 -5 46.5 -5
c19.333 0 39 2.33301 59 7s38.667 10.667 56 18c8 2.66699 13.5 3.5 16.5 2.5s5.83301 -4.16699 8.5 -9.5l32 -72c2.66699 -6 3.16699 -10.667 1.5 -14s-5.16699 -6.66602 -10.5 -9.99902c-24.667 -16 -53.334 -27.5 -86.001 -34.5s-63 -10.5 -91 -10.5
c-87.333 0 -152 21.667 -194 65s-63 112 -63 206c0 44 5.83301 83.167 17.5 117.5s28.334 63.5 50.001 87.5s47.667 42.167 78 54.5s64.5 18.5 102.5 18.5zM491.999 622c5.33301 -5.33301 7.83496 -9.83301 7.50195 -13.5s-3.16602 -8.16699 -8.49902 -13.5l-29 -28
c-4.66699 -3.33301 -8.83398 -5 -12.501 -5s-8.83398 2.33301 -15.501 7l-139 98l-134 -100c-5.33301 -3.33301 -9.83301 -5 -13.5 -5s-8.16699 2.33301 -13.5 7l-30 28c-4 4.66699 -5.83301 8.5 -5.5 11.5s2.16602 7.16699 5.49902 12.5l131 137
c9.33301 9.33301 19 16.833 29 22.5s20 8.5 30 8.5c14.667 0 26.667 -2.33301 36 -7s19 -12.667 29 -24zM296.001 418c-27.333 0 -49.667 -9.66797 -67 -29.001s-27.333 -44 -30 -74h187c0 14.667 -1.5 28.334 -4.5 41.001s-7.83301 23.5 -14.5 32.5
s-15.667 16.167 -27 21.5s-26 8 -44 8z" />
    <glyph glyph-name="edieresis" unicode="&#xeb;" horiz-adv-x="568" 
d="M293 538c78 0 136.499 -19.5 175.499 -58.5s58.5 -94.833 58.5 -167.5c0 -34.667 -6.66699 -58.334 -20 -71.001s-31.666 -19 -54.999 -19h-256c0.666992 -21.333 4.16699 -39 10.5 -53s14.833 -25.333 25.5 -34s23.167 -14.667 37.5 -18s29.833 -5 46.5 -5
c19.333 0 39 2.33301 59 7s38.667 10.667 56 18c8 2.66699 13.5 3.5 16.5 2.5s5.83301 -4.16699 8.5 -9.5l32 -72c2.66699 -6 3.16699 -10.667 1.5 -14s-5.16699 -6.66602 -10.5 -9.99902c-24.667 -16 -53.334 -27.5 -86.001 -34.5s-63 -10.5 -91 -10.5
c-87.333 0 -152 21.667 -194 65s-63 112 -63 206c0 44 5.83301 83.167 17.5 117.5s28.334 63.5 50.001 87.5s47.667 42.167 78 54.5s64.5 18.5 102.5 18.5zM476.999 671c0 -10 -2 -19.333 -6 -28s-9.5 -16.334 -16.5 -23.001s-14.833 -12 -23.5 -16s-18 -6 -28 -6
s-19.5 2 -28.5 6s-17 9.33301 -24 16s-12.5 14.334 -16.5 23.001s-6 18 -6 28c0 20 7.5 37.333 22.5 52s32.5 22 52.5 22c10 0 19.333 -2 28 -6s16.5 -9.33301 23.5 -16s12.5 -14.5 16.5 -23.5s6 -18.5 6 -28.5zM271.999 671c0 -10 -2 -19.333 -6 -28
s-9.5 -16.334 -16.5 -23.001s-15 -12 -24 -16s-18.5 -6 -28.5 -6s-19.333 2 -28 6s-16.5 9.33301 -23.5 16s-12.5 14.334 -16.5 23.001s-6 18 -6 28s2 19.5 6 28.5s9.5 16.833 16.5 23.5s14.833 12 23.5 16s18 6 28 6s19.5 -2 28.5 -6s17 -9.33301 24 -16
s12.5 -14.5 16.5 -23.5s6 -18.5 6 -28.5zM295.999 418c-27.333 0 -49.667 -9.66797 -67 -29.001s-27.333 -44 -30 -74h187c0 14.667 -1.5 28.334 -4.5 41.001s-7.83301 23.5 -14.5 32.5s-15.667 16.167 -27 21.5s-26 8 -44 8z" />
    <glyph glyph-name="igrave" unicode="&#xec;" horiz-adv-x="314" 
d="M230 18c0 -7.33301 -1.16699 -12.166 -3.5 -14.499s-8.16602 -3.5 -17.499 -3.5h-103c-7.33301 0 -12.666 1.16699 -15.999 3.5s-5 7.16602 -5 14.499v489c0 7.33301 1.66699 12.166 5 14.499s8.66602 3.5 15.999 3.5h103c9.33301 0 15.166 -1.16699 17.499 -3.5
s3.5 -7.16602 3.5 -14.499v-489zM218 611c3.33301 -6.66699 4 -11.168 2 -13.501s-5.66699 -4.16602 -11 -5.49902l-55 -20c-5.33301 -1.33301 -9.5 -1.5 -12.5 -0.5s-6.5 4.16699 -10.5 9.5l-116 172c-2.66699 3.33301 -3.5 6.83301 -2.5 10.5s4.16699 6.16699 9.5 7.5
l104 26c7.33301 1.33301 12.5 1 15.5 -1s5.5 -5.33301 7.5 -10z" />
    <glyph glyph-name="iacute" unicode="&#xed;" horiz-adv-x="314" 
d="M230 18c0 -7.33301 -1.16699 -12.166 -3.5 -14.499s-8.16602 -3.5 -17.499 -3.5h-103c-7.33301 0 -12.666 1.16699 -15.999 3.5s-5 7.16602 -5 14.499v489c0 7.33301 1.66699 12.166 5 14.499s8.66602 3.5 15.999 3.5h103c9.33301 0 15.166 -1.16699 17.499 -3.5
s3.5 -7.16602 3.5 -14.499v-489zM109 591c-6 2 -9.33398 4.50098 -10.001 7.50098s0 7.16699 2 12.5l70 174c3.33301 9.33301 7.5 14 12.5 14s11.167 -1 18.5 -3l95 -25c10.667 -2.66699 13.334 -8.66699 8.00098 -18l-117 -172c-4 -6 -7.5 -9.33301 -10.5 -10
s-7.16699 -0.333984 -12.5 0.999023z" />
    <glyph glyph-name="icircumflex" unicode="&#xee;" horiz-adv-x="314" 
d="M230 18c0 -7.33301 -1.16699 -12.166 -3.5 -14.499s-8.16602 -3.5 -17.499 -3.5h-103c-7.33301 0 -12.666 1.16699 -15.999 3.5s-5 7.16602 -5 14.499v489c0 7.33301 1.66699 12.166 5 14.499s8.66602 3.5 15.999 3.5h103c9.33301 0 15.166 -1.16699 17.499 -3.5
s3.5 -7.16602 3.5 -14.499v-489zM356 622c5.33301 -5.33301 7.83496 -9.83301 7.50195 -13.5s-3.16602 -8.16699 -8.49902 -13.5l-29 -28c-4.66699 -3.33301 -8.83398 -5 -12.501 -5s-8.83398 2.33301 -15.501 7l-139 98l-134 -100c-5.33301 -3.33301 -9.83301 -5 -13.5 -5
s-8.16699 2.33301 -13.5 7l-30 28c-4 4.66699 -5.83301 8.5 -5.5 11.5s2.16602 7.16699 5.49902 12.5l131 137c9.33301 9.33301 19 16.833 29 22.5s20 8.5 30 8.5c14.667 0 26.667 -2.33301 36 -7s19 -12.667 29 -24z" />
    <glyph glyph-name="idieresis" unicode="&#xef;" horiz-adv-x="314" 
d="M230 18c0 -7.33301 -1.16699 -12.166 -3.5 -14.499s-8.16602 -3.5 -17.499 -3.5h-103c-7.33301 0 -12.666 1.16699 -15.999 3.5s-5 7.16602 -5 14.499v489c0 7.33301 1.66699 12.166 5 14.499s8.66602 3.5 15.999 3.5h103c9.33301 0 15.166 -1.16699 17.499 -3.5
s3.5 -7.16602 3.5 -14.499v-489zM339 666c0 -10 -2 -19.333 -6 -28s-9.5 -16.334 -16.5 -23.001s-14.833 -12 -23.5 -16s-18 -6 -28 -6s-19.5 2 -28.5 6s-17 9.33301 -24 16s-12.5 14.334 -16.5 23.001s-6 18 -6 28c0 20 7.5 37.333 22.5 52s32.5 22 52.5 22
c10 0 19.333 -2 28 -6s16.5 -9.33301 23.5 -16s12.5 -14.5 16.5 -23.5s6 -18.5 6 -28.5zM134 666c0 -10 -2 -19.333 -6 -28s-9.5 -16.334 -16.5 -23.001s-15 -12 -24 -16s-18.5 -6 -28.5 -6s-19.333 2 -28 6s-16.5 9.33301 -23.5 16s-12.5 14.334 -16.5 23.001s-6 18 -6 28
s2 19.5 6 28.5s9.5 16.833 16.5 23.5s14.833 12 23.5 16s18 6 28 6s19.5 -2 28.5 -6s17 -9.33301 24 -16s12.5 -14.5 16.5 -23.5s6 -18.5 6 -28.5z" />
    <glyph glyph-name="eth" unicode="&#xf0;" horiz-adv-x="597" 
d="M385 466c-7.33301 21.333 -16.498 41.334 -27.498 60.001s-23.833 35.667 -38.5 51l-70 -51c-7.33301 -6 -13.666 -5 -18.999 3l-16 23c-3.33301 4 -4.5 7.16699 -3.5 9.5s3.16699 5.16602 6.5 8.49902l60 45c-11.333 9.33301 -22.833 18.333 -34.5 27
s-24.167 16.667 -37.5 24c-7.33301 4.66699 -11.333 8.66699 -12 12s0.333008 7.33301 3 12l27 48c4 6.66699 8.16699 10.167 12.5 10.5s10.166 -1.16699 17.499 -4.5c21.333 -8.66699 41.166 -18.334 59.499 -29.001s36.166 -22.334 53.499 -35.001l67 51
c5.33301 4 9.5 6 12.5 6s6.16699 -2.33301 9.5 -7l17 -22c3.33301 -4.66699 4.83301 -8 4.5 -10s-2.5 -4.66699 -6.5 -8l-59 -45c48 -44 83.5 -96 106.5 -156s34.5 -123.667 34.5 -191c0 -20.667 -1.33301 -42.667 -4 -66s-7.5 -46.333 -14.5 -69
s-16.667 -44.334 -29 -65.001s-28.166 -39 -47.499 -55s-42.666 -28.667 -69.999 -38s-59.666 -14 -96.999 -14c-48 0 -87.833 7 -119.5 21s-56.834 32.333 -75.501 55s-31.667 48.334 -39 77.001s-11 57.334 -11 86.001c0 30.667 4.5 61 13.5 91s23.167 56.5 42.5 79.5
s43.666 41.667 72.999 56s64.666 21.5 105.999 21.5c14.667 0 30.5 -1.16699 47.5 -3.5s34.5 -7.16602 52.5 -14.499zM297.002 361.001c-19.333 0 -35.5029 -3.66992 -48.5029 -11.0029s-23.5 -16.666 -31.5 -27.999s-13.667 -24.166 -17 -38.499s-5 -28.833 -5 -43.5
c0 -13.333 0.833008 -27.5 2.5 -42.5s5.83398 -28.667 12.501 -41s16.334 -22.666 29.001 -30.999s29.667 -12.5 51 -12.5s38.833 4.33301 52.5 13s24.5 20 32.5 34s13.5 30 16.5 48s4.5 36.333 4.5 55c0 14 -0.666992 27.333 -2 40s-2.66602 23.667 -3.99902 33
c-18 10 -35 16.667 -51 20s-30 5 -42 5z" />
    <glyph glyph-name="ntilde" unicode="&#xf1;" horiz-adv-x="609" 
d="M278 418c-6.66699 0 -16.1709 -0.167969 -28.5039 -0.500977s-25.5 -1.83301 -39.5 -4.5v-395c0 -7.33301 -1.16699 -12.166 -3.5 -14.499s-8.16602 -3.5 -17.499 -3.5h-103c-7.33301 0 -12.666 1.16699 -15.999 3.5s-5 7.16602 -5 14.499v429c0 22.667 4 40.5 12 53.5
s24.667 22.167 50 27.5c6.66699 1.33301 16.167 2.5 28.5 3.5s25.5 2 39.5 3s27.833 1.83301 41.5 2.5s25.5 1 35.5 1c46.667 0 87 -4.66699 121 -14s62.167 -24.166 84.5 -44.499s39 -47 50 -80s16.5 -73.167 16.5 -120.5v-261c0 -7.33301 -1.16699 -12.166 -3.5 -14.499
s-8.16602 -3.5 -17.499 -3.5h-104c-7.33301 0 -12.666 1.16699 -15.999 3.5s-5 7.16602 -5 14.499v270c0 22 -1.83301 41 -5.5 57s-10 29.5 -19 40.5s-21.333 19.167 -37 24.5s-35.167 8 -58.5 8zM345.996 598.999c-12 0 -24.0039 2.16992 -36.0039 6.50293
s-23.667 9 -35 14s-22.666 9.66699 -33.999 14s-23 6.5 -35 6.5c-18 0 -33.667 -10.333 -47 -31c-4 -6 -7.5 -9.83301 -10.5 -11.5s-7.16699 -0.833984 -12.5 2.49902l-44 25c-6 3.33301 -9.16699 6.66602 -9.5 9.99902s0.833984 7.66602 3.50098 12.999
c12.667 25.333 28.167 45.833 46.5 61.5s42.5 23.5 72.5 23.5c12.667 0 24.667 -2.16699 36 -6.5s22.5 -9 33.5 -14s21.833 -9.5 32.5 -13.5s21.334 -6 32.001 -6s19.5 2.5 26.5 7.5s13.833 13.167 20.5 24.5c4 7.33301 7 11.333 9 12s6 0 12 -2l50 -17
c6.66699 -2 10.334 -4.5 11.001 -7.5s-0.333008 -7.83301 -3 -14.5c-12.667 -28 -28.167 -51.167 -46.5 -69.5s-42.5 -27.5 -72.5 -27.5z" />
    <glyph glyph-name="ograve" unicode="&#xf2;" horiz-adv-x="595" 
d="M550 265c0 -88 -21.001 -156 -63.001 -204s-106 -72 -192 -72c-86.667 0 -150 24 -190 72s-60 115.333 -60 202c0 42.667 5.83301 81.167 17.5 115.5s28.334 63.166 50.001 86.499s48 41.333 79 54s66.167 19 105.5 19c84 0 147.167 -24.167 189.5 -72.5
s63.5 -115.166 63.5 -200.499zM398.999 262c0 22.667 -1.66602 43.332 -4.99902 61.999s-9 34.667 -17 48s-18.333 23.833 -31 31.5s-28.334 11.5 -47.001 11.5c-35.333 0 -61.5 -13.5 -78.5 -40.5s-25.5 -63.5 -25.5 -109.5c0 -50 7.83301 -88 23.5 -114s41.5 -39 77.5 -39
c18.667 0 34.5 3.83301 47.5 11.5s23.667 18.334 32 32.001s14.333 29.5 18 47.5s5.5 37.667 5.5 59zM369 610.998c3.33301 -6.66699 4 -11.168 2 -13.501s-5.66699 -4.16602 -11 -5.49902l-55 -20c-5.33301 -1.33301 -9.5 -1.5 -12.5 -0.5s-6.5 4.16699 -10.5 9.5l-116 172
c-2.66699 3.33301 -3.5 6.83301 -2.5 10.5s4.16699 6.16699 9.5 7.5l104 26c7.33301 1.33301 12.5 1 15.5 -1s5.5 -5.33301 7.5 -10z" />
    <glyph glyph-name="oacute" unicode="&#xf3;" horiz-adv-x="595" 
d="M550 265c0 -88 -21.001 -156 -63.001 -204s-106 -72 -192 -72c-86.667 0 -150 24 -190 72s-60 115.333 -60 202c0 42.667 5.83301 81.167 17.5 115.5s28.334 63.166 50.001 86.499s48 41.333 79 54s66.167 19 105.5 19c84 0 147.167 -24.167 189.5 -72.5
s63.5 -115.166 63.5 -200.499zM398.999 262c0 22.667 -1.66602 43.332 -4.99902 61.999s-9 34.667 -17 48s-18.333 23.833 -31 31.5s-28.334 11.5 -47.001 11.5c-35.333 0 -61.5 -13.5 -78.5 -40.5s-25.5 -63.5 -25.5 -109.5c0 -50 7.83301 -88 23.5 -114s41.5 -39 77.5 -39
c18.667 0 34.5 3.83301 47.5 11.5s23.667 18.334 32 32.001s14.333 29.5 18 47.5s5.5 37.667 5.5 59zM246 590.998c-6 2 -9.33398 4.50098 -10.001 7.50098s0 7.16699 2 12.5l70 174c3.33301 9.33301 7.5 14 12.5 14s11.167 -1 18.5 -3l95 -25
c10.667 -2.66699 13.334 -8.66699 8.00098 -18l-117 -172c-4 -6 -7.5 -9.33301 -10.5 -10s-7.16699 -0.333984 -12.5 0.999023z" />
    <glyph glyph-name="ocircumflex" unicode="&#xf4;" horiz-adv-x="595" 
d="M550 265c0 -88 -21.001 -156 -63.001 -204s-106 -72 -192 -72c-86.667 0 -150 24 -190 72s-60 115.333 -60 202c0 42.667 5.83301 81.167 17.5 115.5s28.334 63.166 50.001 86.499s48 41.333 79 54s66.167 19 105.5 19c84 0 147.167 -24.167 189.5 -72.5
s63.5 -115.166 63.5 -200.499zM398.999 262c0 22.667 -1.66602 43.332 -4.99902 61.999s-9 34.667 -17 48s-18.333 23.833 -31 31.5s-28.334 11.5 -47.001 11.5c-35.333 0 -61.5 -13.5 -78.5 -40.5s-25.5 -63.5 -25.5 -109.5c0 -50 7.83301 -88 23.5 -114s41.5 -39 77.5 -39
c18.667 0 34.5 3.83301 47.5 11.5s23.667 18.334 32 32.001s14.333 29.5 18 47.5s5.5 37.667 5.5 59zM496 621.998c5.33301 -5.33301 7.83496 -9.83301 7.50195 -13.5s-3.16602 -8.16699 -8.49902 -13.5l-29 -28c-4.66699 -3.33301 -8.83398 -5 -12.501 -5
s-8.83398 2.33301 -15.501 7l-139 98l-134 -100c-5.33301 -3.33301 -9.83301 -5 -13.5 -5s-8.16699 2.33301 -13.5 7l-30 28c-4 4.66699 -5.83301 8.5 -5.5 11.5s2.16602 7.16699 5.49902 12.5l131 137c9.33301 9.33301 19 16.833 29 22.5s20 8.5 30 8.5
c14.667 0 26.667 -2.33301 36 -7s19 -12.667 29 -24z" />
    <glyph glyph-name="otilde" unicode="&#xf5;" horiz-adv-x="595" 
d="M550 265c0 -88 -21.001 -156 -63.001 -204s-106 -72 -192 -72c-86.667 0 -150 24 -190 72s-60 115.333 -60 202c0 42.667 5.83301 81.167 17.5 115.5s28.334 63.166 50.001 86.499s48 41.333 79 54s66.167 19 105.5 19c84 0 147.167 -24.167 189.5 -72.5
s63.5 -115.166 63.5 -200.499zM398.999 262c0 22.667 -1.66602 43.332 -4.99902 61.999s-9 34.667 -17 48s-18.333 23.833 -31 31.5s-28.334 11.5 -47.001 11.5c-35.333 0 -61.5 -13.5 -78.5 -40.5s-25.5 -63.5 -25.5 -109.5c0 -50 7.83301 -88 23.5 -114s41.5 -39 77.5 -39
c18.667 0 34.5 3.83301 47.5 11.5s23.667 18.334 32 32.001s14.333 29.5 18 47.5s5.5 37.667 5.5 59zM371 604.998c-12 0 -24.0039 2.16992 -36.0039 6.50293s-23.667 9 -35 14s-22.666 9.66699 -33.999 14s-23 6.5 -35 6.5c-18 0 -33.667 -10.333 -47 -31
c-4 -6 -7.5 -9.83301 -10.5 -11.5s-7.16699 -0.833984 -12.5 2.49902l-44 25c-6 3.33301 -9.16699 6.66602 -9.5 9.99902s0.833984 7.66602 3.50098 12.999c12.667 25.333 28.167 45.833 46.5 61.5s42.5 23.5 72.5 23.5c12.667 0 24.667 -2.16699 36 -6.5s22.5 -9 33.5 -14
s21.833 -9.5 32.5 -13.5s21.334 -6 32.001 -6s19.5 2.5 26.5 7.5s13.833 13.167 20.5 24.5c4 7.33301 7 11.333 9 12s6 0 12 -2l50 -17c6.66699 -2 10.334 -4.5 11.001 -7.5s-0.333008 -7.83301 -3 -14.5c-12.667 -28 -28.167 -51.167 -46.5 -69.5s-42.5 -27.5 -72.5 -27.5z
" />
    <glyph glyph-name="odieresis" unicode="&#xf6;" horiz-adv-x="595" 
d="M550 265c0 -88 -21.001 -156 -63.001 -204s-106 -72 -192 -72c-86.667 0 -150 24 -190 72s-60 115.333 -60 202c0 42.667 5.83301 81.167 17.5 115.5s28.334 63.166 50.001 86.499s48 41.333 79 54s66.167 19 105.5 19c84 0 147.167 -24.167 189.5 -72.5
s63.5 -115.166 63.5 -200.499zM398.999 262c0 22.667 -1.66602 43.332 -4.99902 61.999s-9 34.667 -17 48s-18.333 23.833 -31 31.5s-28.334 11.5 -47.001 11.5c-35.333 0 -61.5 -13.5 -78.5 -40.5s-25.5 -63.5 -25.5 -109.5c0 -50 7.83301 -88 23.5 -114s41.5 -39 77.5 -39
c18.667 0 34.5 3.83301 47.5 11.5s23.667 18.334 32 32.001s14.333 29.5 18 47.5s5.5 37.667 5.5 59zM474 670.998c0 -10 -2 -19.333 -6 -28s-9.5 -16.334 -16.5 -23.001s-14.833 -12 -23.5 -16s-18 -6 -28 -6s-19.5 2 -28.5 6s-17 9.33301 -24 16
s-12.5 14.334 -16.5 23.001s-6 18 -6 28c0 20 7.5 37.333 22.5 52s32.5 22 52.5 22c10 0 19.333 -2 28 -6s16.5 -9.33301 23.5 -16s12.5 -14.5 16.5 -23.5s6 -18.5 6 -28.5zM269 670.998c0 -10 -2 -19.333 -6 -28s-9.5 -16.334 -16.5 -23.001s-15 -12 -24 -16
s-18.5 -6 -28.5 -6s-19.333 2 -28 6s-16.5 9.33301 -23.5 16s-12.5 14.334 -16.5 23.001s-6 18 -6 28s2 19.5 6 28.5s9.5 16.833 16.5 23.5s14.833 12 23.5 16s18 6 28 6s19.5 -2 28.5 -6s17 -9.33301 24 -16s12.5 -14.5 16.5 -23.5s6 -18.5 6 -28.5z" />
    <glyph glyph-name="divide" unicode="&#xf7;" horiz-adv-x="653" 
d="M422 542c0 -25.333 -9.00098 -46.667 -27.001 -64s-40 -26 -66 -26c-25.333 0 -47 8.5 -65 25.5s-27 38.5 -27 64.5c0 24.667 9 45.5 27 62.5s39.667 25.5 65 25.5c26.667 0 48.834 -8.33301 66.501 -25s26.5 -37.667 26.5 -63zM421.999 139.999
c0 -12.667 -2.33301 -24.5 -7 -35.5s-11.334 -20.5 -20.001 -28.5s-18.667 -14.333 -30 -19s-23.333 -7 -36 -7s-24.5 2.33301 -35.5 7s-20.667 11 -29 19s-15 17.5 -20 28.5s-7.5 22.833 -7.5 35.5c0 12 2.5 23.5 7.5 34.5s11.667 20.5 20 28.5s18 14.333 29 19
s22.833 7 35.5 7c26.667 0 48.834 -8.5 66.501 -25.5s26.5 -38.167 26.5 -63.5zM579.999 304.999c0 -14 -6.66699 -21 -20 -21h-467c-13.333 0 -20 6.66699 -20 20v80c0 8 1.33301 13.333 4 16s7.66699 4 15 4h469c12.667 0 19 -6.66699 19 -20v-79z" />
    <glyph glyph-name="oslash" unicode="&#xf8;" horiz-adv-x="595" 
d="M550 265c0 -88 -20.998 -155.998 -62.998 -203.998s-106 -72 -192 -72c-36 0 -67.833 4.33301 -95.5 13s-51.5 21 -71.5 37l-40 -44c-6.66699 -6.66699 -12.334 -7.33398 -17.001 -2.00098l-15 13c-4 3.33301 -5.66699 6.33301 -5 9s2.66699 5.66699 6 9l41 46
c-18.667 23.333 -32.167 51.166 -40.5 83.499s-12.5 68.833 -12.5 109.5c0 42.667 5.83301 81.167 17.5 115.5s28.334 63.166 50.001 86.499s48 41.333 79 54s66.167 19 105.5 19c71.333 0 128.333 -18.333 171 -55l39 45c4 4 7.16699 6.16699 9.5 6.5
s5.16602 -1.16699 8.49902 -4.5l15 -13c3.33301 -3.33301 5.16602 -6.16602 5.49902 -8.49902s-1.16699 -5.5 -4.5 -9.5l-43 -48c34.667 -46.667 52 -108.667 52 -186zM195.002 265.002c0 -30 2.99902 -56 8.99902 -78l168 191c-15.333 24.667 -39.666 37 -72.999 37
c-35.333 0 -61.5 -13.5 -78.5 -40.5s-25.5 -63.5 -25.5 -109.5zM399.001 262.002c0 13.333 -0.5 25.8311 -1.5 37.498s-3.16699 22.834 -6.5 33.501l-168 -189c16 -21.333 40.333 -32 73 -32c18.667 0 34.5 3.83301 47.5 11.5s23.667 18.334 32 32.001s14.333 29.5 18 47.5
s5.5 37.667 5.5 59z" />
    <glyph glyph-name="ugrave" unicode="&#xf9;" horiz-adv-x="600" 
d="M322 108c6.66699 0 16.1689 0.331055 28.502 0.998047s25.5 2 39.5 4v394c0 7.33301 1.16699 12.333 3.5 15s8.16602 4 17.499 4h103c14 0 21 -6.33301 21 -19v-427c0 -22.667 -4.5 -40.667 -13.5 -54s-25.167 -22.666 -48.5 -27.999
c-8 -1.33301 -18 -2.66602 -30 -3.99902s-24.833 -2.5 -38.5 -3.5s-27.167 -1.66699 -40.5 -2s-25 -0.5 -35 -0.5c-48 0 -88.833 4.66699 -122.5 14s-61 24.333 -82 45s-36.167 47.5 -45.5 80.5s-14 73.167 -14 120.5v259c0 7.33301 1.16699 12.333 3.5 15
s8.16602 4 17.499 4h104c14 0 21 -6.33301 21 -19v-268c0 -22 1.33301 -41.167 4 -57.5s8 -30 16 -41s19.333 -19.167 34 -24.5s33.667 -8 57 -8zM370.002 610.998c3.33301 -6.66699 4 -11.168 2 -13.501s-5.66699 -4.16602 -11 -5.49902l-55 -20
c-5.33301 -1.33301 -9.5 -1.5 -12.5 -0.5s-6.5 4.16699 -10.5 9.5l-116 172c-2.66699 3.33301 -3.5 6.83301 -2.5 10.5s4.16699 6.16699 9.5 7.5l104 26c7.33301 1.33301 12.5 1 15.5 -1s5.5 -5.33301 7.5 -10z" />
    <glyph glyph-name="uacute" unicode="&#xfa;" horiz-adv-x="600" 
d="M322 108c6.66699 0 16.1689 0.331055 28.502 0.998047s25.5 2 39.5 4v394c0 7.33301 1.16699 12.333 3.5 15s8.16602 4 17.499 4h103c14 0 21 -6.33301 21 -19v-427c0 -22.667 -4.5 -40.667 -13.5 -54s-25.167 -22.666 -48.5 -27.999
c-8 -1.33301 -18 -2.66602 -30 -3.99902s-24.833 -2.5 -38.5 -3.5s-27.167 -1.66699 -40.5 -2s-25 -0.5 -35 -0.5c-48 0 -88.833 4.66699 -122.5 14s-61 24.333 -82 45s-36.167 47.5 -45.5 80.5s-14 73.167 -14 120.5v259c0 7.33301 1.16699 12.333 3.5 15
s8.16602 4 17.499 4h104c14 0 21 -6.33301 21 -19v-268c0 -22 1.33301 -41.167 4 -57.5s8 -30 16 -41s19.333 -19.167 34 -24.5s33.667 -8 57 -8zM249.002 590.998c-6 2 -9.33398 4.50098 -10.001 7.50098s0 7.16699 2 12.5l70 174c3.33301 9.33301 7.5 14 12.5 14
s11.167 -1 18.5 -3l95 -25c10.667 -2.66699 13.334 -8.66699 8.00098 -18l-117 -172c-4 -6 -7.5 -9.33301 -10.5 -10s-7.16699 -0.333984 -12.5 0.999023z" />
    <glyph glyph-name="ucircumflex" unicode="&#xfb;" horiz-adv-x="600" 
d="M322 108c6.66699 0 16.1689 0.331055 28.502 0.998047s25.5 2 39.5 4v394c0 7.33301 1.16699 12.333 3.5 15s8.16602 4 17.499 4h103c14 0 21 -6.33301 21 -19v-427c0 -22.667 -4.5 -40.667 -13.5 -54s-25.167 -22.666 -48.5 -27.999
c-8 -1.33301 -18 -2.66602 -30 -3.99902s-24.833 -2.5 -38.5 -3.5s-27.167 -1.66699 -40.5 -2s-25 -0.5 -35 -0.5c-48 0 -88.833 4.66699 -122.5 14s-61 24.333 -82 45s-36.167 47.5 -45.5 80.5s-14 73.167 -14 120.5v259c0 7.33301 1.16699 12.333 3.5 15
s8.16602 4 17.499 4h104c14 0 21 -6.33301 21 -19v-268c0 -22 1.33301 -41.167 4 -57.5s8 -30 16 -41s19.333 -19.167 34 -24.5s33.667 -8 57 -8zM504.002 621.998c5.33301 -5.33301 7.83496 -9.83301 7.50195 -13.5s-3.16602 -8.16699 -8.49902 -13.5l-29 -28
c-4.66699 -3.33301 -8.83398 -5 -12.501 -5s-8.83398 2.33301 -15.501 7l-139 98l-134 -100c-5.33301 -3.33301 -9.83301 -5 -13.5 -5s-8.16699 2.33301 -13.5 7l-30 28c-4 4.66699 -5.83301 8.5 -5.5 11.5s2.16602 7.16699 5.49902 12.5l131 137
c9.33301 9.33301 19 16.833 29 22.5s20 8.5 30 8.5c14.667 0 26.667 -2.33301 36 -7s19 -12.667 29 -24z" />
    <glyph glyph-name="udieresis" unicode="&#xfc;" horiz-adv-x="600" 
d="M322 108c6.66699 0 16.1689 0.331055 28.502 0.998047s25.5 2 39.5 4v394c0 7.33301 1.16699 12.333 3.5 15s8.16602 4 17.499 4h103c14 0 21 -6.33301 21 -19v-427c0 -22.667 -4.5 -40.667 -13.5 -54s-25.167 -22.666 -48.5 -27.999
c-8 -1.33301 -18 -2.66602 -30 -3.99902s-24.833 -2.5 -38.5 -3.5s-27.167 -1.66699 -40.5 -2s-25 -0.5 -35 -0.5c-48 0 -88.833 4.66699 -122.5 14s-61 24.333 -82 45s-36.167 47.5 -45.5 80.5s-14 73.167 -14 120.5v259c0 7.33301 1.16699 12.333 3.5 15
s8.16602 4 17.499 4h104c14 0 21 -6.33301 21 -19v-268c0 -22 1.33301 -41.167 4 -57.5s8 -30 16 -41s19.333 -19.167 34 -24.5s33.667 -8 57 -8zM487.002 671.998c0 -10 -2 -19.333 -6 -28s-9.5 -16.334 -16.5 -23.001s-14.833 -12 -23.5 -16s-18 -6 -28 -6
s-19.5 2 -28.5 6s-17 9.33301 -24 16s-12.5 14.334 -16.5 23.001s-6 18 -6 28c0 20 7.5 37.333 22.5 52s32.5 22 52.5 22c10 0 19.333 -2 28 -6s16.5 -9.33301 23.5 -16s12.5 -14.5 16.5 -23.5s6 -18.5 6 -28.5zM282.002 671.998c0 -10 -2 -19.333 -6 -28
s-9.5 -16.334 -16.5 -23.001s-15 -12 -24 -16s-18.5 -6 -28.5 -6s-19.333 2 -28 6s-16.5 9.33301 -23.5 16s-12.5 14.334 -16.5 23.001s-6 18 -6 28s2 19.5 6 28.5s9.5 16.833 16.5 23.5s14.833 12 23.5 16s18 6 28 6s19.5 -2 28.5 -6s17 -9.33301 24 -16
s12.5 -14.5 16.5 -23.5s6 -18.5 6 -28.5z" />
    <glyph glyph-name="yacute" unicode="&#xfd;" horiz-adv-x="559" 
d="M348 -87c-15.333 -46 -37.3301 -78.835 -65.9971 -98.502s-66.667 -29.5 -114 -29.5c-13.333 0 -28.833 1 -46.5 3s-35.167 5.66699 -52.5 11c-8 2 -13.167 4.33301 -15.5 7s-2.5 7.66699 -0.5 15l17 79c2 8 4.33301 12.333 7 13s7.66699 0.333984 15 -0.999023
c10.667 -2 19.667 -3.33301 27 -4s14.666 -1 21.999 -1c23.333 0 41.666 3.83301 54.999 11.5s23.666 23.167 30.999 46.5l18 54h-29c-15.333 0 -26.333 2.66699 -33 8s-13 17 -19 35l-152 444c-2.66699 7.33301 -2.5 12.333 0.5 15s7.16699 4 12.5 4h117
c10 0 16.833 -1.16699 20.5 -3.5s6.5 -7.16602 8.5 -14.499l57 -202l47 -174h6l51 177l60 197c2 7.33301 4.66699 12.5 8 15.5s10 4.5 20 4.5h119c11.333 0 15 -5.33301 11 -16l-202 -597v1zM245.003 590.998c-6 2 -9.33398 4.50098 -10.001 7.50098s0 7.16699 2 12.5
l70 174c3.33301 9.33301 7.5 14 12.5 14s11.167 -1 18.5 -3l95 -25c10.667 -2.66699 13.334 -8.66699 8.00098 -18l-117 -172c-4 -6 -7.5 -9.33301 -10.5 -10s-7.16699 -0.333984 -12.5 0.999023z" />
    <glyph glyph-name="thorn" unicode="&#xfe;" horiz-adv-x="604" 
d="M211 -187c0 -7.33301 -1.16895 -12.0039 -3.50195 -14.0039s-8.16602 -3 -17.499 -3h-104c-7.33301 0 -12.666 1 -15.999 3s-5 6.66699 -5 14v887c0 7.33301 1.5 12.5 4.5 15.5s8.5 4.5 16.5 4.5h104c9.33301 0 15.166 -1.66699 17.499 -5s3.5 -8.66602 3.5 -15.999v-171
c16 2.66699 32 4.66699 48 6s31.667 2 47 2c47.333 0 87.166 -7.16699 119.499 -21.5s58.333 -33.666 78 -57.999s33.834 -53.166 42.501 -86.499s13 -69 13 -107c0 -37.333 -4.66699 -72.5 -14 -105.5s-23.666 -61.833 -42.999 -86.5s-43.833 -44.167 -73.5 -58.5
s-64.5 -21.5 -104.5 -21.5c-20 0 -38.5 0.833008 -55.5 2.5s-36.167 4.83398 -57.5 9.50098v-190zM406.998 265.996c0 27.333 -2.66895 50.332 -8.00195 68.999s-13.166 33.667 -23.499 45s-23 19.333 -38 24s-31.833 7 -50.5 7c-9.33301 0 -21.5 -1 -36.5 -3
s-28.167 -4.66699 -39.5 -8v-273c17.333 -4.66699 32.833 -7.66699 46.5 -9s25.834 -2 36.501 -2c33.333 0 60.5 11.333 81.5 34s31.5 61.334 31.5 116.001z" />
    <glyph glyph-name="ydieresis" unicode="&#xff;" horiz-adv-x="559" 
d="M348 -87c-15.333 -46 -37.3301 -78.835 -65.9971 -98.502s-66.667 -29.5 -114 -29.5c-13.333 0 -28.833 1 -46.5 3s-35.167 5.66699 -52.5 11c-8 2 -13.167 4.33301 -15.5 7s-2.5 7.66699 -0.5 15l17 79c2 8 4.33301 12.333 7 13s7.66699 0.333984 15 -0.999023
c10.667 -2 19.667 -3.33301 27 -4s14.666 -1 21.999 -1c23.333 0 41.666 3.83301 54.999 11.5s23.666 23.167 30.999 46.5l18 54h-29c-15.333 0 -26.333 2.66699 -33 8s-13 17 -19 35l-152 444c-2.66699 7.33301 -2.5 12.333 0.5 15s7.16699 4 12.5 4h117
c10 0 16.833 -1.16699 20.5 -3.5s6.5 -7.16602 8.5 -14.499l57 -202l47 -174h6l51 177l60 197c2 7.33301 4.66699 12.5 8 15.5s10 4.5 20 4.5h119c11.333 0 15 -5.33301 11 -16l-202 -597v1zM462.003 668.998c0 -10 -2 -19.333 -6 -28s-9.5 -16.334 -16.5 -23.001
s-14.833 -12 -23.5 -16s-18 -6 -28 -6s-19.5 2 -28.5 6s-17 9.33301 -24 16s-12.5 14.334 -16.5 23.001s-6 18 -6 28c0 20 7.5 37.333 22.5 52s32.5 22 52.5 22c10 0 19.333 -2 28 -6s16.5 -9.33301 23.5 -16s12.5 -14.5 16.5 -23.5s6 -18.5 6 -28.5zM257.003 668.998
c0 -10 -2 -19.333 -6 -28s-9.5 -16.334 -16.5 -23.001s-15 -12 -24 -16s-18.5 -6 -28.5 -6s-19.333 2 -28 6s-16.5 9.33301 -23.5 16s-12.5 14.334 -16.5 23.001s-6 18 -6 28s2 19.5 6 28.5s9.5 16.833 16.5 23.5s14.833 12 23.5 16s18 6 28 6s19.5 -2 28.5 -6
s17 -9.33301 24 -16s12.5 -14.5 16.5 -23.5s6 -18.5 6 -28.5z" />
    <glyph glyph-name="Amacron" unicode="&#x100;" horiz-adv-x="655" 
d="M441 146h-229l-39 -127c-2 -6.66699 -4.83301 -11.5 -8.5 -14.5s-10.167 -4.5 -19.5 -4.5h-117c-7.33301 0 -11.833 2 -13.5 6s-1.83398 8.66699 -0.500977 14l208 627c3.33301 11.333 7.16602 20.5 11.499 27.5s9.33301 12.5 15 16.5s12.334 6.83301 20.001 8.5
s16.5 2.5 26.5 2.5h60c11.333 0 21 -0.5 29 -1.5s15 -3.5 21 -7.5s11.167 -9.66699 15.5 -17s8.5 -17 12.5 -29l208 -627c1.33301 -4 1.33301 -8.33301 0 -13s-5.66602 -7 -12.999 -7h-119c-7.33301 -0 -13.5 0.833008 -18.5 2.5s-8.5 6.16699 -10.5 13.5zM248 270h157
l-38 127l-37 143h-6l-38 -143zM481 786c0 -14 -6.66699 -21 -20 -21h-271c-13.333 0 -20 7 -20 21v60c0 9.33301 1.5 15.166 4.5 17.499s8.16699 3.5 15.5 3.5h271c7.33301 0 12.5 -1.16699 15.5 -3.5s4.5 -8.16602 4.5 -17.499v-60z" />
    <glyph glyph-name="amacron" unicode="&#x101;" horiz-adv-x="576" 
d="M511 65c0 -8.66699 -1.16699 -15.999 -3.5 -21.999s-8.16602 -11.667 -17.499 -17c-15.333 -7.33301 -31.833 -13.333 -49.5 -18s-35.667 -8.33398 -54 -11.001s-36.833 -4.66699 -55.5 -6s-36.334 -2 -53.001 -2c-45.333 0 -82.833 4.33301 -112.5 13
s-53.5 20.5 -71.5 35.5s-30.667 32.667 -38 53s-11 42.166 -11 65.499c0 26 4.33301 49.833 13 71.5s21.667 40.5 39 56.5s39.166 28.5 65.499 37.5s57.5 13.5 93.5 13.5h110v16c0 9.33301 -1 18.333 -3 27s-6.16699 16.167 -12.5 22.5s-15.166 11.5 -26.499 15.5
s-26.333 6 -45 6c-10 0 -21.333 -0.5 -34 -1.5s-25.334 -2.33301 -38.001 -4s-25 -3.66699 -37 -6s-22.667 -4.83301 -32 -7.5c-8.66699 -2 -14.667 -2 -18 0s-5.66602 6.33301 -6.99902 13l-16 70c-2 7.33301 -2.16699 12.5 -0.5 15.5s5.16699 5.5 10.5 7.5
c30 10.667 61.5 18.334 94.5 23.001s65.833 7 98.5 7c72.667 0 126 -15.5 160 -46.5s51 -76.833 51 -137.5v-290zM365 238.001l-79.002 -0.00195312c-9.33301 0 -19.333 -0.666992 -30 -2s-20.5 -4.5 -29.5 -9.5s-16.5 -12.167 -22.5 -21.5s-9 -22 -9 -38
c0 -23.333 7.83301 -39.666 23.5 -48.999s36.834 -14 63.501 -14c4 0 9.33301 0.166992 16 0.5s13.834 1 21.501 2s15.5 2.33301 23.5 4s15.333 3.83398 22 6.50098v121zM446.998 634.999c0 -14 -6.66699 -21 -20 -21h-271c-13.333 0 -20 7 -20 21v60
c0 9.33301 1.5 15.166 4.5 17.499s8.16699 3.5 15.5 3.5h271c7.33301 0 12.5 -1.16699 15.5 -3.5s4.5 -8.16602 4.5 -17.499v-60z" />
    <glyph glyph-name="Abreve" unicode="&#x102;" horiz-adv-x="655" 
d="M441 146h-229l-39 -127c-2 -6.66699 -4.83301 -11.5 -8.5 -14.5s-10.167 -4.5 -19.5 -4.5h-117c-7.33301 0 -11.833 2 -13.5 6s-1.83398 8.66699 -0.500977 14l208 627c3.33301 11.333 7.16602 20.5 11.499 27.5s9.33301 12.5 15 16.5s12.334 6.83301 20.001 8.5
s16.5 2.5 26.5 2.5h60c11.333 0 21 -0.5 29 -1.5s15 -3.5 21 -7.5s11.167 -9.66699 15.5 -17s8.5 -17 12.5 -29l208 -627c1.33301 -4 1.33301 -8.33301 0 -13s-5.66602 -7 -12.999 -7h-119c-7.33301 -0 -13.5 0.833008 -18.5 2.5s-8.5 6.16699 -10.5 13.5zM248 270h157
l-38 127l-37 143h-6l-38 -143zM318 739c-20 0 -38.834 3.16699 -56.501 9.5s-34.334 15 -50.001 26s-30 23.333 -43 37s-24.833 28.167 -35.5 43.5c-1.33301 2 -2.66602 4.83301 -3.99902 8.5s1 8.16699 7 13.5l39 38c6.66699 5.33301 11.167 7.16602 13.5 5.49902
l11.5 -8.5c21.333 -21.333 42.5 -38 63.5 -50s41.167 -18 60.5 -18c8 0 16.167 0.833008 24.5 2.5s17.5 5 27.5 10s21 12 33 21s26 21.167 42 36.5c6.66699 5.33301 11.334 7.83301 14.001 7.5s5.66699 -2.16602 9 -5.49902l38 -33c6.66699 -6 9.5 -10.667 8.5 -14
s-2.5 -6.33301 -4.5 -9c-60.667 -80.667 -126.667 -121 -198 -121z" />
    <glyph glyph-name="abreve" unicode="&#x103;" horiz-adv-x="576" 
d="M511 65c0 -8.66699 -1.16699 -15.999 -3.5 -21.999s-8.16602 -11.667 -17.499 -17c-15.333 -7.33301 -31.833 -13.333 -49.5 -18s-35.667 -8.33398 -54 -11.001s-36.833 -4.66699 -55.5 -6s-36.334 -2 -53.001 -2c-45.333 0 -82.833 4.33301 -112.5 13
s-53.5 20.5 -71.5 35.5s-30.667 32.667 -38 53s-11 42.166 -11 65.499c0 26 4.33301 49.833 13 71.5s21.667 40.5 39 56.5s39.166 28.5 65.499 37.5s57.5 13.5 93.5 13.5h110v16c0 9.33301 -1 18.333 -3 27s-6.16699 16.167 -12.5 22.5s-15.166 11.5 -26.499 15.5
s-26.333 6 -45 6c-10 0 -21.333 -0.5 -34 -1.5s-25.334 -2.33301 -38.001 -4s-25 -3.66699 -37 -6s-22.667 -4.83301 -32 -7.5c-8.66699 -2 -14.667 -2 -18 0s-5.66602 6.33301 -6.99902 13l-16 70c-2 7.33301 -2.16699 12.5 -0.5 15.5s5.16699 5.5 10.5 7.5
c30 10.667 61.5 18.334 94.5 23.001s65.833 7 98.5 7c72.667 0 126 -15.5 160 -46.5s51 -76.833 51 -137.5v-290zM365 238.001l-79.002 -0.00195312c-9.33301 0 -19.333 -0.666992 -30 -2s-20.5 -4.5 -29.5 -9.5s-16.5 -12.167 -22.5 -21.5s-9 -22 -9 -38
c0 -23.333 7.83301 -39.666 23.5 -48.999s36.834 -14 63.501 -14c4 0 9.33301 0.166992 16 0.5s13.834 1 21.501 2s15.5 2.33301 23.5 4s15.333 3.83398 22 6.50098v121zM286.998 578.999c-20 0 -38.834 3.16699 -56.501 9.5s-34.334 15 -50.001 26s-30 23.333 -43 37
s-24.833 28.167 -35.5 43.5c-1.33301 2 -2.66602 4.83301 -3.99902 8.5s1 8.16699 7 13.5l39 38c6.66699 5.33301 11.167 7.16602 13.5 5.49902l11.5 -8.5c21.333 -21.333 42.5 -38 63.5 -50s41.167 -18 60.5 -18c8 0 16.167 0.833008 24.5 2.5s17.5 5 27.5 10s21 12 33 21
s26 21.167 42 36.5c6.66699 5.33301 11.334 7.83301 14.001 7.5s5.66699 -2.16602 9 -5.49902l38 -33c6.66699 -6 9.5 -10.667 8.5 -14s-2.5 -6.33301 -4.5 -9c-60.667 -80.667 -126.667 -121 -198 -121z" />
    <glyph glyph-name="Aogonek" unicode="&#x104;" horiz-adv-x="655" 
d="M441 146l-228.999 0.000976562l-39 -127c-2 -6.66699 -4.83301 -11.5 -8.5 -14.5s-10.167 -4.5 -19.5 -4.5h-117c-7.33301 0 -11.833 2 -13.5 6s-1.83398 8.66699 -0.500977 14l208 627c3.33301 11.333 7.16602 20.5 11.499 27.5s9.33301 12.5 15 16.5
s12.334 6.83301 20.001 8.5s16.5 2.5 26.5 2.5h60c11.333 0 21 -0.5 29 -1.5s15 -3.5 21 -7.5s11.167 -9.66699 15.5 -17s8.5 -17 12.5 -29l208 -627c1.33301 -4 1.33301 -8.33301 0 -13s-5.66602 -7 -12.999 -7h-75c-22 -22 -37.667 -42.167 -47 -60.5
s-14 -34.833 -14 -49.5c0 -26.667 17.667 -40 53 -40c6.66699 0 15.667 0.5 27 1.5s21.666 2.5 30.999 4.5c6 1.33301 10.5 1.66602 13.5 0.999023s5.16699 -3.66699 6.5 -9l10 -37c2 -6 2 -10.5 0 -13.5s-4.66699 -5.5 -8 -7.5c-20 -8 -41 -13.667 -63 -17
s-42.667 -5 -62 -5c-40 0 -68.667 8.5 -86 25.5s-26.333 37.833 -27 62.5c0 12 2.33301 25.167 7 39.5s11.167 28.5 19.5 42.5s18.333 27.333 30 40s24.5 23.667 38.5 33c-1.33301 1.33301 -2 3 -2 5zM248.001 270.001h157l-38 127l-37 143h-6l-38 -143z" />
    <glyph glyph-name="aogonek" unicode="&#x105;" horiz-adv-x="576" 
d="M511 65c0 -8.66699 -1.16699 -15.998 -3.5 -21.998s-8.16602 -11.667 -17.499 -17c-0.666992 -0.666992 -1.66699 -1 -3 -1c-20 -20.667 -34.167 -39.667 -42.5 -57s-12.5 -33 -12.5 -47c0 -26.667 17.667 -40 53 -40c6.66699 0 15.667 0.5 27 1.5s21.666 2.5 30.999 4.5
c6 1.33301 10.5 1.66602 13.5 0.999023s5.16699 -3.66699 6.5 -9l10 -37c2 -6 2 -10.5 0 -13.5s-4.66699 -5.5 -8 -7.5c-20 -8 -41 -13.667 -63 -17s-42.667 -5 -62 -5c-40 0 -68.667 8.5 -86 25.5s-26.333 37.833 -27 62.5c0 16 3.83301 33.667 11.5 53
s18.5 37.666 32.5 54.999c-32 -4 -63 -6 -93 -6c-45.333 0 -82.833 4.33301 -112.5 13s-53.5 20.5 -71.5 35.5s-30.667 32.667 -38 53s-11 42.166 -11 65.499c0 26 4.33301 49.833 13 71.5s21.667 40.5 39 56.5s39.166 28.5 65.499 37.5s57.5 13.5 93.5 13.5h110v16
c0 9.33301 -1 18.333 -3 27s-6.16699 16.167 -12.5 22.5s-15.166 11.5 -26.499 15.5s-26.333 6 -45 6c-10 0 -21.333 -0.5 -34 -1.5s-25.334 -2.33301 -38.001 -4s-25 -3.66699 -37 -6s-22.667 -4.83301 -32 -7.5c-8.66699 -2 -14.667 -2 -18 0
s-5.66602 6.33301 -6.99902 13l-16 70c-2 7.33301 -2.16699 12.5 -0.5 15.5s5.16699 5.5 10.5 7.5c30 10.667 61.5 18.334 94.5 23.001s65.833 7 98.5 7c72.667 0 126 -15.5 160 -46.5s51 -76.833 51 -137.5v-290zM365 238.002l-79.002 -0.00195312
c-9.33301 0 -19.333 -0.666992 -30 -2s-20.5 -4.5 -29.5 -9.5s-16.5 -12.167 -22.5 -21.5s-9 -22 -9 -38c0 -23.333 7.83301 -39.666 23.5 -48.999s36.834 -14 63.501 -14c4 0 9.33301 0.166992 16 0.5s13.834 1 21.501 2s15.5 2.33301 23.5 4s15.333 3.83398 22 6.50098
v121z" />
    <glyph glyph-name="Cacute" unicode="&#x106;" horiz-adv-x="643" 
d="M388 127c32 0 60.335 3.83398 85.002 11.501s47.667 15.5 69 23.5c9.33301 4 16 4.83301 20 2.5s7.66699 -7.16602 11 -14.499l34 -72c4.66699 -9.33301 6.33398 -16.333 5.00098 -21s-5 -8.66699 -11 -12c-36 -22 -73.833 -36.833 -113.5 -44.5
s-78.834 -11.5 -117.501 -11.5c-54.667 0 -101.834 8.16699 -141.501 24.5s-72.334 39.833 -98.001 70.5s-44.667 68.167 -57 112.5s-18.5 94.166 -18.5 149.499c0 54.667 7.83301 104.334 23.5 149.001s37.5 83 65.5 115s61.833 56.667 101.5 74s83.5 26 131.5 26
c34 0 67.333 -2.83301 100 -8.5s64.667 -17.167 96 -34.5c7.33301 -4 11.666 -8 12.999 -12s-0.333984 -11.667 -5.00098 -23l-31 -69c-3.33301 -9.33301 -6.83301 -15 -10.5 -17s-10.167 -1.33301 -19.5 2c-24 8.66699 -46.333 15.167 -67 19.5s-43.667 6.5 -69 6.5
c-27.333 0 -51.5 -5.83301 -72.5 -17.5s-38.667 -27.667 -53 -48s-25.166 -44.333 -32.499 -72s-11 -57.834 -11 -90.501s2.83301 -62.334 8.5 -89.001s15.334 -49.667 29.001 -69s31.5 -34.333 53.5 -45s49.333 -16 82 -16zM450.002 941.001
c4 3.33301 7.66699 5.66602 11 6.99902s7.66602 -0.666992 12.999 -6l69 -79c4 -4 5.66699 -7.83301 5 -11.5s-3 -6.16699 -7 -7.5l-193 -99c-6.66699 -3.33301 -11.5 -4.5 -14.5 -3.5s-6.16699 3.16699 -9.5 6.5l-38 46c-3.33301 4 -5.16602 7.33301 -5.49902 10
s2.16699 6.33398 7.5 11.001z" />
    <glyph glyph-name="cacute" unicode="&#x107;" horiz-adv-x="511" 
d="M308 119c21.333 0 42.166 2.50098 62.499 7.50098s37.833 10.167 52.5 15.5c8.66699 3.33301 14.5 4.5 17.5 3.5s5.83301 -5.16699 8.5 -12.5l28 -75c3.33301 -6.66699 4.83301 -12 4.5 -16s-4.16602 -8 -11.499 -12c-29.333 -16 -60.666 -26.833 -93.999 -32.5
s-63.666 -8.5 -90.999 -8.5c-78.667 0 -138.334 22.667 -179.001 68s-61 113.333 -61 204c0 42.667 5.83301 81.167 17.5 115.5s28.167 63.5 49.5 87.5s47.5 42.333 78.5 55s65.5 19 103.5 19c28 0 55.667 -2.83301 83 -8.5s52.333 -14.167 75 -25.5
c8.66699 -4 13.5 -7.66699 14.5 -11s-0.166992 -9 -3.5 -17l-28 -77c-3.33301 -7.33301 -7 -11.333 -11 -12s-10.667 0.333008 -20 3c-17.333 5.33301 -34.333 9.66602 -51 12.999s-32.667 5 -48 5c-20 0 -36.833 -4 -50.5 -12s-24.834 -18.667 -33.501 -32
s-15 -28.833 -19 -46.5s-6 -36.5 -6 -56.5c0 -20.667 1.66699 -39.667 5 -57s9.33301 -32.333 18 -45s20.167 -22.5 34.5 -29.5s32.5 -10.5 54.5 -10.5zM234 591.001c-6 2 -9.33398 4.50098 -10.001 7.50098s0 7.16699 2 12.5l70 174c3.33301 9.33301 7.5 14 12.5 14
s11.167 -1 18.5 -3l95 -25c10.667 -2.66699 13.334 -8.66699 8.00098 -18l-117 -172c-4 -6 -7.5 -9.33301 -10.5 -10s-7.16699 -0.333984 -12.5 0.999023z" />
    <glyph glyph-name="Ccircumflex" unicode="&#x108;" horiz-adv-x="643" 
d="M388 127c32 0 60.335 3.83398 85.002 11.501s47.667 15.5 69 23.5c9.33301 4 16 4.83301 20 2.5s7.66699 -7.16602 11 -14.499l34 -72c4.66699 -9.33301 6.33398 -16.333 5.00098 -21s-5 -8.66699 -11 -12c-36 -22 -73.833 -36.833 -113.5 -44.5
s-78.834 -11.5 -117.501 -11.5c-54.667 0 -101.834 8.16699 -141.501 24.5s-72.334 39.833 -98.001 70.5s-44.667 68.167 -57 112.5s-18.5 94.166 -18.5 149.499c0 54.667 7.83301 104.334 23.5 149.001s37.5 83 65.5 115s61.833 56.667 101.5 74s83.5 26 131.5 26
c34 0 67.333 -2.83301 100 -8.5s64.667 -17.167 96 -34.5c7.33301 -4 11.666 -8 12.999 -12s-0.333984 -11.667 -5.00098 -23l-31 -69c-3.33301 -9.33301 -6.83301 -15 -10.5 -17s-10.167 -1.33301 -19.5 2c-24 8.66699 -46.333 15.167 -67 19.5s-43.667 6.5 -69 6.5
c-27.333 0 -51.5 -5.83301 -72.5 -17.5s-38.667 -27.667 -53 -48s-25.166 -44.333 -32.499 -72s-11 -57.834 -11 -90.501s2.83301 -62.334 8.5 -89.001s15.334 -49.667 29.001 -69s31.5 -34.333 53.5 -45s49.333 -16 82 -16zM561.002 796.001
c6 -5.33301 9.00098 -9.83301 9.00098 -13.5s-2.33301 -7.83398 -7 -12.501l-28 -31c-4 -4.66699 -8.33301 -6.5 -13 -5.5s-9.66699 3.16699 -15 6.5l-142 77l-138 -75c-5.33301 -3.33301 -10 -5.16602 -14 -5.49902s-8.33301 2.16699 -13 7.5l-26 27
c-4 5.33301 -6.16699 9.5 -6.5 12.5s1.83398 6.83301 6.50098 11.5l133 115c9.33301 8 19.166 14.333 29.499 19s19.833 7 28.5 7c19.333 0 39.666 -8.66699 60.999 -26z" />
    <glyph glyph-name="ccircumflex" unicode="&#x109;" horiz-adv-x="511" 
d="M308 119c21.333 0 42.166 2.50098 62.499 7.50098s37.833 10.167 52.5 15.5c8.66699 3.33301 14.5 4.5 17.5 3.5s5.83301 -5.16699 8.5 -12.5l28 -75c3.33301 -6.66699 4.83301 -12 4.5 -16s-4.16602 -8 -11.499 -12c-29.333 -16 -60.666 -26.833 -93.999 -32.5
s-63.666 -8.5 -90.999 -8.5c-78.667 0 -138.334 22.667 -179.001 68s-61 113.333 -61 204c0 42.667 5.83301 81.167 17.5 115.5s28.167 63.5 49.5 87.5s47.5 42.333 78.5 55s65.5 19 103.5 19c28 0 55.667 -2.83301 83 -8.5s52.333 -14.167 75 -25.5
c8.66699 -4 13.5 -7.66699 14.5 -11s-0.166992 -9 -3.5 -17l-28 -77c-3.33301 -7.33301 -7 -11.333 -11 -12s-10.667 0.333008 -20 3c-17.333 5.33301 -34.333 9.66602 -51 12.999s-32.667 5 -48 5c-20 0 -36.833 -4 -50.5 -12s-24.834 -18.667 -33.501 -32
s-15 -28.833 -19 -46.5s-6 -36.5 -6 -56.5c0 -20.667 1.66699 -39.667 5 -57s9.33301 -32.333 18 -45s20.167 -22.5 34.5 -29.5s32.5 -10.5 54.5 -10.5zM483 623.001c5.33301 -5.33301 7.83496 -9.83301 7.50195 -13.5s-3.16602 -8.16699 -8.49902 -13.5l-29 -28
c-4.66699 -3.33301 -8.83398 -5 -12.501 -5s-8.83398 2.33301 -15.501 7l-139 98l-134 -100c-5.33301 -3.33301 -9.83301 -5 -13.5 -5s-8.16699 2.33301 -13.5 7l-30 28c-4 4.66699 -5.83301 8.5 -5.5 11.5s2.16602 7.16699 5.49902 12.5l131 137
c9.33301 9.33301 19 16.833 29 22.5s20 8.5 30 8.5c14.667 0 26.667 -2.33301 36 -7s19 -12.667 29 -24z" />
    </font>
</defs>
</svg>
